<svg width="22" height="22" viewBox="0 0 22 22" fill="none" xmlns="http://www.w3.org/2000/svg">
<g clip-path="url(#clip0_9_119)">
<path d="M10.723 21.3186C8.64703 21.3176 6.61801 20.701 4.89243 19.5469C3.16686 18.3928 1.82222 16.753 1.02853 14.8348C0.234827 12.9165 0.0277009 10.806 0.433346 8.7701C0.838991 6.73417 1.83919 4.86422 3.30748 3.39668C4.77577 1.92914 6.64623 0.929899 8.68236 0.52529C10.7185 0.120681 12.8289 0.328884 14.7467 1.12356C16.6645 1.91823 18.3037 3.26369 19.4569 4.98985C20.6101 6.71601 21.2257 8.74536 21.2257 10.8213C21.2228 13.6054 20.1152 16.2746 18.146 18.2428C16.1769 20.211 13.5071 21.3172 10.723 21.3186ZM10.723 4.86481C9.54581 4.86903 8.3963 5.22196 7.41957 5.87903C6.44284 6.5361 5.68271 7.46784 5.23515 8.55661C4.78759 9.64539 4.67268 10.8424 4.90492 11.9964C5.13716 13.1504 5.70614 14.2098 6.54002 15.0407C7.37389 15.8716 8.43527 16.4368 9.59013 16.6649C10.745 16.893 11.9416 16.7738 13.0287 16.3223C14.1159 15.8709 15.0449 15.1074 15.6985 14.1283C16.352 13.1493 16.7008 11.9985 16.7008 10.8213C16.7001 10.0375 16.5449 9.26149 16.244 8.53773C15.943 7.81398 15.5024 7.15667 14.9471 6.60342C14.3919 6.05017 13.733 5.61183 13.0082 5.3135C12.2833 5.01517 11.5068 4.8627 10.723 4.86481Z" fill="#EC1D77"/>
</g>
<defs>
<clipPath id="clip0_9_119">
<rect width="21" height="21" fill="white" transform="translate(0.225647 0.323975)"/>
</clipPath>
</defs>
</svg>
