<svg width="40" height="40" viewBox="0 0 40 40" fill="none" xmlns="http://www.w3.org/2000/svg">
<g clip-path="url(#clip0_9_115)">
<path d="M20.2235 39.524C16.3376 39.522 12.5394 38.3679 9.30931 36.2075C6.0792 34.0472 3.56217 30.9776 2.07645 27.3868C0.590717 23.7961 0.202997 19.8454 0.962326 16.0343C1.72165 12.2233 3.59394 8.72291 6.34244 5.97581C9.09094 3.22871 12.5922 1.35823 16.4037 0.600841C20.2152 -0.156548 24.1656 0.23319 27.7556 1.72074C31.3456 3.2083 34.4139 5.72687 36.5726 8.95808C38.7313 12.1893 39.8835 15.988 39.8835 19.874C39.8782 25.0856 37.8049 30.0821 34.1188 33.7663C30.4327 37.4506 25.4352 39.5214 20.2235 39.524ZM20.2235 8.72401C18.02 8.73192 15.8682 9.39257 14.0399 10.6225C12.2115 11.8525 10.7886 13.5966 9.95085 15.6347C9.11306 17.6728 8.89796 19.9134 9.33269 22.0737C9.76742 24.2339 10.8325 26.2169 12.3934 27.7723C13.9544 29.3276 15.9412 30.3856 18.103 30.8126C20.2647 31.2396 22.5046 31.0164 24.5397 30.1714C26.5747 29.3263 28.3138 27.8972 29.5372 26.0644C30.7606 24.2317 31.4135 22.0776 31.4135 19.874C31.4122 18.4068 31.1216 16.9542 30.5583 15.5994C29.995 14.2446 29.1701 13.0142 28.1307 11.9785C27.0914 10.9429 25.858 10.1224 24.5012 9.56392C23.1444 9.00546 21.6908 8.72007 20.2235 8.72401Z" fill="#EC1D77" fill-opacity="0.4"/>
</g>
<defs>
<clipPath id="clip0_9_115">
<rect width="39.31" height="39.31" fill="white" transform="translate(0.573547 0.223999)"/>
</clipPath>
</defs>
</svg>
