<svg width="26" height="27" viewBox="0 0 26 27" fill="none" xmlns="http://www.w3.org/2000/svg">
<circle cx="13" cy="13.5635" r="13" fill="url(#paint0_linear_20_127)"/>
<rect x="6" y="6.56348" width="14" height="14" rx="7" fill="url(#paint1_linear_20_127)"/>
<path d="M12.084 8.39258L12.691 7.78555C12.948 7.52852 13.3637 7.52852 13.618 7.78555L18.9336 13.0984C19.1906 13.3555 19.1906 13.7711 18.9336 14.0254L13.618 19.341C13.3609 19.598 12.9453 19.598 12.691 19.341L12.084 18.734C11.8242 18.4742 11.8297 18.0504 12.0949 17.7961L15.3898 14.657H7.53125C7.16758 14.657 6.875 14.3645 6.875 14.0008V13.1258C6.875 12.7621 7.16758 12.4695 7.53125 12.4695H15.3898L12.0949 9.33047C11.827 9.07617 11.8215 8.65234 12.084 8.39258Z" fill="white"/>
<defs>
<linearGradient id="paint0_linear_20_127" x1="0" y1="13.5635" x2="26" y2="13.5635" gradientUnits="userSpaceOnUse">
<stop stop-color="#EC1D77"/>
<stop offset="1" stop-color="#FF737A"/>
</linearGradient>
<linearGradient id="paint1_linear_20_127" x1="6" y1="13.5635" x2="20" y2="13.5635" gradientUnits="userSpaceOnUse">
<stop stop-color="#EC1D77"/>
<stop offset="1" stop-color="#FF737A"/>
</linearGradient>
</defs>
</svg>
