<svg width="106" height="148" viewBox="0 0 106 148" fill="none" xmlns="http://www.w3.org/2000/svg">
<path d="M1.94187 147.519V125.36L53.7174 77.4199C58.1209 73.1585 61.814 69.3233 64.797 65.9142C67.8273 62.5051 70.1237 59.167 71.6862 55.9C73.2487 52.5856 74.0299 49.0108 74.0299 45.1755C74.0299 40.9142 73.0593 37.2447 71.118 34.167C69.1767 31.042 66.5252 28.6509 63.1635 26.9937C59.8017 25.2892 55.9902 24.4369 51.7288 24.4369C47.278 24.4369 43.3955 25.3365 40.0811 27.1358C36.7667 28.935 34.2099 31.5155 32.4106 34.8772C30.6114 38.239 29.7118 42.2399 29.7118 46.8801H0.521418C0.521418 37.363 2.67577 29.1007 6.98449 22.0931C11.2932 15.0856 17.3301 9.66417 25.0953 5.82894C32.8604 1.99371 41.8093 0.0760999 51.9419 0.0760999C62.3585 0.0760999 71.4258 1.92269 79.1436 5.61587C86.9087 9.26171 92.9457 14.328 97.2544 20.8147C101.563 27.3015 103.717 34.7352 103.717 43.1159C103.717 48.6083 102.628 54.0297 100.45 59.3801C98.3197 64.7305 94.5082 70.6727 89.0157 77.2068C83.5233 83.6935 75.7818 91.4824 65.7913 100.573L44.5555 121.383V122.377H105.635V147.519H1.94187Z" fill="url(#paint0_linear_24_562)" fill-opacity="0.1"/>
<defs>
<linearGradient id="paint0_linear_24_562" x1="39.1521" y1="-5.48071" x2="39.1521" y2="154.519" gradientUnits="userSpaceOnUse">
<stop stop-color="#444444"/>
<stop offset="1" stop-color="#444444" stop-opacity="0"/>
</linearGradient>
</defs>
</svg>
