<svg width="112" height="150" viewBox="0 0 112 150" fill="none" xmlns="http://www.w3.org/2000/svg">
<path d="M55.554 149.665C44.9479 149.665 35.5019 147.842 27.2159 144.197C18.9773 140.503 12.4669 135.437 7.68466 128.998C2.94981 122.511 0.511364 115.03 0.369319 106.555H31.3352C31.5246 110.106 32.6847 113.231 34.8153 115.93C36.9934 118.581 39.8816 120.641 43.4801 122.109C47.0786 123.576 51.1269 124.31 55.625 124.31C60.3125 124.31 64.4555 123.482 68.054 121.824C71.6525 120.167 74.4697 117.871 76.5057 114.935C78.5417 112 79.5597 108.614 79.5597 104.779C79.5597 100.896 78.4706 97.4637 76.2926 94.4807C74.1619 91.4504 71.0843 89.083 67.0597 87.3785C63.0824 85.6739 58.3475 84.8216 52.8551 84.8216H39.2898V62.2364H52.8551C57.4953 62.2364 61.5909 61.4315 65.142 59.8216C68.7405 58.2118 71.5341 55.9864 73.5227 53.1455C75.5114 50.2572 76.5057 46.8955 76.5057 43.0603C76.5057 39.4144 75.6297 36.2184 73.8778 33.4722C72.1733 30.6786 69.7585 28.5006 66.6335 26.9381C63.5559 25.3756 59.9574 24.5944 55.8381 24.5944C51.6714 24.5944 47.8598 25.3519 44.4034 26.8671C40.947 28.3349 38.1771 30.4419 36.0938 33.1881C34.0104 35.9343 32.8977 39.154 32.7557 42.8472H3.28125C3.4233 34.4665 5.81439 27.0802 10.4545 20.6881C15.0947 14.2961 21.3447 9.3008 29.2045 5.70232C37.1117 2.05649 46.0369 0.233571 55.9801 0.233571C66.018 0.233571 74.8011 2.05649 82.3295 5.70232C89.858 9.34815 95.7055 14.2724 99.8722 20.475C104.086 26.6304 106.17 33.5432 106.122 41.2137C106.17 49.3576 103.636 56.1521 98.5227 61.5972C93.4564 67.0423 86.8513 70.4987 78.7074 71.9665V73.1029C89.4081 74.476 97.5521 78.1929 103.139 84.2535C108.774 90.2667 111.567 97.7951 111.52 106.839C111.567 115.125 109.176 122.487 104.347 128.927C99.5644 135.366 92.9593 140.432 84.5312 144.126C76.1032 147.819 66.4441 149.665 55.554 149.665Z" fill="url(#paint0_linear_24_571)" fill-opacity="0.1"/>
<defs>
<linearGradient id="paint0_linear_24_571" x1="39" y1="-5.32324" x2="39" y2="154.677" gradientUnits="userSpaceOnUse">
<stop stop-color="#444444"/>
<stop offset="1" stop-color="#444444" stop-opacity="0"/>
</linearGradient>
</defs>
</svg>
