<svg width="376" height="320" viewBox="0 0 376 320" fill="none" xmlns="http://www.w3.org/2000/svg">
<path d="M145.467 218.557V190.442H166.924C169.284 175.261 175.338 160.886 184.557 148.575L169.132 133.203L189.078 113.322L204.58 128.775C216.916 119.728 231.276 113.809 246.419 111.529V89.5264H274.629V111.494C289.779 113.723 304.156 119.597 316.518 128.607L332.052 113.123L351.996 133.005L336.603 148.347C345.859 160.626 351.957 174.977 354.367 190.146H375.878V218.261H354.601C352.447 233.604 346.522 248.18 337.353 260.69L352.211 275.503L332.267 295.381L317.551 280.713C305.042 290.08 290.394 296.202 274.924 298.53V319.174H246.716V298.557C231.241 296.288 216.574 290.221 204.035 280.9L189.288 295.596L169.341 275.717L184.167 260.94C174.958 248.458 168.986 233.902 166.78 218.565L145.467 218.557ZM260.673 254.56C288.12 254.56 310.369 232.383 310.369 205.029C310.369 191.892 305.133 179.293 295.814 170.004C286.494 160.715 273.853 155.496 260.673 155.496C247.493 155.496 234.852 160.715 225.532 170.004C216.212 179.293 210.976 191.892 210.976 205.029C210.976 232.383 233.226 254.56 260.673 254.56Z" fill="#EC1D77"/>
<path d="M87.892 73.5919L87.2706 58.2118L99.0086 57.7419C99.9646 49.3853 102.959 41.3891 107.73 34.4517L98.9541 26.3787L109.428 15.0677L118.249 23.1815C124.799 17.9633 132.524 14.4113 140.758 12.8321L140.273 0.795821L155.704 0.179199L156.189 12.1964C164.526 13.0854 172.52 15.9829 179.482 20.6389L187.639 11.827L198.993 22.2742L190.91 31.0046C196.24 37.5223 199.889 45.2414 201.538 53.488L213.306 53.0181L213.925 68.3982L202.285 68.8627C201.445 77.3042 198.524 85.4076 193.782 92.4517L202.231 100.229L191.757 111.54L183.385 103.839C176.748 109.236 168.869 112.905 160.457 114.514L160.912 125.811L145.481 126.431L145.026 115.152C136.509 114.248 128.352 111.247 121.288 106.419L113.546 114.783L102.208 104.336L109.992 95.9151C104.679 89.2878 101.091 81.4555 99.5455 73.1138L87.892 73.5919ZM151.706 90.7675C157.083 90.5532 162.276 88.7543 166.628 85.5983C170.979 82.4423 174.294 78.0709 176.153 73.0371C178.012 68.0033 178.332 62.5331 177.071 57.3182C175.811 52.1034 173.028 47.3781 169.073 43.74C165.118 40.1019 160.17 37.7144 154.854 36.8794C149.538 36.0443 144.093 36.7992 139.207 39.0487C134.322 41.2982 130.215 44.9413 127.407 49.5171C124.599 54.0928 123.215 59.3958 123.43 64.7555C123.573 68.314 124.418 71.8097 125.916 75.0428C127.414 78.2759 129.537 81.1833 132.163 83.5987C134.788 86.0142 137.866 87.8905 141.219 89.1205C144.572 90.3506 148.135 90.9102 151.706 90.7675Z" fill="#FF737A"/>
<path d="M1.93774 199.145L3.05176e-05 180.074L14.5561 178.604C15.1089 168.144 18.2238 157.979 23.6287 148.996L12.106 139.624L24.2637 124.774L35.8464 134.189C43.5912 127.207 52.9241 122.209 63.0398 119.626L61.5217 104.686L80.6563 102.755L82.1716 117.657C92.6013 118.131 102.759 121.128 111.766 126.39L121.239 114.821L136.139 126.941L126.755 138.402C133.881 146.1 139.007 155.421 141.685 165.549L156.276 164.074L158.214 183.146L143.77 184.602C143.374 195.166 140.363 205.47 135.005 214.593L146.108 223.623L133.947 238.473L122.956 229.533C115.116 236.742 105.601 241.897 95.2668 244.533L96.6922 258.544L77.5576 260.476L76.135 246.492C65.4806 246.009 55.1136 242.895 45.9655 237.43L36.9719 248.41L22.0725 236.289L31.1097 225.25C24.0001 217.414 18.9445 207.949 16.3929 197.695L1.93774 199.145ZM82.5695 215.68C89.2362 215.006 95.5527 212.377 100.72 208.125C105.888 203.873 109.675 198.19 111.602 191.793C113.528 185.396 113.509 178.574 111.546 172.188C109.582 165.802 105.763 160.14 100.571 155.917C95.3796 151.695 89.0481 149.102 82.3777 148.466C75.7072 147.83 68.9974 149.18 63.0965 152.344C57.1957 155.509 52.3689 160.347 49.2264 166.246C46.084 172.145 44.7671 178.84 45.4423 185.485C45.8906 189.897 47.2066 194.179 49.3151 198.084C51.4236 201.99 54.2834 205.443 57.731 208.247C61.1787 211.051 65.1467 213.151 69.4085 214.426C73.6703 215.701 78.1424 216.127 82.5695 215.68Z" fill="#EC1D77"/>
</svg>
