<svg width="466" height="544" viewBox="0 0 466 544" fill="none" xmlns="http://www.w3.org/2000/svg">
<g opacity="0.2">
<path d="M12.2205 209.586H29.338L48.4207 198.563C49.9374 197.872 51.5952 197.548 53.2603 197.617C54.9253 197.686 56.5508 198.146 58.0052 198.96L76.3984 209.586H93.5332V216.313C93.536 216.854 93.3831 217.384 93.0926 217.84C92.8022 218.296 92.3866 218.658 91.8956 218.884L57.3329 238.842C55.8162 239.533 54.1584 239.857 52.4934 239.788C50.8283 239.719 49.2028 239.259 47.7484 238.445L14.5476 219.28C13.9484 219.011 13.4236 218.601 13.0182 218.084C12.6128 217.567 12.339 216.96 12.2205 216.313V209.586Z" fill="url(#paint0_linear_24_224)"/>
<path d="M14.5649 218.487L47.7658 237.651C49.2202 238.465 50.8456 238.926 52.5107 238.994C54.1757 239.063 55.8336 238.739 57.3502 238.048L91.9128 218.09C92.4039 217.864 92.8195 217.502 93.11 217.046C93.4004 216.59 93.5534 216.06 93.5505 215.52V216.313C93.5534 216.854 93.4004 217.384 93.11 217.84C92.8195 218.296 92.4039 218.658 91.9128 218.884L57.3502 238.842C55.8336 239.533 54.1757 239.857 52.5107 239.788C50.8456 239.719 49.2202 239.259 47.7658 238.445L14.5649 219.28C13.9658 219.011 13.4409 218.601 13.0355 218.084C12.6301 217.567 12.3564 216.96 12.2378 216.313V215.52C12.3591 216.165 12.6339 216.771 13.039 217.288C13.4441 217.804 13.9674 218.216 14.5649 218.487Z" fill="url(#paint1_linear_24_224)"/>
<path d="M92.4817 217.107V210.379H75.3468L56.9192 199.753C55.4648 198.939 53.8393 198.479 52.1742 198.41C50.5092 198.341 48.8513 198.666 47.3347 199.357L28.252 210.379H12.1859V209.586H29.338L48.4207 198.563C49.9374 197.872 51.5952 197.548 53.2603 197.617C54.9253 197.686 56.5508 198.146 58.0052 198.96L76.3984 209.586H93.5332V216.313C93.536 216.854 93.3831 217.384 93.0926 217.84C92.8022 218.296 92.3866 218.658 91.8956 218.884L91.7059 218.987C91.9623 218.747 92.1642 218.456 92.2981 218.131C92.4319 217.807 92.4945 217.457 92.4817 217.107Z" fill="#D4088C"/>
<path d="M13.2029 210.5V217.176C13.276 217.824 13.5608 218.431 14.0131 218.901C13.554 218.614 13.1623 218.231 12.8648 217.778C12.5672 217.326 12.3709 216.814 12.2892 216.279V209.672C12.6279 209.908 12.935 210.186 13.2029 210.5Z" fill="#6EE8FC"/>
<path d="M57.3503 232.114L91.9129 212.156C94.3607 210.724 94.0504 208.258 91.2234 206.619L58.0398 187.437C56.5841 186.627 54.9589 186.169 53.2946 186.1C51.6303 186.031 49.973 186.353 48.4554 187.04L13.8237 207.016C11.3587 208.43 11.669 210.914 14.496 212.553L47.7658 231.718C49.2202 232.532 50.8457 232.992 52.5107 233.061C54.1758 233.13 55.8336 232.805 57.3503 232.114Z" fill="url(#paint2_linear_24_224)"/>
<path d="M13.8243 207.016L48.4559 187.04C49.9439 186.278 51.618 185.955 53.2826 186.109C52.077 186.149 50.8971 186.468 49.835 187.04L15.3585 207.016C12.8934 208.43 13.2037 210.914 16.048 212.553L49.1109 231.718C50.5737 232.523 52.201 232.983 53.8687 233.063C51.7482 233.203 49.6318 232.736 47.7664 231.718L14.5655 212.57C11.7384 210.845 11.4282 208.43 13.8243 207.016Z" fill="#6EE8FC"/>
<path d="M55.7988 232.114L90.2753 212.156C92.7231 210.724 92.4301 208.258 89.5858 206.619L56.4022 187.437C54.9649 186.648 53.3679 186.194 51.7306 186.109C53.8891 185.948 56.0484 186.409 57.9536 187.437L91.2234 206.619C94.0504 208.258 94.3607 210.724 91.9129 212.156L57.3503 232.114C55.8369 232.893 54.1306 233.217 52.4374 233.046C53.6133 232.99 54.7617 232.672 55.7988 232.114Z" fill="#D4088C"/>
</g>
<path d="M337.126 543.423C302.072 543.423 273.655 514.987 273.655 479.909C273.655 444.831 302.072 416.395 337.126 416.395C372.181 416.395 400.598 444.831 400.598 479.909C400.598 514.987 372.181 543.423 337.126 543.423Z" fill="url(#paint3_linear_24_224)"/>
<path d="M427.162 451.102C408.159 451.102 392.755 435.686 392.755 416.671C392.755 397.655 408.159 382.24 427.162 382.24C446.165 382.24 461.57 397.655 461.57 416.671C461.57 435.686 446.165 451.102 427.162 451.102Z" fill="url(#paint4_linear_24_224)"/>
<g style="mix-blend-mode:lighten" opacity="0.8">
<path d="M383.584 43.504C382.042 43.504 380.792 42.2529 380.792 40.7095C380.792 39.1662 382.042 37.915 383.584 37.915C385.127 37.915 386.377 39.1662 386.377 40.7095C386.377 42.2529 385.127 43.504 383.584 43.504Z" fill="#D4088C"/>
</g>
<g style="mix-blend-mode:lighten">
<path d="M51.093 134.946C51.093 135.287 51.1941 135.62 51.3835 135.904C51.5729 136.188 51.8422 136.409 52.1571 136.539C52.4721 136.67 52.8187 136.704 53.1531 136.638C53.4875 136.571 53.7947 136.407 54.0357 136.165C54.2768 135.924 54.441 135.617 54.5075 135.282C54.574 134.948 54.5399 134.601 54.4095 134.286C54.279 133.97 54.0581 133.701 53.7746 133.511C53.4911 133.322 53.1578 133.221 52.8168 133.221C52.3596 133.221 51.9212 133.402 51.5979 133.726C51.2747 134.049 51.093 134.488 51.093 134.946Z" fill="#6EE8FC"/>
</g>
<g style="mix-blend-mode:lighten">
<path d="M408.889 211.311C407.489 211.311 406.355 210.175 406.355 208.775C406.355 207.375 407.489 206.239 408.889 206.239C410.288 206.239 411.423 207.375 411.423 208.775C411.423 210.175 410.288 211.311 408.889 211.311Z" fill="#6EE8FC"/>
</g>
<g style="mix-blend-mode:lighten">
<path d="M345.712 269.978C345.708 270.463 345.849 270.938 346.116 271.343C346.383 271.748 346.764 272.065 347.211 272.253C347.658 272.441 348.151 272.492 348.627 272.399C349.103 272.307 349.54 272.075 349.884 271.733C350.228 271.391 350.463 270.955 350.559 270.479C350.655 270.004 350.608 269.51 350.423 269.062C350.238 268.613 349.924 268.229 349.521 267.959C349.118 267.69 348.645 267.545 348.16 267.545C347.513 267.545 346.893 267.801 346.435 268.257C345.976 268.712 345.716 269.331 345.712 269.978Z" fill="#6EE8FC"/>
</g>
<g style="mix-blend-mode:lighten">
<path d="M433.54 180.209C432.769 180.209 432.144 179.584 432.144 178.812C432.144 178.04 432.769 177.415 433.54 177.415C434.311 177.415 434.937 178.04 434.937 178.812C434.937 179.584 434.311 180.209 433.54 180.209Z" fill="#6EE8FC"/>
</g>
<g style="mix-blend-mode:lighten">
<path d="M176.415 2.55263C176.415 2.8938 176.516 3.22731 176.705 3.51098C176.895 3.79466 177.164 4.01575 177.479 4.14631C177.794 4.27687 178.141 4.31102 178.475 4.24446C178.809 4.17791 179.117 4.01362 179.358 3.77238C179.599 3.53114 179.763 3.22377 179.829 2.88916C179.896 2.55454 179.862 2.2077 179.731 1.8925C179.601 1.5773 179.38 1.3079 179.096 1.11835C178.813 0.928811 178.48 0.827637 178.139 0.827637C177.682 0.827637 177.243 1.00937 176.92 1.33287C176.597 1.65637 176.415 2.09513 176.415 2.55263Z" fill="#D4088C"/>
</g>
<g style="mix-blend-mode:lighten">
<path d="M126.355 360.04C125.032 360.04 123.959 358.966 123.959 357.642C123.959 356.318 125.032 355.244 126.355 355.244C127.678 355.244 128.751 356.318 128.751 357.642C128.751 358.966 127.678 360.04 126.355 360.04Z" fill="#D4088C"/>
</g>
<g style="mix-blend-mode:lighten">
<path d="M150.334 338.494C150.334 338.876 150.484 339.241 150.752 339.513C151.019 339.784 151.383 339.939 151.764 339.943C152.147 339.939 152.513 339.785 152.783 339.514C153.054 339.243 153.208 338.877 153.212 338.494C153.208 338.113 153.053 337.749 152.782 337.481C152.511 337.213 152.145 337.062 151.764 337.063C151.385 337.063 151.021 337.213 150.753 337.482C150.484 337.75 150.334 338.114 150.334 338.494Z" fill="#D4088C"/>
</g>
<g style="mix-blend-mode:lighten">
<path d="M122.218 332.095C122.218 332.287 122.294 332.471 122.43 332.607C122.566 332.743 122.75 332.819 122.942 332.819C123.134 332.819 123.318 332.743 123.454 332.607C123.59 332.471 123.666 332.287 123.666 332.095C123.666 331.902 123.59 331.718 123.454 331.582C123.318 331.446 123.134 331.37 122.942 331.37C122.75 331.37 122.566 331.446 122.43 331.582C122.294 331.718 122.218 331.902 122.218 332.095Z" fill="#D4088C"/>
</g>
<path d="M384.963 124.596L427.904 99.7903C430.955 98.0654 430.575 94.9431 427.042 92.8904L385.825 69.0683C384.016 68.0599 381.997 67.4894 379.929 67.4025C377.86 67.3157 375.8 67.7148 373.913 68.568L331.007 93.4079C327.939 95.1329 328.336 98.2551 331.852 100.308L373.086 124.13C374.893 125.127 376.907 125.689 378.969 125.77C381.031 125.85 383.084 125.448 384.963 124.596Z" fill="url(#paint5_linear_24_224)"/>
<g opacity="0.5">
<path d="M328.904 118.748H350.194L373.913 105.051C375.799 104.194 377.86 103.793 379.929 103.88C381.998 103.967 384.018 104.539 385.825 105.552L408.579 118.748H429.955V127.114C429.962 127.788 429.772 128.45 429.407 129.017C429.042 129.584 428.52 130.032 427.904 130.305L384.963 155.111C383.076 155.964 381.016 156.363 378.948 156.276C376.879 156.189 374.86 155.619 373.052 154.61L331.818 130.788C331.074 130.456 330.422 129.948 329.917 129.308C329.413 128.668 329.071 127.915 328.922 127.114L328.904 118.748Z" fill="url(#paint6_linear_24_224)"/>
<path d="M331.817 129.771L373.051 153.593C374.86 154.601 376.879 155.172 378.948 155.258C381.016 155.345 383.076 154.946 384.963 154.093L427.903 129.288C428.522 129.013 429.047 128.563 429.412 127.992C429.776 127.422 429.965 126.756 429.955 126.079V127.08C429.962 127.754 429.771 128.416 429.407 128.983C429.042 129.55 428.519 129.998 427.903 130.271L384.963 155.076C383.076 155.929 381.016 156.329 378.948 156.242C376.879 156.155 374.86 155.584 373.051 154.576L331.817 130.754C331.074 130.422 330.422 129.914 329.917 129.274C329.413 128.634 329.071 127.881 328.921 127.08V126.079C329.068 126.883 329.409 127.64 329.914 128.283C330.418 128.926 331.072 129.437 331.817 129.771Z" fill="url(#paint7_linear_24_224)"/>
<path d="M428.61 128.046V119.679H407.321L384.446 106.535C382.637 105.527 380.618 104.956 378.55 104.869C376.481 104.782 374.421 105.182 372.534 106.035L348.815 119.731H328.87V118.748H350.194L373.913 105.051C375.799 104.194 377.86 103.793 379.929 103.88C381.998 103.967 384.018 104.539 385.825 105.552L408.579 118.748H429.955V127.114C429.962 127.788 429.772 128.45 429.407 129.017C429.042 129.584 428.52 130.032 427.904 130.305L427.662 130.443C427.986 130.138 428.239 129.765 428.403 129.35C428.567 128.936 428.638 128.49 428.61 128.046Z" fill="#D4088C"/>
<path d="M330.112 119.886V128.184C330.201 129.001 330.558 129.765 331.129 130.357C330.54 130.016 330.035 129.548 329.65 128.987C329.266 128.426 329.011 127.786 328.905 127.114V118.886C329.341 119.176 329.746 119.511 330.112 119.886Z" fill="#6EE8FC"/>
<path d="M384.963 146.745L427.904 121.939C430.955 120.214 430.575 117.092 427.042 115.039L385.825 91.2173C384.016 90.2077 381.996 89.638 379.927 89.554C377.858 89.4701 375.798 89.8744 373.913 90.7343L331.007 115.557C327.939 117.282 328.336 120.404 331.852 122.457L373.086 146.279C374.892 147.28 376.907 147.844 378.969 147.925C381.032 148.006 383.085 147.601 384.963 146.745Z" fill="url(#paint8_linear_24_224)"/>
<path d="M331.008 115.557L373.948 90.7514C375.799 89.8063 377.877 89.3999 379.947 89.5783C378.434 89.636 376.955 90.0371 375.62 90.7514L332.68 115.557C329.629 117.282 330.008 120.404 333.542 122.457L374.758 146.279C376.572 147.297 378.594 147.887 380.671 148.004C378.031 148.154 375.402 147.556 373.086 146.279L331.852 122.457C328.301 120.404 327.905 117.316 331.008 115.557Z" fill="#6EE8FC"/>
<path d="M383.032 146.745L425.973 121.939C429.024 120.214 428.645 117.092 425.128 115.039L383.894 91.2171C382.107 90.2368 380.121 89.6764 378.085 89.5784C380.769 89.3695 383.456 89.9384 385.825 91.2171L427.042 115.039C430.575 117.075 430.955 120.214 427.904 121.939L384.963 146.745C383.082 147.708 380.964 148.109 378.861 147.9C380.322 147.841 381.749 147.445 383.032 146.745Z" fill="#D4088C"/>
</g>
<g opacity="0.2">
<path d="M384.446 313.516H401.684L420.784 302.476C422.305 301.788 423.967 301.467 425.634 301.538C427.302 301.61 428.93 302.073 430.386 302.89L448.796 313.516H465.948V320.261C465.951 320.813 465.788 321.353 465.481 321.811C465.173 322.269 464.736 322.624 464.225 322.831L429.628 342.824C428.108 343.515 426.447 343.84 424.779 343.771C423.112 343.702 421.483 343.242 420.026 342.427L386.79 323.228C386.191 322.959 385.666 322.549 385.261 322.032C384.856 321.515 384.582 320.907 384.463 320.261L384.446 313.516Z" fill="url(#paint9_linear_24_224)"/>
<path d="M386.842 322.435L420.077 341.634C421.535 342.448 423.163 342.908 424.831 342.977C426.499 343.046 428.159 342.722 429.679 342.031L464.276 322.038C464.787 321.831 465.225 321.476 465.532 321.017C465.839 320.559 466.002 320.02 466 319.468V320.261C466.002 320.813 465.839 321.353 465.532 321.811C465.225 322.269 464.787 322.625 464.276 322.832L429.679 342.824C428.159 343.515 426.499 343.84 424.831 343.771C423.163 343.702 421.535 343.242 420.077 342.427L386.842 323.228C386.243 322.959 385.718 322.549 385.313 322.032C384.907 321.515 384.633 320.908 384.515 320.261V319.52C384.641 320.156 384.918 320.754 385.323 321.261C385.728 321.768 386.249 322.171 386.842 322.435Z" fill="url(#paint10_linear_24_224)"/>
<path d="M464.845 321.055V314.345H447.693L429.266 303.684C427.809 302.866 426.181 302.403 424.512 302.335C422.844 302.266 421.182 302.592 419.664 303.287L400.581 314.345H384.446V313.551H401.684L420.784 302.511C422.305 301.823 423.967 301.501 425.634 301.573C427.302 301.645 428.93 302.108 430.386 302.925L448.796 313.551H465.948V320.296C465.951 320.848 465.788 321.387 465.481 321.845C465.173 322.304 464.736 322.659 464.225 322.866L464.035 322.987C464.305 322.746 464.518 322.447 464.659 322.113C464.799 321.778 464.863 321.417 464.845 321.055Z" fill="#D4088C"/>
<path d="M385.464 314.448V321.124C385.552 321.771 385.842 322.375 386.291 322.849C385.827 322.567 385.432 322.186 385.134 321.732C384.836 321.279 384.642 320.764 384.567 320.227V313.603C384.897 313.85 385.198 314.133 385.464 314.448Z" fill="#6EE8FC"/>
<path d="M429.679 336.096L464.276 316.069C466.741 314.638 466.431 312.154 463.587 310.515L430.369 291.316C428.91 290.505 427.282 290.047 425.615 289.979C423.948 289.91 422.288 290.232 420.767 290.919L386.17 310.894C383.722 312.326 384.015 314.81 386.859 316.449L420.095 335.648C421.547 336.464 423.17 336.929 424.834 337.007C426.498 337.085 428.157 336.773 429.679 336.096Z" fill="url(#paint11_linear_24_224)"/>
<path d="M386.171 310.894L420.785 290.902C422.279 290.139 423.959 289.816 425.629 289.97C424.424 290.016 423.245 290.334 422.181 290.902L387.515 310.894C385.05 312.326 385.361 314.81 388.205 316.449L421.423 335.648C422.892 336.436 424.516 336.889 426.181 336.976C424.063 337.112 421.949 336.652 420.078 335.648L386.843 316.449C383.999 314.862 383.706 312.378 386.171 310.894Z" fill="#6EE8FC"/>
<path d="M428.128 336.097L462.725 316.069C465.19 314.638 464.88 312.154 462.035 310.515L428.817 291.316C427.373 290.529 425.771 290.075 424.128 289.988C426.293 289.825 428.458 290.286 430.369 291.316L463.587 310.549C466.431 312.188 466.741 314.672 464.276 316.104L429.679 336.097C428.154 336.86 426.447 337.182 424.749 337.028C425.929 336.966 427.082 336.648 428.128 336.097Z" fill="#D4088C"/>
</g>
<path d="M238.214 366.387C239.496 366.388 240.758 366.068 241.885 365.456L407.596 269.719C408.067 269.508 408.473 269.177 408.776 268.759C409.078 268.341 409.266 267.852 409.32 267.339C409.3 266.934 409.171 266.542 408.947 266.205C408.722 265.868 408.41 265.598 408.045 265.424L309.166 208.292C308.13 207.808 306.993 207.579 305.851 207.624C304.708 207.669 303.593 207.987 302.598 208.551L136.887 304.288C136.416 304.498 136.009 304.828 135.706 305.246C135.403 305.664 135.216 306.155 135.164 306.668C135.183 307.071 135.312 307.461 135.537 307.795C135.762 308.13 136.074 308.396 136.439 308.566L235.318 365.697C236.206 366.178 237.205 366.416 238.214 366.387ZM306.27 208.482C307.119 208.462 307.96 208.652 308.718 209.034L407.596 266.166C407.829 266.269 408.029 266.431 408.178 266.638C408.326 266.844 408.417 267.086 408.441 267.339C408.382 267.695 408.235 268.03 408.012 268.313C407.789 268.597 407.498 268.819 407.166 268.96L241.368 364.697C240.504 365.185 239.537 365.462 238.546 365.507C237.555 365.552 236.567 365.363 235.662 364.956L136.784 307.824C136.554 307.723 136.355 307.562 136.207 307.359C136.059 307.157 135.966 306.918 135.939 306.668C135.939 306.099 136.405 305.513 137.215 305.03L302.926 209.293C303.952 208.738 305.104 208.459 306.27 208.482Z" fill="url(#paint12_linear_24_224)"/>
<path opacity="0.5" d="M238.214 383.793C239.495 383.799 240.757 383.485 241.885 382.878L407.596 287.124C408.066 286.917 408.473 286.59 408.776 286.175C409.079 285.76 409.267 285.272 409.32 284.761C409.302 284.356 409.174 283.963 408.949 283.626C408.724 283.288 408.412 283.019 408.045 282.846L309.166 225.714C308.13 225.231 306.993 225.002 305.851 225.047C304.708 225.092 303.593 225.409 302.598 225.973L136.887 321.71C136.415 321.919 136.007 322.249 135.704 322.667C135.401 323.085 135.214 323.577 135.164 324.091C135.185 324.493 135.314 324.882 135.539 325.216C135.764 325.55 136.075 325.817 136.439 325.988L235.318 383.12C236.207 383.594 237.206 383.826 238.214 383.793ZM306.27 225.904C307.12 225.876 307.963 226.066 308.718 226.456L407.596 283.588C407.829 283.691 408.029 283.854 408.178 284.06C408.326 284.266 408.417 284.508 408.441 284.761C408.382 285.117 408.235 285.452 408.012 285.736C407.789 286.019 407.498 286.242 407.166 286.382L241.368 382.119C240.504 382.607 239.537 382.885 238.546 382.93C237.555 382.975 236.567 382.786 235.662 382.378L136.784 325.246C136.554 325.145 136.355 324.985 136.207 324.782C136.059 324.579 135.966 324.341 135.939 324.091C135.995 323.732 136.142 323.393 136.365 323.106C136.588 322.819 136.881 322.594 137.215 322.452L302.926 226.715C303.952 226.161 305.104 225.881 306.27 225.904Z" fill="url(#paint13_linear_24_224)"/>
<path opacity="0.2" d="M238.214 401.215C239.497 401.224 240.761 400.903 241.885 400.284L407.596 304.547C408.069 304.338 408.477 304.008 408.78 303.59C409.083 303.172 409.269 302.68 409.32 302.166C409.299 301.764 409.169 301.375 408.945 301.041C408.72 300.707 408.409 300.44 408.045 300.269L309.166 243.137C308.131 242.653 306.995 242.423 305.853 242.465C304.711 242.507 303.596 242.82 302.598 243.379L136.887 339.133C136.417 339.34 136.01 339.667 135.708 340.082C135.405 340.497 135.217 340.985 135.164 341.496C135.182 341.901 135.31 342.294 135.535 342.631C135.76 342.969 136.072 343.238 136.439 343.411L235.318 400.594C236.215 401.042 237.211 401.256 238.214 401.215ZM306.27 243.327C307.12 243.299 307.963 243.489 308.718 243.879L407.596 301.01C407.826 301.112 408.025 301.272 408.174 301.475C408.322 301.678 408.414 301.916 408.441 302.166C408.385 302.525 408.239 302.864 408.016 303.151C407.792 303.438 407.5 303.663 407.166 303.805L241.368 399.542C240.504 400.03 239.537 400.307 238.546 400.352C237.555 400.397 236.567 400.208 235.662 399.801L136.784 342.669C136.552 342.566 136.351 342.403 136.203 342.197C136.054 341.991 135.963 341.749 135.939 341.496C135.998 341.14 136.146 340.805 136.369 340.521C136.592 340.238 136.883 340.015 137.215 339.874L302.926 244.138C303.952 243.583 305.104 243.304 306.27 243.327Z" fill="url(#paint14_linear_24_224)"/>
<path d="M303.098 173.482L282.154 49.11L283.878 48.4028L281.344 46.9538C281.043 46.777 280.696 46.6955 280.348 46.7201C280.001 46.7448 279.669 46.8744 279.396 47.0918L111.978 143.812C111.272 144.262 110.698 144.892 110.316 145.638C109.934 146.384 109.758 147.219 109.806 148.055L130.923 273.41C130.945 273.682 131.038 273.942 131.192 274.166C131.346 274.39 131.557 274.57 131.802 274.687L134.285 276.119L134.698 273.807H134.56L300.961 177.674C301.651 177.221 302.211 176.597 302.586 175.862C302.961 175.126 303.137 174.306 303.098 173.482Z" fill="url(#paint15_linear_24_224)"/>
<path d="M112.875 147.227L110.134 146.003C109.822 146.645 109.697 147.362 109.772 148.073L130.889 273.428C130.911 273.699 131.004 273.96 131.158 274.184C131.312 274.408 131.523 274.587 131.768 274.704L134.25 276.136L134.664 273.824H134.526L142.938 268.96L112.875 147.227Z" fill="#3A9BD5"/>
<path d="M303.547 179.243L136.215 275.963C134.923 276.705 133.802 276.274 133.578 274.946L112.461 149.591C112.415 148.752 112.592 147.916 112.974 147.168C113.355 146.419 113.928 145.785 114.633 145.33L281.982 48.696C283.275 47.9543 284.378 48.3855 284.619 49.7137L305.719 175.069C305.753 175.894 305.57 176.713 305.189 177.446C304.808 178.178 304.242 178.798 303.547 179.243Z" fill="url(#paint16_linear_24_224)"/>
<path d="M303.547 179.243L136.215 275.963C134.923 276.705 133.802 276.274 133.578 274.946L112.461 149.591C112.415 148.752 112.592 147.916 112.974 147.168C113.355 146.419 113.928 145.785 114.633 145.33L281.982 48.696C283.275 47.9543 284.378 48.3855 284.619 49.7137L305.719 175.069C305.753 175.894 305.57 176.713 305.189 177.446C304.808 178.178 304.242 178.798 303.547 179.243Z" fill="url(#paint17_linear_24_224)"/>
<path d="M281.706 55.5098L116.34 151.057L136.353 269.115L301.599 173.637L281.706 55.5098Z" fill="url(#paint18_linear_24_224)"/>
<path d="M408.787 238.583L399.651 243.361L308.047 190.438C307.101 190.005 306.067 189.802 305.027 189.844C303.988 189.886 302.973 190.172 302.065 190.68L144.06 281.966C142.543 281.121 135.647 277.809 135.647 277.809L138.992 286.52C139.169 286.965 139.499 287.332 139.922 287.555L236.457 343.29C237.402 343.723 238.437 343.926 239.476 343.884C240.515 343.842 241.53 343.556 242.438 343.048L404.133 249.64C404.739 249.327 405.22 248.816 405.495 248.191L408.787 238.583Z" fill="url(#paint19_linear_24_224)"/>
<path d="M407.372 240.17L241.661 335.924C240.728 336.433 239.691 336.72 238.629 336.762C237.568 336.804 236.511 336.6 235.541 336.166L136.646 279.034C135.077 278.137 135.284 276.55 137.094 275.498L302.805 179.761C303.736 179.249 304.773 178.959 305.834 178.914C306.896 178.869 307.953 179.07 308.924 179.502L407.82 236.547C409.389 237.462 409.182 239.049 407.372 240.17Z" fill="url(#paint20_radial_24_224)"/>
<path d="M407.373 238.445L241.662 334.199C240.729 334.708 239.692 334.995 238.63 335.037C237.569 335.079 236.512 334.875 235.542 334.44L136.646 277.309C136.32 277.131 136.042 276.877 135.836 276.567C135.712 276.771 135.634 276.999 135.608 277.236C135.582 277.474 135.608 277.714 135.686 277.939C135.763 278.165 135.889 278.371 136.055 278.542C136.222 278.714 136.423 278.846 136.646 278.93L235.542 336.079C236.512 336.513 237.569 336.718 238.63 336.676C239.692 336.634 240.729 336.347 241.662 335.838L407.373 240.17C408.752 239.376 409.2 238.272 408.631 237.393C408.307 237.843 407.874 238.205 407.373 238.445Z" fill="#6EE8FC"/>
<g opacity="0.11">
<path d="M302.564 179.571L118.115 286.158C117.07 286.748 115.901 287.082 114.703 287.133C113.504 287.184 112.311 286.95 111.22 286.451L1.17099 222.92C-0.552856 221.902 -0.363159 220.143 1.67096 218.97L186.206 112.314C187.241 111.738 188.395 111.413 189.578 111.365C190.76 111.317 191.938 111.548 193.015 112.038L303.116 175.638C304.805 176.656 304.581 178.415 302.564 179.571Z" fill="url(#paint21_linear_24_224)"/>
<path d="M262.158 176.897L128.613 254.056L133.906 257.109L267.45 179.951L262.158 176.897Z" fill="url(#paint22_radial_24_224)"/>
<path d="M248.091 168.755L121.149 242.102L126.441 245.155L253.384 171.809L248.091 168.755Z" fill="url(#paint23_radial_24_224)"/>
<path d="M111.668 247.57L99.8084 254.419L105.101 257.489L116.96 250.641L111.668 247.57Z" fill="#6EE1F8"/>
<path d="M122.149 257.782L113.892 262.56L119.184 265.613L127.424 260.835L122.149 257.782Z" fill="#6EE1F8"/>
<path d="M239.265 163.667L90.9992 249.33L96.2913 252.383L244.557 166.72L239.265 163.667Z" fill="url(#paint24_radial_24_224)"/>
<path d="M230.456 158.578L82.1731 244.241L87.4653 247.294L235.749 161.631L230.456 158.578Z" fill="url(#paint25_radial_24_224)"/>
<path d="M221.648 153.472L73.3647 239.152L78.6568 242.205L226.923 156.525L221.648 153.472Z" fill="url(#paint26_radial_24_224)"/>
</g>
<path d="M306.805 201.237L187.189 270.34L181.879 267.27L301.496 198.167L306.805 201.237Z" fill="#6EE1F8"/>
<path d="M319.854 208.775L207.651 273.583L202.341 270.513L314.528 205.688L319.854 208.775Z" fill="#6EE1F8"/>
<path d="M328.336 213.674L196.239 289.988L190.93 286.917L323.027 210.604L328.336 213.674Z" fill="#6EE1F8"/>
<path d="M336.834 218.573L204.737 294.904L199.411 291.833L331.524 215.503L336.834 218.573Z" fill="#6EE1F8"/>
<path d="M345.332 223.489L213.235 299.803L207.909 296.732L340.005 220.419L345.332 223.489Z" fill="#6EE1F8"/>
<path d="M179.966 274.514L174.64 277.585L169.33 274.514L174.64 271.444L179.966 274.514Z" fill="#6EE1F8"/>
<path d="M198.721 278.741L187.689 285.123L182.362 282.053L193.412 275.67L198.721 278.741Z" fill="#6EE1F8"/>
<g opacity="0.5">
<path d="M268.036 90.7857L257.107 97.0991L256.779 95.2016L267.708 88.8882L268.036 90.7857Z" fill="white"/>
<path d="M255.348 98.117L249.384 101.567L249.074 99.6695L255.021 96.2195L255.348 98.117Z" fill="white"/>
<path d="M240.127 106.914L235.818 109.398L235.49 107.501L239.8 105.017L240.127 106.914Z" fill="white"/>
<path d="M243.265 105.103L241.8 105.948L241.472 104.051L242.937 103.188L243.265 105.103Z" fill="white"/>
<path d="M247.609 102.585L244.937 104.12L244.609 102.222L247.299 100.687L247.609 102.585Z" fill="white"/>
<path d="M259.383 105.31L255.073 107.811L254.763 105.914L259.072 103.413L259.383 105.31Z" fill="white"/>
<path d="M269.501 99.4624L261.054 104.344L260.727 102.447L269.173 97.5649L269.501 99.4624Z" fill="white"/>
<path d="M257.383 130.236L248.953 135.118L248.626 133.22L257.072 128.339L257.383 130.236Z" fill="white"/>
<path d="M261.727 127.735L259.055 129.287L258.744 127.39L261.416 125.837L261.727 127.735Z" fill="white"/>
<path d="M255.986 121.56L247.539 126.441L247.212 124.544L255.659 119.662L255.986 121.56Z" fill="white"/>
<path d="M260.33 119.041L257.658 120.594L257.331 118.696L260.003 117.144L260.33 119.041Z" fill="white"/>
<path d="M263.623 167.737L279.517 158.543L279.844 160.441L263.933 169.652L263.623 167.737Z" fill="white"/>
<path d="M258.004 170.98L261.951 168.703L262.261 170.618L258.331 172.878L258.004 170.98Z" fill="white"/>
<path d="M230.06 172.826L245.971 163.632L246.281 165.529L230.388 174.724L230.06 172.826Z" fill="white"/>
<path d="M224.458 176.069L228.388 173.792L228.716 175.69L224.768 177.967L224.458 176.069Z" fill="white"/>
<path d="M274.483 156.698L278.792 154.214L279.103 156.111L274.793 158.595L274.483 156.698Z" fill="white"/>
<path d="M248.264 162.321L252.574 159.837L252.901 161.734L248.592 164.218L248.264 162.321Z" fill="white"/>
<path d="M264.365 162.545L272.811 157.664L273.139 159.561L264.692 164.443L264.365 162.545Z" fill="white"/>
<path d="M260.02 165.064L262.692 163.511L263.019 165.409L260.347 166.961L260.02 165.064Z" fill="white"/>
<path d="M249.832 170.946L258.279 166.064L258.589 167.962L250.16 172.843L249.832 170.946Z" fill="white"/>
<path d="M245.489 173.447L248.161 171.912L248.488 173.809L245.816 175.362L245.489 173.447Z" fill="white"/>
<path d="M248.988 166.668L253.297 164.167L253.625 166.064L249.315 168.565L248.988 166.668Z" fill="white"/>
<path d="M238.886 172.516L247.333 167.634L247.643 169.532L239.197 174.413L238.886 172.516Z" fill="white"/>
<path d="M234.542 175.017L237.214 173.482L237.542 175.379L234.852 176.932L234.542 175.017Z" fill="white"/>
<path d="M269.242 154.972L278.051 149.866L278.379 151.764L269.57 156.87L269.242 154.972Z" fill="white"/>
<path d="M261.193 159.63L267.571 155.938L267.898 157.836L261.52 161.51L261.193 159.63Z" fill="white"/>
<path d="M255.211 163.08L259.52 160.579L259.848 162.476L255.538 164.978L255.211 163.08Z" fill="white"/>
<path d="M213.425 182.434L222.234 177.328L222.562 179.226L213.736 184.332L213.425 182.434Z" fill="white"/>
<path d="M205.375 187.075L211.753 183.4L212.063 185.298L205.703 188.972L205.375 187.075Z" fill="white"/>
<path d="M199.393 190.542L203.703 188.041L204.03 189.938L199.721 192.439L199.393 190.542Z" fill="white"/>
<path d="M216.873 125.096L208.064 130.202L207.737 128.304L216.546 123.198L216.873 125.096Z" fill="white"/>
<path d="M224.923 120.456L218.545 124.13L218.218 122.232L224.596 118.541L224.923 120.456Z" fill="white"/>
<path d="M230.905 116.988L226.595 119.49L226.268 117.575L230.577 115.091L230.905 116.988Z" fill="white"/>
<path d="M219.803 118.627L210.977 123.733L210.667 121.835L219.476 116.729L219.803 118.627Z" fill="white"/>
<path d="M227.854 113.97L221.476 117.661L221.148 115.763L227.526 112.072L227.854 113.97Z" fill="white"/>
<path d="M233.835 110.52L229.526 113.004L229.198 111.106L233.508 108.622L233.835 110.52Z" fill="white"/>
<path d="M255.4 126.665L252.418 128.373L252.108 126.476L255.073 124.751L255.4 126.665Z" fill="white"/>
<path d="M261.003 123.422L257.072 125.699L256.745 123.785L260.692 121.525L261.003 123.422Z" fill="white"/>
<path d="M268.45 150.66L277.276 145.554L277.586 147.452L268.777 152.558L268.45 150.66Z" fill="white"/>
<path d="M260.416 155.3L266.777 151.626L267.105 153.523L260.727 157.198L260.416 155.3Z" fill="white"/>
<path d="M254.435 158.768L258.744 156.266L259.054 158.164L254.745 160.665L254.435 158.768Z" fill="white"/>
<path d="M273.57 142.932L276.535 141.224L276.862 143.122L273.88 144.847L273.57 142.932Z" fill="white"/>
<path d="M267.95 146.175L271.897 143.915L272.208 145.813L268.277 148.09L267.95 146.175Z" fill="white"/>
<path d="M259.952 150.815L266.278 147.141L266.605 149.056L260.262 152.713L259.952 150.815Z" fill="white"/>
<path d="M251.349 114.694L248.367 116.419L248.057 114.521L251.039 112.796L251.349 114.694Z" fill="white"/>
<path d="M256.952 111.451L253.022 113.728L252.694 111.83L256.642 109.553L256.952 111.451Z" fill="white"/>
<path d="M264.968 106.828L258.624 110.485L258.314 108.588L264.64 104.913L264.968 106.828Z" fill="white"/>
<path d="M246.816 121.732L240.472 125.406L240.145 123.509L246.488 119.834L246.816 121.732Z" fill="white"/>
<path d="M257.193 116.074L248.643 121.025L248.315 119.127L256.866 114.177L257.193 116.074Z" fill="white"/>
<path d="M261.537 113.573L258.848 115.108L258.538 113.211L261.21 111.675L261.537 113.573Z" fill="white"/>
<path d="M265.692 111.158L263.02 112.71L262.709 110.813L265.381 109.26L265.692 111.158Z" fill="white"/>
<path d="M265.123 135.67L256.676 140.552L256.366 138.654L264.795 133.772L265.123 135.67Z" fill="white"/>
<path d="M269.467 133.169L266.795 134.704L266.467 132.806L269.139 131.271L269.467 133.169Z" fill="white"/>
<path d="M264.537 140.776L261.572 142.501L261.244 140.603L264.227 138.878L264.537 140.776Z" fill="white"/>
<path d="M254.021 137.291L251.056 139.016L250.729 137.119L253.711 135.394L254.021 137.291Z" fill="white"/>
<path d="M249.781 139.758L242.644 143.881L242.317 141.983L249.47 137.843L249.781 139.758Z" fill="white"/>
<path d="M241.368 144.605L237.111 147.072L236.8 145.174L241.041 142.708L241.368 144.605Z" fill="white"/>
<path d="M270.156 137.533L266.208 139.81L265.898 137.912L269.828 135.635L270.156 137.533Z" fill="white"/>
<path d="M270.518 142L267.536 143.708L267.226 141.811L270.191 140.086L270.518 142Z" fill="white"/>
<path d="M276.121 138.758L272.191 141.017L271.863 139.137L275.811 136.843L276.121 138.758Z" fill="white"/>
<path d="M258.348 134.807L255.676 136.343L255.349 134.445L258.038 132.91L258.348 134.807Z" fill="white"/>
<path d="M262.52 132.392L259.848 133.945L259.52 132.047L262.192 130.495L262.52 132.392Z" fill="white"/>
<path d="M241.989 110.589L232.853 115.85L232.542 113.952L241.661 108.691L241.989 110.589Z" fill="white"/>
<path d="M252.194 104.672L243.644 109.623L243.334 107.725L251.884 102.774L252.194 104.672Z" fill="white"/>
<path d="M256.538 102.171L253.866 103.706L253.556 101.808L256.228 100.273L256.538 102.171Z" fill="white"/>
<path d="M260.71 99.7556L258.038 101.308L257.71 99.3934L260.399 97.8582L260.71 99.7556Z" fill="white"/>
<path d="M263.002 98.4447L268.76 95.0982L268.45 93.2007L262.675 96.5472L263.002 98.4447Z" fill="white"/>
</g>
<defs>
<linearGradient id="paint0_linear_24_224" x1="101.256" y1="218.694" x2="2.15333" y2="218.694" gradientUnits="userSpaceOnUse">
<stop stop-color="#A31FA9"/>
<stop offset="0.07" stop-color="#8B17A0"/>
<stop offset="0.15" stop-color="#740F98"/>
<stop offset="0.24" stop-color="#640A92"/>
<stop offset="0.34" stop-color="#5B078F"/>
<stop offset="0.48" stop-color="#58068E"/>
<stop offset="0.63" stop-color="#4D22A3"/>
<stop offset="0.94" stop-color="#3168DA"/>
<stop offset="1" stop-color="#2C75E4"/>
</linearGradient>
<linearGradient id="paint1_linear_24_224" x1="101.256" y1="227.664" x2="2.15342" y2="227.664" gradientUnits="userSpaceOnUse">
<stop stop-color="#D4088C"/>
<stop offset="0.23" stop-color="#D4088C"/>
<stop offset="0.51" stop-color="#6EE1F8"/>
<stop offset="0.78" stop-color="#6EE8FC"/>
<stop offset="1" stop-color="#6EE8FC"/>
</linearGradient>
<linearGradient id="paint2_linear_24_224" x1="89.1898" y1="212.581" x2="12.6059" y2="231.227" gradientUnits="userSpaceOnUse">
<stop stop-color="#8D139B"/>
<stop offset="0.17" stop-color="#851BA1"/>
<stop offset="0.43" stop-color="#6E33B2"/>
<stop offset="0.76" stop-color="#4958CD"/>
<stop offset="1" stop-color="#2979E4"/>
</linearGradient>
<linearGradient id="paint3_linear_24_224" x1="382.004" y1="435.019" x2="292.182" y2="524.781" gradientUnits="userSpaceOnUse">
<stop stop-color="#6EE1F8"/>
<stop offset="1" stop-color="#267FE5"/>
</linearGradient>
<linearGradient id="paint4_linear_24_224" x1="478.617" y1="365.176" x2="409.567" y2="434.18" gradientUnits="userSpaceOnUse">
<stop stop-color="#D4088C"/>
<stop offset="1" stop-color="#161242"/>
</linearGradient>
<linearGradient id="paint5_linear_24_224" x1="426.961" y1="99.7962" x2="331.819" y2="122.955" gradientUnits="userSpaceOnUse">
<stop stop-color="#8D139B"/>
<stop offset="0.17" stop-color="#851BA1"/>
<stop offset="0.43" stop-color="#6E33B2"/>
<stop offset="0.76" stop-color="#4958CD"/>
<stop offset="1" stop-color="#2979E4"/>
</linearGradient>
<linearGradient id="paint6_linear_24_224" x1="439.522" y1="130.081" x2="316.389" y2="130.081" gradientUnits="userSpaceOnUse">
<stop stop-color="#A31FA9"/>
<stop offset="0.07" stop-color="#8B17A0"/>
<stop offset="0.15" stop-color="#740F98"/>
<stop offset="0.24" stop-color="#640A92"/>
<stop offset="0.34" stop-color="#5B078F"/>
<stop offset="0.48" stop-color="#58068E"/>
<stop offset="0.63" stop-color="#4D22A3"/>
<stop offset="0.94" stop-color="#3168DA"/>
<stop offset="1" stop-color="#2C75E4"/>
</linearGradient>
<linearGradient id="paint7_linear_24_224" x1="439.522" y1="141.207" x2="316.389" y2="141.207" gradientUnits="userSpaceOnUse">
<stop stop-color="#D4088C"/>
<stop offset="0.23" stop-color="#D4088C"/>
<stop offset="0.51" stop-color="#6EE1F8"/>
<stop offset="0.78" stop-color="#6EE8FC"/>
<stop offset="1" stop-color="#6EE8FC"/>
</linearGradient>
<linearGradient id="paint8_linear_24_224" x1="426.888" y1="121.988" x2="331.72" y2="145.125" gradientUnits="userSpaceOnUse">
<stop stop-color="#8D139B"/>
<stop offset="0.17" stop-color="#851BA1"/>
<stop offset="0.43" stop-color="#6E33B2"/>
<stop offset="0.76" stop-color="#4958CD"/>
<stop offset="1" stop-color="#2979E4"/>
</linearGradient>
<linearGradient id="paint9_linear_24_224" x1="473.637" y1="322.659" x2="374.413" y2="322.659" gradientUnits="userSpaceOnUse">
<stop stop-color="#A31FA9"/>
<stop offset="0.07" stop-color="#8B17A0"/>
<stop offset="0.15" stop-color="#740F98"/>
<stop offset="0.24" stop-color="#640A92"/>
<stop offset="0.34" stop-color="#5B078F"/>
<stop offset="0.48" stop-color="#58068E"/>
<stop offset="0.63" stop-color="#4D22A3"/>
<stop offset="0.94" stop-color="#3168DA"/>
<stop offset="1" stop-color="#2C75E4"/>
</linearGradient>
<linearGradient id="paint10_linear_24_224" x1="473.637" y1="331.629" x2="374.413" y2="331.629" gradientUnits="userSpaceOnUse">
<stop stop-color="#D4088C"/>
<stop offset="0.23" stop-color="#D4088C"/>
<stop offset="0.51" stop-color="#6EE1F8"/>
<stop offset="0.78" stop-color="#6EE8FC"/>
<stop offset="1" stop-color="#6EE8FC"/>
</linearGradient>
<linearGradient id="paint11_linear_24_224" x1="462.017" y1="317.245" x2="385.306" y2="335.907" gradientUnits="userSpaceOnUse">
<stop stop-color="#8D139B"/>
<stop offset="0.17" stop-color="#851BA1"/>
<stop offset="0.43" stop-color="#6E33B2"/>
<stop offset="0.76" stop-color="#4958CD"/>
<stop offset="1" stop-color="#2979E4"/>
</linearGradient>
<linearGradient id="paint12_linear_24_224" x1="409.303" y1="287.003" x2="135.164" y2="287.003" gradientUnits="userSpaceOnUse">
<stop stop-color="#D4088C"/>
<stop offset="0.23" stop-color="#D4088C"/>
<stop offset="0.51" stop-color="#6EE1F8"/>
<stop offset="0.78" stop-color="#6EE8FC"/>
<stop offset="1" stop-color="#6EE8FC"/>
</linearGradient>
<linearGradient id="paint13_linear_24_224" x1="409.303" y1="304.426" x2="135.164" y2="304.426" gradientUnits="userSpaceOnUse">
<stop stop-color="#D4088C"/>
<stop offset="0.23" stop-color="#D4088C"/>
<stop offset="0.51" stop-color="#6EE1F8"/>
<stop offset="0.78" stop-color="#6EE8FC"/>
<stop offset="1" stop-color="#6EE8FC"/>
</linearGradient>
<linearGradient id="paint14_linear_24_224" x1="409.303" y1="321.831" x2="135.164" y2="321.831" gradientUnits="userSpaceOnUse">
<stop stop-color="#D4088C"/>
<stop offset="0.23" stop-color="#D4088C"/>
<stop offset="0.51" stop-color="#6EE1F8"/>
<stop offset="0.78" stop-color="#6EE8FC"/>
<stop offset="1" stop-color="#6EE8FC"/>
</linearGradient>
<linearGradient id="paint15_linear_24_224" x1="109.737" y1="161.441" x2="303.133" y2="161.441" gradientUnits="userSpaceOnUse">
<stop stop-color="#7BDAFF"/>
<stop offset="1" stop-color="#59BDEF"/>
</linearGradient>
<linearGradient id="paint16_linear_24_224" x1="112.358" y1="162.287" x2="305.753" y2="162.287" gradientUnits="userSpaceOnUse">
<stop stop-color="#2573BA"/>
<stop offset="1" stop-color="#0063AD"/>
</linearGradient>
<linearGradient id="paint17_linear_24_224" x1="112.358" y1="162.287" x2="305.753" y2="162.287" gradientUnits="userSpaceOnUse">
<stop stop-color="#2C75E4"/>
<stop offset="0.04" stop-color="#3461D5"/>
<stop offset="0.13" stop-color="#4140BB"/>
<stop offset="0.22" stop-color="#4B27A7"/>
<stop offset="0.32" stop-color="#521499"/>
<stop offset="0.41" stop-color="#570A91"/>
<stop offset="0.52" stop-color="#58068E"/>
<stop offset="0.66" stop-color="#5B078F"/>
<stop offset="0.76" stop-color="#640A92"/>
<stop offset="0.85" stop-color="#740F98"/>
<stop offset="0.93" stop-color="#8B17A0"/>
<stop offset="1" stop-color="#A31FA9"/>
</linearGradient>
<linearGradient id="paint18_linear_24_224" x1="116.34" y1="162.304" x2="301.599" y2="162.304" gradientUnits="userSpaceOnUse">
<stop stop-color="#7BDAFF"/>
<stop offset="1" stop-color="#59BDEF"/>
</linearGradient>
<linearGradient id="paint19_linear_24_224" x1="135.647" y1="266.873" x2="408.787" y2="266.873" gradientUnits="userSpaceOnUse">
<stop stop-color="#2C75E4"/>
<stop offset="0.04" stop-color="#3461D5"/>
<stop offset="0.13" stop-color="#4140BB"/>
<stop offset="0.22" stop-color="#4B27A7"/>
<stop offset="0.32" stop-color="#521499"/>
<stop offset="0.41" stop-color="#570A91"/>
<stop offset="0.52" stop-color="#58068E"/>
<stop offset="0.66" stop-color="#5B078F"/>
<stop offset="0.76" stop-color="#640A92"/>
<stop offset="0.85" stop-color="#740F98"/>
<stop offset="0.93" stop-color="#8B17A0"/>
<stop offset="1" stop-color="#A31FA9"/>
</linearGradient>
<radialGradient id="paint20_radial_24_224" cx="0" cy="0" r="1" gradientUnits="userSpaceOnUse" gradientTransform="translate(448.64 385.828) scale(319.666 319.882)">
<stop stop-color="#6EE1F8"/>
<stop offset="0.22" stop-color="#59C4F2"/>
<stop offset="0.56" stop-color="#3D9FEB"/>
<stop offset="0.83" stop-color="#2C87E7"/>
<stop offset="1" stop-color="#267FE5"/>
</radialGradient>
<linearGradient id="paint21_linear_24_224" x1="102.222" y1="199.236" x2="406.476" y2="199.236" gradientUnits="userSpaceOnUse">
<stop stop-color="#C0BFF6"/>
<stop offset="0.29" stop-color="#C5C4F7"/>
<stop offset="0.64" stop-color="#D3D2F9"/>
<stop offset="1" stop-color="#E9E9FD"/>
</linearGradient>
<radialGradient id="paint22_radial_24_224" cx="0" cy="0" r="1" gradientUnits="userSpaceOnUse" gradientTransform="translate(198.032 217.003) rotate(180) scale(56.6793 56.7177)">
<stop stop-color="#22215B"/>
<stop offset="0.33" stop-color="#1E1E55"/>
<stop offset="0.75" stop-color="#141645"/>
<stop offset="1" stop-color="#0C0F38"/>
</radialGradient>
<radialGradient id="paint23_radial_24_224" cx="0" cy="0" r="1" gradientUnits="userSpaceOnUse" gradientTransform="translate(187.258 206.964) rotate(180) scale(53.9901 54.0267)">
<stop stop-color="#22215B"/>
<stop offset="0.33" stop-color="#1E1E55"/>
<stop offset="0.75" stop-color="#141645"/>
<stop offset="1" stop-color="#0C0F38"/>
</radialGradient>
<radialGradient id="paint24_radial_24_224" cx="0" cy="0" r="1" gradientUnits="userSpaceOnUse" gradientTransform="translate(167.778 208.033) rotate(180) scale(62.6954 62.7379)">
<stop stop-color="#22215B"/>
<stop offset="0.33" stop-color="#1E1E55"/>
<stop offset="0.75" stop-color="#141645"/>
<stop offset="1" stop-color="#0C0F38"/>
</radialGradient>
<radialGradient id="paint25_radial_24_224" cx="0" cy="0" r="1" gradientUnits="userSpaceOnUse" gradientTransform="translate(158.969 202.928) rotate(180) scale(62.6955 62.7379)">
<stop stop-color="#22215B"/>
<stop offset="0.33" stop-color="#1E1E55"/>
<stop offset="0.75" stop-color="#141645"/>
<stop offset="1" stop-color="#0C0F38"/>
</radialGradient>
<radialGradient id="paint26_radial_24_224" cx="0" cy="0" r="1" gradientUnits="userSpaceOnUse" gradientTransform="translate(150.144 197.839) rotate(180) scale(62.6954 62.7379)">
<stop stop-color="#22215B"/>
<stop offset="0.33" stop-color="#1E1E55"/>
<stop offset="0.75" stop-color="#141645"/>
<stop offset="1" stop-color="#0C0F38"/>
</radialGradient>
</defs>
</svg>
