<svg width="531" height="380" viewBox="0 0 531 380" fill="none" xmlns="http://www.w3.org/2000/svg">
<g clip-path="url(#clip0_24_363)">
<path d="M430.581 281.023L431.339 279.759L414.537 269.655C414.378 269.563 414.247 269.431 414.157 269.271C414.067 269.111 414.022 268.93 414.027 268.747C414.027 268.562 414.075 268.379 414.167 268.218C414.259 268.056 414.391 267.922 414.551 267.826L431.091 258.039L430.333 256.774L413.793 266.562C413.413 266.787 413.098 267.107 412.88 267.49C412.661 267.873 412.546 268.307 412.546 268.747C412.546 269.188 412.661 269.621 412.88 270.005C413.098 270.388 413.413 270.708 413.793 270.933L430.581 281.023Z" fill="url(#paint0_linear_24_363)"/>
<path d="M396.439 316.559C397.982 316.561 399.498 316.158 400.836 315.39L430.732 298.179L429.988 296.887L400.092 314.112C398.98 314.747 397.721 315.082 396.439 315.082C395.158 315.082 393.898 314.747 392.786 314.112L363.235 297.093L362.49 298.372L392.042 315.39C393.379 316.16 394.896 316.563 396.439 316.559Z" fill="url(#paint1_linear_24_363)"/>
<path d="M446.376 299.169C450.444 299.261 454.467 298.315 458.065 296.42C461.331 294.509 463.151 292.021 463.151 289.272C463.151 286.522 461.345 283.993 458.079 282.109C451.642 278.398 441.153 278.398 434.647 282.109C431.38 283.993 429.588 286.536 429.588 289.272C429.588 292.007 431.38 294.55 434.647 296.434C438.259 298.329 442.297 299.271 446.376 299.169ZM446.376 280.748C450.189 280.671 453.957 281.57 457.321 283.36C460.077 284.955 461.648 287.045 461.648 289.23C461.648 291.416 460.105 293.506 457.321 295.1C451.297 298.578 441.47 298.578 435.432 295.1C432.676 293.506 431.118 291.416 431.118 289.23C431.118 287.045 432.648 284.955 435.432 283.36C438.797 281.572 442.565 280.672 446.376 280.748ZM446.376 294.963C448.639 295.003 450.874 294.463 452.868 293.396C453.722 293.081 454.459 292.513 454.979 291.769C455.499 291.024 455.778 290.138 455.778 289.23C455.778 288.323 455.499 287.437 454.979 286.692C454.459 285.947 453.722 285.379 452.868 285.065C450.856 284.048 448.632 283.518 446.376 283.518C444.121 283.518 441.897 284.048 439.884 285.065C439.031 285.379 438.294 285.947 437.774 286.692C437.254 287.437 436.975 288.323 436.975 289.23C436.975 290.138 437.254 291.024 437.774 291.769C438.294 292.513 439.031 293.081 439.884 293.396C441.879 294.461 444.114 295.001 446.376 294.963ZM446.376 284.983C448.378 284.948 450.356 285.421 452.124 286.357C452.749 286.541 453.296 286.922 453.686 287.442C454.076 287.963 454.286 288.595 454.286 289.244C454.286 289.893 454.076 290.525 453.686 291.046C453.296 291.566 452.749 291.947 452.124 292.131C450.341 293.025 448.373 293.491 446.376 293.491C444.38 293.491 442.412 293.025 440.629 292.131C440.004 291.947 439.456 291.566 439.067 291.046C438.677 290.525 438.467 289.893 438.467 289.244C438.467 288.595 438.677 287.963 439.067 287.442C439.456 286.922 440.004 286.541 440.629 286.357C442.397 285.421 444.375 284.948 446.376 284.983Z" fill="url(#paint2_linear_24_363)"/>
<path d="M446.377 302.51C451.878 302.62 457.316 301.323 462.173 298.743C466.528 296.241 468.927 292.859 468.927 289.23C468.927 285.601 466.528 282.219 462.173 279.704C453.461 274.7 439.292 274.7 430.595 279.704C426.225 282.205 423.827 285.587 423.827 289.216C423.827 292.846 426.225 296.227 430.595 298.743C435.448 301.319 440.88 302.615 446.377 302.51ZM446.377 277.408C451.621 277.314 456.802 278.558 461.428 281.023C465.301 283.25 467.438 286.178 467.438 289.271C467.438 292.364 465.301 295.279 461.428 297.519C453.158 302.303 439.637 302.303 431.339 297.519C427.452 295.292 425.316 292.364 425.316 289.271C425.316 286.178 427.452 283.264 431.339 281.023C435.96 278.557 441.137 277.312 446.377 277.408Z" fill="url(#paint3_linear_24_363)"/>
<path d="M218.481 379.519C220.959 379.519 223.392 378.869 225.539 377.636L383.056 286.907C383.493 286.655 383.857 286.292 384.11 285.855C384.363 285.418 384.496 284.923 384.496 284.419C384.496 283.914 384.363 283.419 384.11 282.982C383.857 282.545 383.493 282.183 383.056 281.931L284.807 225.362L284.435 225.569L120.219 320.16C119.785 320.415 119.425 320.779 119.175 321.215C118.924 321.652 118.793 322.146 118.793 322.649C118.793 323.151 118.924 323.645 119.175 324.082C119.425 324.518 119.785 324.882 120.219 325.137L211.411 377.636C213.561 378.871 216 379.52 218.481 379.519ZM284.807 227.094L382.311 283.25C382.524 283.37 382.701 283.543 382.825 283.753C382.948 283.963 383.014 284.203 383.014 284.446C383.014 284.69 382.948 284.929 382.825 285.139C382.701 285.349 382.524 285.523 382.311 285.642L224.794 376.371C222.873 377.479 220.694 378.062 218.475 378.062C216.256 378.062 214.076 377.479 212.155 376.371L120.964 323.872C120.748 323.753 120.569 323.579 120.444 323.367C120.319 323.156 120.253 322.915 120.253 322.669C120.253 322.424 120.319 322.183 120.444 321.971C120.569 321.76 120.748 321.585 120.964 321.466L284.807 227.094Z" fill="url(#paint4_linear_24_363)"/>
<path d="M285.014 186.995L263.071 57.1424L264.835 56.4139L262.189 54.888C261.869 54.7184 261.508 54.6426 261.147 54.6693C260.786 54.6961 260.44 54.8243 260.149 55.0392L84.7546 156.023C84.0154 156.496 83.4155 157.157 83.0159 157.937C82.6163 158.717 82.4315 159.589 82.4804 160.464L104.534 291.347C104.55 291.638 104.644 291.919 104.807 292.161C104.969 292.403 105.194 292.596 105.457 292.722L108.049 294.22L108.49 291.801H108.352L282.671 191.449C283.422 190.98 284.035 190.32 284.446 189.538C284.858 188.755 285.054 187.878 285.014 186.995Z" fill="url(#paint5_linear_24_363)"/>
<path d="M85.7336 159.584L82.8529 158.319C82.53 158.99 82.4011 159.738 82.4807 160.478L104.534 291.361C104.55 291.652 104.644 291.933 104.807 292.175C104.969 292.417 105.194 292.61 105.458 292.736L108.049 294.234L108.49 291.815H108.352L117.174 286.742L85.7336 159.584Z" fill="url(#paint6_linear_24_363)"/>
<path d="M285.483 193.044L110.102 294.028C108.724 294.811 107.594 294.358 107.346 292.969L85.2923 162.086C85.2376 161.21 85.4199 160.336 85.82 159.555C86.2201 158.774 86.8233 158.115 87.5666 157.646L262.892 56.6202C264.27 55.8366 265.414 56.2903 265.648 57.6924L287.702 188.576C287.763 189.45 287.59 190.325 287.2 191.11C286.81 191.895 286.217 192.563 285.483 193.044Z" fill="#24126A"/>
<g opacity="0.51">
<path d="M260.603 64.978L91.5498 162.319L112.514 285.587L281.458 188.301L260.603 64.978Z" fill="#453C9E"/>
</g>
<path d="M395.736 254.987L386.171 259.963L290.197 204.701C289.204 204.253 288.119 204.043 287.03 204.088C285.941 204.133 284.877 204.433 283.925 204.962L118.4 300.269C116.815 299.375 109.592 295.911 109.592 295.911L113.052 305.039C113.24 305.505 113.587 305.889 114.031 306.125L215.118 364.329C216.11 364.774 217.192 364.982 218.278 364.937C219.365 364.891 220.425 364.594 221.376 364.068L390.76 266.465C391.378 266.132 391.864 265.598 392.139 264.953L395.736 254.987Z" fill="url(#paint7_linear_24_363)"/>
<path d="M394.234 256.554L220.632 356.507C219.658 357.052 218.569 357.36 217.453 357.408C216.337 357.456 215.226 357.241 214.209 356.782L110.613 297.135C108.972 296.186 109.234 294.523 111.067 293.437L284.697 193.47C285.673 192.927 286.762 192.621 287.878 192.576C288.993 192.53 290.104 192.747 291.12 193.209L394.716 252.856C396.357 253.805 396.164 255.454 394.234 256.554Z" fill="url(#paint8_linear_24_363)"/>
<path d="M168.296 334.897V332.986C168.296 332.807 168.406 332.725 168.544 332.807L175.257 336.67C175.33 336.724 175.389 336.795 175.43 336.876C175.471 336.957 175.491 337.047 175.491 337.138V339.035C175.491 339.214 175.394 339.296 175.257 339.227L168.544 335.351C168.469 335.301 168.407 335.234 168.363 335.155C168.32 335.076 168.297 334.987 168.296 334.897Z" fill="#2842A2"/>
<path d="M178.33 340.67V338.76C178.33 338.581 178.44 338.498 178.578 338.581L185.291 342.444C185.367 342.496 185.43 342.565 185.473 342.647C185.516 342.728 185.539 342.819 185.539 342.911V344.808C185.539 344.987 185.428 345.069 185.291 344.987L178.578 341.124C178.505 341.072 178.445 341.004 178.402 340.926C178.359 340.847 178.334 340.76 178.33 340.67Z" fill="#2842A2"/>
<path d="M137.656 291.54L281.913 208.467C282.385 208.197 282.919 208.055 283.463 208.055C284.008 208.055 284.542 208.197 285.014 208.467L336.344 238.119C336.513 238.215 336.653 238.354 336.751 238.522C336.849 238.69 336.9 238.881 336.9 239.075C336.9 239.269 336.849 239.459 336.751 239.627C336.653 239.795 336.513 239.934 336.344 240.03L192.155 323.061C191.683 323.331 191.149 323.473 190.605 323.473C190.061 323.473 189.526 323.331 189.054 323.061L137.656 293.395C137.499 293.296 137.37 293.159 137.281 292.997C137.192 292.835 137.145 292.652 137.145 292.467C137.145 292.282 137.192 292.1 137.281 291.938C137.37 291.776 137.499 291.639 137.656 291.54Z" fill="#ADB1F2"/>
<path d="M137.655 293.395L138.165 293.698L281.913 210.983C282.384 210.71 282.919 210.567 283.463 210.567C284.008 210.567 284.543 210.71 285.014 210.983L335.875 240.333L336.385 240.03C336.554 239.934 336.694 239.795 336.792 239.627C336.89 239.459 336.941 239.269 336.941 239.075C336.941 238.881 336.89 238.69 336.792 238.522C336.694 238.354 336.554 238.215 336.385 238.119L285.014 208.467C284.542 208.197 284.008 208.055 283.463 208.055C282.919 208.055 282.385 208.197 281.913 208.467L137.655 291.54C137.499 291.639 137.37 291.776 137.281 291.938C137.191 292.1 137.145 292.282 137.145 292.467C137.145 292.652 137.191 292.835 137.281 292.997C137.37 293.159 137.499 293.296 137.655 293.395Z" fill="#9198DB"/>
<path d="M288.901 215.974L163.596 288.131L158.014 284.928L283.332 212.771L288.901 215.974Z" fill="#24126A"/>
<path d="M302.56 223.85L185.015 291.526L179.447 288.323L296.992 220.633L302.56 223.85Z" fill="#24126A"/>
<path d="M311.464 228.964L173.065 308.655L167.497 305.452L305.882 225.761L311.464 228.964Z" fill="#24126A"/>
<path d="M320.354 234.092L181.969 313.782L176.4 310.565L314.786 230.875L320.354 234.092Z" fill="#24126A"/>
<path d="M329.259 239.219L190.859 318.896L185.291 315.693L323.677 236.002L329.259 239.219Z" fill="#24126A"/>
<path d="M156.015 292.502L150.447 295.705L144.878 292.502L150.447 289.285L156.015 292.502Z" fill="#24126A"/>
<path d="M175.67 296.915L164.105 303.568L158.537 300.365L170.101 293.698L175.67 296.915Z" fill="#24126A"/>
<path d="M287.468 311.638L326.365 289.272C326.697 289.159 326.986 288.945 327.19 288.66C327.395 288.375 327.505 288.034 327.505 287.684C327.505 287.334 327.395 286.992 327.19 286.707C326.986 286.423 326.697 286.209 326.365 286.096L299.763 270.782C298.907 270.353 297.963 270.129 297.006 270.129C296.049 270.129 295.105 270.353 294.249 270.782L255.352 293.189C255.018 293.298 254.727 293.51 254.521 293.794C254.314 294.078 254.203 294.42 254.203 294.77C254.203 295.121 254.314 295.463 254.521 295.747C254.727 296.03 255.018 296.242 255.352 296.351L281.941 311.665C282.799 312.096 283.747 312.319 284.708 312.314C285.668 312.309 286.614 312.078 287.468 311.638Z" fill="url(#paint9_linear_24_363)"/>
<path d="M255.366 294.454L294.263 272.06C295.116 271.625 296.061 271.398 297.019 271.398C297.978 271.398 298.923 271.625 299.776 272.06L326.378 287.374C326.781 287.585 327.112 287.91 327.329 288.309C327.743 287.539 327.426 286.673 326.378 286.068L299.776 270.754C298.921 270.325 297.977 270.102 297.019 270.102C296.062 270.102 295.118 270.325 294.263 270.754L255.366 293.162C254.305 293.766 253.987 294.619 254.401 295.389C254.628 294.992 254.962 294.668 255.366 294.454Z" fill="#9198DB"/>
<g opacity="0.11">
<path d="M284.876 193.263L111.274 293.23C110.298 293.77 109.208 294.074 108.093 294.119C106.978 294.165 105.868 293.95 104.851 293.492L1.25467 233.844C-0.385559 232.895 -0.123718 231.232 1.72327 230.146L175.325 130.179C176.298 129.636 177.385 129.329 178.499 129.284C179.612 129.238 180.721 129.456 181.735 129.918L285.345 189.566C286.985 190.514 286.723 192.164 284.876 193.263Z" fill="url(#paint10_linear_24_363)"/>
<path d="M110.751 211.189L149.661 188.782C149.995 188.673 150.286 188.461 150.493 188.177C150.699 187.893 150.81 187.552 150.81 187.201C150.81 186.85 150.699 186.509 150.493 186.225C150.286 185.941 149.995 185.729 149.661 185.62L123.059 170.292C122.203 169.865 121.26 169.643 120.303 169.643C119.346 169.643 118.402 169.865 117.546 170.292L78.649 192.7C78.3148 192.809 78.0238 193.02 77.8174 193.304C77.611 193.588 77.4999 193.93 77.4999 194.281C77.4999 194.631 77.611 194.973 77.8174 195.257C78.0238 195.541 78.3148 195.752 78.649 195.862L105.251 211.189C106.105 211.616 107.046 211.838 108.001 211.838C108.956 211.838 109.897 211.616 110.751 211.189Z" fill="url(#paint11_linear_24_363)"/>
<path d="M78.5931 193.992L117.545 171.598C118.399 171.165 119.344 170.939 120.302 170.939C121.26 170.939 122.204 171.165 123.058 171.598L149.66 186.912C150.06 187.127 150.39 187.452 150.611 187.847C151.011 187.077 150.708 186.225 149.66 185.62L123.058 170.292C122.203 169.865 121.259 169.643 120.302 169.643C119.345 169.643 118.401 169.865 117.545 170.292L78.6482 192.7C77.6007 193.305 77.2699 194.171 77.6972 194.927C77.9035 194.539 78.2136 194.215 78.5931 193.992Z" fill="#9198DB"/>
<path d="M61.5575 246.188L205.815 163.116C206.287 162.846 206.821 162.704 207.365 162.704C207.909 162.704 208.444 162.846 208.916 163.116L260.301 192.768C260.47 192.864 260.61 193.003 260.708 193.171C260.806 193.339 260.857 193.53 260.857 193.724C260.857 193.918 260.806 194.108 260.708 194.276C260.61 194.444 260.47 194.583 260.301 194.679L116.112 277.71C115.64 277.98 115.106 278.122 114.562 278.122C114.017 278.122 113.483 277.98 113.011 277.71L61.5713 248.099C61.4015 248.004 61.26 247.866 61.161 247.699C61.062 247.532 61.0091 247.342 61.0077 247.148C61.0063 246.954 61.0565 246.763 61.153 246.594C61.2495 246.426 61.3891 246.286 61.5575 246.188Z" fill="#ADB1F2"/>
<path d="M61.5576 248.099L62.0676 248.402L205.815 165.632C206.284 165.355 206.82 165.209 207.365 165.209C207.911 165.209 208.447 165.355 208.916 165.632L259.777 194.968L260.287 194.679C260.456 194.583 260.597 194.444 260.694 194.276C260.792 194.108 260.844 193.918 260.844 193.724C260.844 193.53 260.792 193.339 260.694 193.171C260.597 193.003 260.456 192.864 260.287 192.768L208.902 163.116C208.43 162.846 207.896 162.704 207.352 162.704C206.808 162.704 206.273 162.846 205.801 163.116L61.5438 246.188C61.3754 246.286 61.2359 246.426 61.1393 246.594C61.0428 246.763 60.9927 246.954 60.9941 247.148C60.9955 247.342 61.0483 247.532 61.1473 247.699C61.2463 247.866 61.3878 248.004 61.5576 248.099Z" fill="#9198DB"/>
<path d="M246.862 190.734L121.171 263.111L126.16 265.97L251.838 193.607L246.862 190.734Z" fill="#24126A"/>
<path d="M233.615 183.118L114.155 251.894L119.13 254.767L238.591 185.978L233.615 183.118Z" fill="#24126A"/>
<path d="M105.237 257.035L94.0861 263.455L99.0619 266.328L110.213 259.908L105.237 257.035Z" fill="#24126A"/>
<path d="M115.092 266.616L107.318 271.084L112.308 273.957L120.068 269.476L115.092 266.616Z" fill="#24126A"/>
<path d="M225.318 178.334L85.7883 258.685L90.7642 261.544L230.294 181.208L225.318 178.334Z" fill="#24126A"/>
<path d="M217.02 173.564L77.4905 253.901L82.4663 256.774L221.996 176.424L217.02 173.564Z" fill="#24126A"/>
<path d="M208.723 168.78L69.1936 249.13L74.1694 251.99L213.699 171.653L208.723 168.78Z" fill="#24126A"/>
</g>
<path d="M442.407 264.266C443.108 264.278 443.8 264.113 444.419 263.785L529.105 215.039C529.408 214.885 529.665 214.654 529.849 214.369C530.033 214.084 530.138 213.755 530.152 213.416C530.117 213.004 529.97 212.608 529.727 212.271C529.485 211.935 529.155 211.67 528.774 211.506L511.172 201.374C510.49 200.995 509.727 200.782 508.946 200.753C508.165 200.725 507.388 200.881 506.679 201.209L421.994 249.983C421.689 250.134 421.43 250.365 421.246 250.65C421.061 250.936 420.958 251.266 420.946 251.605C420.979 252.019 421.124 252.416 421.367 252.753C421.61 253.09 421.941 253.354 422.324 253.516L439.926 263.647C440.686 264.062 441.54 264.275 442.407 264.266ZM443.592 262.369C443.137 262.555 442.645 262.636 442.154 262.608C441.662 262.579 441.184 262.441 440.753 262.204L423.179 252.073C422.779 251.839 422.697 251.633 422.697 251.591C422.697 251.55 422.697 251.495 422.917 251.399L507.575 202.666C508.03 202.481 508.521 202.399 509.011 202.425C509.502 202.451 509.981 202.585 510.414 202.818L528.016 212.963C528.415 213.183 528.498 213.389 528.498 213.444C528.498 213.499 528.498 213.54 528.278 213.636L443.592 262.369Z" fill="url(#paint12_linear_24_363)"/>
<path d="M494.673 173.138C492.337 174.535 490.242 176.299 488.471 178.362C485.866 170.032 477.94 167.447 468.554 172.863C460.78 177.331 454.012 186.129 450.429 195.449C449.046 195.534 447.705 195.959 446.528 196.687C443.855 198.422 441.63 200.761 440.035 203.516C438.44 206.27 437.52 209.361 437.348 212.537C437.348 212.66 437.348 212.77 437.348 212.894C435.676 213.052 434.062 213.593 432.634 214.475C426.142 218.2 420.891 227.287 420.891 234.752C420.891 242.216 426.142 245.24 432.634 241.501L494.659 205.76C502.488 201.251 508.829 190.294 508.829 181.29C508.829 172.286 502.502 168.643 494.673 173.138Z" fill="url(#paint13_linear_24_363)"/>
<path d="M494.673 173.138C493.342 173.926 492.095 174.847 490.952 175.887L484.06 171.901C480.242 169.22 474.729 169.344 468.595 172.877C460.821 177.345 454.053 186.143 450.47 195.463C449.087 195.547 447.747 195.973 446.569 196.7C443.896 198.435 441.672 200.775 440.077 203.529C438.481 206.283 437.561 209.374 437.389 212.55C437.389 212.674 437.389 212.784 437.389 212.908C435.717 213.065 434.104 213.606 432.675 214.489C426.183 218.214 420.932 227.301 420.932 234.765C420.932 238.463 422.228 241.061 424.323 242.298L441.345 252.155L445.053 234.284L494.673 205.718C502.502 201.209 508.843 190.253 508.843 181.249C508.843 172.245 502.502 168.643 494.673 173.138Z" fill="url(#paint14_radial_24_363)"/>
<path d="M521.978 182.17L504.763 172.19C502.185 170.664 498.615 170.815 494.66 173.124C493.328 173.912 492.082 174.834 490.938 175.874L484.046 171.887C480.228 169.207 474.715 169.33 468.581 172.863C460.807 177.331 454.04 186.129 450.456 195.449C449.073 195.534 447.733 195.959 446.555 196.687C443.883 198.422 441.658 200.761 440.063 203.516C438.468 206.27 437.547 209.361 437.376 212.537C437.376 212.66 437.376 212.77 437.376 212.894C435.703 213.052 434.09 213.593 432.662 214.475C426.17 218.2 420.918 227.287 420.918 234.751C420.918 238.449 422.214 241.048 424.309 242.285L441.345 252.155L445.053 234.284L494.673 205.718C501.014 202.062 506.389 194.171 508.195 186.473L521.978 182.17Z" fill="url(#paint15_linear_24_363)"/>
<path d="M511.723 183.008C509.384 184.401 507.289 186.166 505.521 188.232C502.916 179.902 494.976 177.317 485.59 182.734C477.83 187.201 471.062 195.999 467.478 205.32C466.094 205.407 464.751 205.826 463.564 206.543C460.896 208.285 458.676 210.629 457.083 213.384C455.491 216.14 454.571 219.231 454.398 222.407C454.398 222.531 454.398 222.641 454.398 222.764C452.722 222.924 451.104 223.465 449.67 224.345C443.192 228.071 437.941 237.143 437.941 244.608C437.941 252.073 443.192 255.097 449.67 251.371L511.696 215.63C519.511 211.121 525.865 200.165 525.865 191.147C525.865 182.129 519.538 178.499 511.723 183.008Z" fill="url(#paint16_linear_24_363)"/>
<path opacity="0.5" d="M238.73 15.2559L257.268 4.5746V0.519287L238.73 11.2006V15.2559Z" fill="#42E8E0"/>
<path opacity="0.5" d="M229.219 20.7409L235.89 16.8918V12.8228L229.219 16.6719V20.7409Z" fill="#42E8E0"/>
<path opacity="0.5" d="M221.845 24.9748L226.393 22.3629V18.3076L221.845 20.9195V24.9748Z" fill="#42E8E0"/>
<path opacity="0.5" d="M247.165 19.6823L257.268 13.8537V9.79834L247.165 15.6132V19.6823Z" fill="#42E8E0"/>
<path opacity="0.5" d="M231.948 28.4389L244.34 21.3043V17.249L231.948 24.3699V28.4389Z" fill="#42E8E0"/>
<path opacity="0.5" d="M224.587 32.6868L229.122 30.0749V26.0059L224.587 28.6178V32.6868Z" fill="#42E8E0"/>
<path opacity="0.5" d="M217.571 36.7146L222.106 34.1027V30.0474L217.571 32.6593V36.7146Z" fill="#42E8E0"/>
<path d="M249.963 27.3532L257.268 23.133V19.0776L249.963 23.2842V27.3532Z" fill="#42E8E0"/>
<path d="M244.629 30.4187L247.124 28.9752V24.9199L244.629 26.3496V30.4187Z" fill="#42E8E0"/>
<path opacity="0.5" d="M237.255 34.6663L241.803 32.0407V27.9854L237.255 30.5972V34.6663Z" fill="#42E8E0"/>
<path opacity="0.5" d="M230.294 47.9457L257.268 32.4118V28.3564L230.294 43.8904V47.9457Z" fill="#42E8E0"/>
<path opacity="0.5" d="M220.784 53.4308L227.455 49.5817V45.5264L220.784 49.3617V53.4308Z" fill="#42E8E0"/>
<path opacity="0.5" d="M249.963 45.8976L257.268 41.6911V37.6357L249.963 41.8423V45.8976Z" fill="#42E8E0"/>
<path opacity="0.5" d="M232.803 55.7814L247.124 47.5333V43.478L232.803 51.7124V55.7814Z" fill="#42E8E0"/>
<path opacity="0.5" d="M225.442 60.0293L229.976 57.4174V53.3484L225.442 55.9603V60.0293Z" fill="#42E8E0"/>
<path opacity="0.5" d="M242.313 59.5894L257.268 50.9702V46.9011L242.313 55.5204V59.5894Z" fill="#42E8E0"/>
<path d="M228.667 67.4389L239.487 61.2116V57.1562L228.667 63.3836V67.4389Z" fill="#42E8E0"/>
<path opacity="0.5" d="M218.523 73.2812L225.828 69.0747V65.0056L218.523 69.2259V73.2812Z" fill="#42E8E0"/>
<path opacity="0.5" d="M252.224 63.1498L257.268 60.2492V56.1802L252.224 59.0945V63.1498Z" fill="#42E8E0"/>
<path opacity="0.5" d="M242.712 68.6349L249.384 64.7858V60.7305L242.712 64.5658V68.6349Z" fill="#42E8E0"/>
<path opacity="0.5" d="M229.122 76.4568L239.873 70.257V66.2017L229.122 72.4015V76.4568Z" fill="#42E8E0"/>
<path opacity="0.5" d="M241.803 78.4362L257.268 69.5283V65.4592L241.803 74.3809V78.4362Z" fill="#42E8E0"/>
<path opacity="0.5" d="M224.463 88.4166L238.964 80.0722V76.0032L224.463 84.3475V88.4166Z" fill="#42E8E0"/>
<path d="M217.089 92.6644L221.624 90.0525V85.9834L217.089 88.5953V92.6644Z" fill="#42E8E0"/>
<path opacity="0.5" d="M210.019 96.7332L214.553 94.1213V90.0522L210.019 92.6641V96.7332Z" fill="#42E8E0"/>
<path opacity="0.5" d="M248.006 84.1411L257.268 78.8073V74.7383L248.006 80.0858V84.1411Z" fill="#42E8E0"/>
<path d="M209.219 32.247L196.372 39.6565V35.5874L209.219 28.1917V32.247Z" fill="#42E8E0"/>
<path opacity="0.5" d="M206.476 43.1071L196.373 48.9357V44.8667L206.476 39.0518V43.1071Z" fill="#42E8E0"/>
<path opacity="0.5" d="M203.678 53.9943L196.373 58.2008V54.1455L203.678 49.939V53.9943Z" fill="#42E8E0"/>
<path opacity="0.5" d="M207 61.3628L196.373 67.4801V63.4248L207 57.2937V61.3628Z" fill="#42E8E0"/>
<path opacity="0.5" d="M203.678 72.5526L196.373 76.7592V72.7038L203.678 68.4973V72.5526Z" fill="#42E8E0"/>
<path opacity="0.5" d="M205.635 80.7046L196.373 86.0383V81.983L205.635 76.6355V80.7046Z" fill="#42E8E0"/>
<path opacity="0.5" d="M201.417 92.403L196.373 95.3173V91.2482L201.417 88.3477V92.403Z" fill="#42E8E0"/>
<path opacity="0.5" d="M206.159 98.9604L196.373 104.597V100.528L206.159 94.8914V98.9604Z" fill="#42E8E0"/>
<path opacity="0.5" d="M205.635 108.528L196.373 113.875V109.806L205.635 104.473V108.528Z" fill="#42E8E0"/>
<path opacity="0.5" d="M241.224 88.0453L245.166 85.7771V81.708L241.224 83.9762V88.0453Z" fill="#42E8E0"/>
<path opacity="0.5" d="M229.522 94.7812L238.385 89.6811V85.6121L229.522 90.7259V94.7812Z" fill="#42E8E0"/>
<path opacity="0.5" d="M166.821 56.5101L185.36 45.8288V41.7598L166.821 52.441V56.5101Z" fill="#42E8E0"/>
<path opacity="0.5" d="M157.311 61.9813L163.996 58.1322V54.0769L157.311 57.926V61.9813Z" fill="#42E8E0"/>
<path d="M149.937 66.2291L154.485 63.6172V59.5481L149.937 62.16V66.2291Z" fill="#42E8E0"/>
<path opacity="0.5" d="M175.257 60.9228L185.36 55.1079V51.0388L175.257 56.8537V60.9228Z" fill="#42E8E0"/>
<path opacity="0.5" d="M160.04 69.6797L172.431 62.5588V58.4897L160.04 65.6244V69.6797Z" fill="#42E8E0"/>
<path d="M152.68 73.9275L157.215 71.3156V67.2603L152.68 69.8722V73.9275Z" fill="#42E8E0"/>
<path opacity="0.5" d="M145.663 77.969L150.198 75.3571V71.2881L145.663 73.9V77.969Z" fill="#42E8E0"/>
<path opacity="0.5" d="M178.055 68.5935L185.36 64.3869V60.3179L178.055 64.5244V68.5935Z" fill="#42E8E0"/>
<path opacity="0.5" d="M172.721 71.6591L175.216 70.2295V66.1604L172.721 67.6038V71.6591Z" fill="#42E8E0"/>
<path opacity="0.5" d="M165.347 75.907L169.895 73.2951V69.2261L165.347 71.838V75.907Z" fill="#42E8E0"/>
<path opacity="0.5" d="M158.386 89.2001L185.36 73.6662V69.5972L158.386 85.1311V89.2001Z" fill="#42E8E0"/>
<path opacity="0.5" d="M148.875 94.6713L155.547 90.8222V86.7668L148.875 90.616V94.6713Z" fill="#42E8E0"/>
<path opacity="0.5" d="M178.055 87.1518L185.36 82.9315V78.8762L178.055 83.0828V87.1518Z" fill="#42E8E0"/>
<path opacity="0.5" d="M160.895 97.0222L175.216 88.7741V84.7188L160.895 92.9668V97.0222Z" fill="#42E8E0"/>
<path opacity="0.5" d="M153.534 101.27L158.069 98.6578V94.6025L153.534 97.2144V101.27Z" fill="#42E8E0"/>
<path d="M170.405 100.83L185.36 92.2106V88.1553L170.405 96.7608V100.83Z" fill="#42E8E0"/>
<path opacity="0.5" d="M156.759 108.693L167.579 102.466V98.3965L156.759 104.624V108.693Z" fill="#42E8E0"/>
<path opacity="0.5" d="M146.614 114.535L153.92 110.315V106.26L146.614 110.466V114.535Z" fill="#42E8E0"/>
<path opacity="0.5" d="M180.315 104.404L185.36 101.49V97.4343L180.315 100.335V104.404Z" fill="#42E8E0"/>
<path opacity="0.5" d="M170.804 109.875L177.475 106.026V101.971L170.804 105.82V109.875Z" fill="#42E8E0"/>
<path d="M157.214 117.711L167.966 111.511V107.442L157.214 113.642V117.711Z" fill="#42E8E0"/>
<path opacity="0.5" d="M169.895 119.677L185.36 110.769V106.713L169.895 115.621V119.677Z" fill="#42E8E0"/>
<path opacity="0.5" d="M152.555 129.657L167.056 121.313V117.257L152.555 125.602V129.657Z" fill="#42E8E0"/>
<path opacity="0.5" d="M145.182 133.905L149.73 131.293V127.237L145.182 129.849V133.905Z" fill="#42E8E0"/>
<path opacity="0.5" d="M138.11 137.974L142.659 135.362V131.307L138.11 133.919V137.974Z" fill="#42E8E0"/>
<path opacity="0.5" d="M176.097 125.382L185.36 120.048V115.993L176.097 121.326V125.382Z" fill="#42E8E0"/>
<path d="M137.311 73.4874L124.465 80.897V76.8417L137.311 69.4321V73.4874Z" fill="#42E8E0"/>
<path opacity="0.5" d="M134.568 84.3611L124.465 90.176V86.1206L134.568 80.292V84.3611Z" fill="#42E8E0"/>
<path opacity="0.5" d="M131.77 95.2488L124.465 99.4553V95.3862L131.77 91.1797V95.2488Z" fill="#42E8E0"/>
<path opacity="0.5" d="M135.092 102.603L124.465 108.734V104.665L135.092 98.5479V102.603Z" fill="#42E8E0"/>
<path opacity="0.5" d="M131.77 113.793L124.465 118.013V113.944L131.77 109.738V113.793Z" fill="#42E8E0"/>
<path opacity="0.5" d="M133.727 121.945L124.465 127.292V123.223L133.727 117.89V121.945Z" fill="#42E8E0"/>
<path opacity="0.5" d="M129.51 133.657L124.465 136.558V132.503L129.51 129.588V133.657Z" fill="#42E8E0"/>
<path opacity="0.5" d="M134.251 140.201L124.465 145.837V141.782L134.251 136.146V140.201Z" fill="#42E8E0"/>
<path opacity="0.5" d="M133.727 149.782L124.465 155.116V151.061L133.727 145.713V149.782Z" fill="#42E8E0"/>
<path d="M169.315 129.286L173.258 127.018V122.962L169.315 125.231V129.286Z" fill="#42E8E0"/>
<path opacity="0.5" d="M157.613 136.035L166.49 130.922V126.866L157.613 131.966V136.035Z" fill="#42E8E0"/>
<path opacity="0.5" d="M238.73 98.8091L257.268 88.1278V84.0725L238.73 94.7538V98.8091Z" fill="#42E8E0"/>
<path opacity="0.5" d="M229.219 104.28L235.89 100.445V96.376L229.219 100.225V104.28Z" fill="#42E8E0"/>
<path opacity="0.5" d="M221.845 108.528L226.393 105.916V101.861L221.845 104.473V108.528Z" fill="#42E8E0"/>
<path opacity="0.5" d="M247.165 103.236L257.268 97.4069V93.3516L247.165 99.1665V103.236Z" fill="#42E8E0"/>
<path opacity="0.5" d="M231.948 111.992L244.34 104.858V100.802L231.948 107.937V111.992Z" fill="#42E8E0"/>
<path opacity="0.5" d="M224.587 116.24L229.122 113.628V109.559L224.587 112.171V116.24Z" fill="#42E8E0"/>
<path opacity="0.5" d="M217.571 120.268L222.106 117.656V113.601L217.571 116.212V120.268Z" fill="#42E8E0"/>
<path opacity="0.5" d="M249.963 110.906L257.268 106.686V102.631L249.963 106.837V110.906Z" fill="#42E8E0"/>
<path opacity="0.5" d="M244.629 113.972L247.124 112.528V108.473L244.629 109.903V113.972Z" fill="#42E8E0"/>
<path opacity="0.5" d="M237.255 118.206L241.803 115.608V111.539L237.255 114.15V118.206Z" fill="#42E8E0"/>
<path opacity="0.5" d="M230.294 131.499L257.268 115.965V111.91L230.294 127.444V131.499Z" fill="#42E8E0"/>
<path opacity="0.5" d="M220.784 136.984L227.455 133.135V129.08L220.784 132.915V136.984Z" fill="#42E8E0"/>
<path opacity="0.5" d="M249.963 129.451L257.268 125.244V121.189L249.963 125.395V129.451Z" fill="#42E8E0"/>
<path opacity="0.5" d="M232.803 139.335L247.124 131.087V127.031L232.803 135.279V139.335Z" fill="#42E8E0"/>
<path opacity="0.5" d="M225.442 143.582L229.976 140.97V136.901L225.442 139.513V143.582Z" fill="#42E8E0"/>
<path opacity="0.5" d="M242.313 143.142L257.268 134.523V130.468L242.313 139.073V143.142Z" fill="#42E8E0"/>
<path opacity="0.5" d="M228.667 150.992L239.487 144.765V140.709L228.667 146.937V150.992Z" fill="#42E8E0"/>
<path opacity="0.5" d="M218.523 156.835L225.828 152.628V148.559L218.523 152.779V156.835Z" fill="#42E8E0"/>
<path opacity="0.5" d="M252.224 146.703L257.268 143.802V139.733L252.224 142.648V146.703Z" fill="#42E8E0"/>
<path opacity="0.5" d="M242.712 152.188L249.384 148.339V144.284L242.712 148.119V152.188Z" fill="#42E8E0"/>
<path opacity="0.5" d="M229.122 160.01L239.873 153.81V149.755L229.122 155.955V160.01Z" fill="#42E8E0"/>
<path opacity="0.5" d="M241.803 161.99L257.268 153.082V149.013L241.803 157.921V161.99Z" fill="#42E8E0"/>
<path opacity="0.5" d="M224.463 171.97L238.964 163.625V159.556L224.463 167.914V171.97Z" fill="#42E8E0"/>
<path opacity="0.5" d="M217.089 176.218L221.624 173.606V169.537L217.089 172.149V176.218Z" fill="#42E8E0"/>
<path opacity="0.5" d="M210.019 180.286L214.553 177.675V173.605L210.019 176.217V180.286Z" fill="#42E8E0"/>
<path opacity="0.5" d="M248.006 167.694L257.268 162.361V158.292L248.006 163.639V167.694Z" fill="#42E8E0"/>
<path opacity="0.5" d="M209.219 115.8L196.372 123.21V119.141L209.219 111.745V115.8Z" fill="#42E8E0"/>
<path opacity="0.5" d="M206.476 126.66L196.373 132.489V128.42L206.476 122.605V126.66Z" fill="#42E8E0"/>
<path opacity="0.5" d="M203.678 137.547L196.373 141.754V137.699L203.678 133.492V137.547Z" fill="#42E8E0"/>
<path opacity="0.5" d="M207 144.916L196.373 151.033V146.978L207 140.847V144.916Z" fill="#42E8E0"/>
<path opacity="0.5" d="M203.678 156.106L196.373 160.313V156.257L203.678 152.037V156.106Z" fill="#42E8E0"/>
<path opacity="0.5" d="M205.635 164.258L196.373 169.591V165.536L205.635 160.188V164.258Z" fill="#42E8E0"/>
<path opacity="0.5" d="M201.417 175.956L196.373 178.871V174.815L201.417 171.901V175.956Z" fill="#42E8E0"/>
<path opacity="0.5" d="M206.159 182.513L196.373 188.15V184.081L206.159 178.444V182.513Z" fill="#42E8E0"/>
<path opacity="0.5" d="M205.635 192.081L196.373 197.429V193.36L205.635 188.026V192.081Z" fill="#42E8E0"/>
<path opacity="0.5" d="M241.224 171.599L245.166 169.33V165.261L241.224 167.529V171.599Z" fill="#42E8E0"/>
<path opacity="0.5" d="M229.522 178.335L238.385 173.235V169.166L229.522 174.279V178.335Z" fill="#42E8E0"/>
<path opacity="0.5" d="M222.175 209.554L237.158 200.921V196.865L222.175 205.484V209.554Z" fill="#42E8E0"/>
<path opacity="0.5" d="M211.921 215.451L217.82 212.055V208L211.921 211.395V215.451Z" fill="#42E8E0"/>
<path opacity="0.5" d="M166.821 140.063L185.36 129.382V125.313L166.821 135.994V140.063Z" fill="#42E8E0"/>
<path opacity="0.5" d="M157.311 145.534L163.996 141.685V137.63L157.311 141.465V145.534Z" fill="#42E8E0"/>
<path opacity="0.5" d="M149.937 149.783L154.485 147.171V143.102L149.937 145.713V149.783Z" fill="#42E8E0"/>
<path opacity="0.5" d="M175.257 144.476L185.36 138.661V134.592L175.257 140.421V144.476Z" fill="#42E8E0"/>
<path opacity="0.5" d="M160.04 153.233L172.431 146.112V142.043L160.04 149.178V153.233Z" fill="#42E8E0"/>
<path opacity="0.5" d="M152.68 157.481L157.215 154.869V150.813L152.68 153.425V157.481Z" fill="#42E8E0"/>
<path opacity="0.5" d="M145.663 161.522L150.198 158.91V154.841L145.663 157.453V161.522Z" fill="#42E8E0"/>
<path opacity="0.5" d="M178.055 152.147L185.36 147.94V143.871L178.055 148.078V152.147Z" fill="#42E8E0"/>
<path opacity="0.5" d="M172.721 155.213L175.216 153.783V149.714L172.721 151.157V155.213Z" fill="#42E8E0"/>
<path opacity="0.5" d="M165.347 159.46L169.895 156.848V152.779L165.347 155.405V159.46Z" fill="#42E8E0"/>
<path opacity="0.5" d="M158.386 172.753L185.36 157.219V153.15L158.386 168.684V172.753Z" fill="#42E8E0"/>
<path opacity="0.5" d="M148.875 178.225L155.547 174.376V170.32L148.875 174.169V178.225Z" fill="#42E8E0"/>
<path opacity="0.5" d="M178.055 170.705L185.36 166.485V162.429L178.055 166.636V170.705Z" fill="#42E8E0"/>
<path opacity="0.5" d="M160.895 180.575L175.216 172.327V168.271L160.895 176.52V180.575Z" fill="#42E8E0"/>
<path opacity="0.5" d="M153.534 184.823L158.069 182.211V178.156L153.534 180.768V184.823Z" fill="#42E8E0"/>
<path opacity="0.5" d="M170.405 184.383L185.36 175.764V171.708L170.405 180.314V184.383Z" fill="#42E8E0"/>
<path opacity="0.5" d="M156.759 192.247L167.579 186.019V181.95L156.759 188.178V192.247Z" fill="#42E8E0"/>
<path opacity="0.5" d="M146.614 198.089L153.92 193.868V189.813L146.614 194.02V198.089Z" fill="#42E8E0"/>
<path opacity="0.5" d="M180.315 187.957L185.36 185.043V180.988L180.315 183.888V187.957Z" fill="#42E8E0"/>
<path opacity="0.5" d="M170.804 193.428L177.475 189.593V185.524L170.804 189.373V193.428Z" fill="#42E8E0"/>
<path opacity="0.5" d="M157.214 201.264L167.966 195.064V190.995L157.214 197.195V201.264Z" fill="#42E8E0"/>
<path opacity="0.5" d="M169.895 203.23L185.36 194.322V190.267L169.895 199.175V203.23Z" fill="#42E8E0"/>
<path opacity="0.5" d="M152.555 213.21L167.056 204.866V200.811L152.555 209.155V213.21Z" fill="#42E8E0"/>
<path opacity="0.5" d="M145.182 217.458L149.73 214.846V210.791L145.182 213.403V217.458Z" fill="#42E8E0"/>
<path opacity="0.5" d="M138.11 221.527L142.659 218.915V214.86L138.11 217.472V221.527Z" fill="#42E8E0"/>
<path opacity="0.5" d="M176.097 208.935L185.36 203.601V199.546L176.097 204.88V208.935Z" fill="#42E8E0"/>
<path opacity="0.5" d="M137.311 157.041L124.465 164.45V160.395L137.311 152.985V157.041Z" fill="#42E8E0"/>
<path opacity="0.5" d="M134.568 167.914L124.465 173.729V169.674L134.568 163.845V167.914Z" fill="#42E8E0"/>
<path opacity="0.5" d="M131.77 178.802L124.465 183.008V178.939L131.77 174.733V178.802Z" fill="#42E8E0"/>
<path opacity="0.5" d="M135.092 186.156L124.465 192.287V188.218L135.092 182.101V186.156Z" fill="#42E8E0"/>
<path opacity="0.5" d="M131.77 197.346L124.465 201.567V197.498L131.77 193.291V197.346Z" fill="#42E8E0"/>
<path opacity="0.5" d="M133.727 205.498L124.465 210.846V206.777L133.727 201.443V205.498Z" fill="#42E8E0"/>
<path opacity="0.5" d="M129.51 217.211L124.465 220.111V216.056L129.51 213.142V217.211Z" fill="#42E8E0"/>
<path opacity="0.5" d="M134.251 223.754L124.465 229.39V225.335L134.251 219.699V223.754Z" fill="#42E8E0"/>
<path opacity="0.5" d="M133.727 233.336L124.465 238.669V234.614L133.727 229.267V233.336Z" fill="#42E8E0"/>
<path opacity="0.5" d="M169.315 212.839L173.258 210.571V206.516L169.315 208.784V212.839Z" fill="#42E8E0"/>
<path opacity="0.5" d="M157.613 219.589L166.49 214.475V210.419L157.613 215.519V219.589Z" fill="#42E8E0"/>
<path opacity="0.5" d="M150.267 250.794L165.25 242.175V238.105L150.267 246.725V250.794Z" fill="#42E8E0"/>
<path opacity="0.5" d="M140.013 256.705L145.912 253.296V249.241L140.013 252.636V256.705Z" fill="#42E8E0"/>
</g>
<defs>
<linearGradient id="paint0_linear_24_363" x1="416.646" y1="260.912" x2="435.807" y2="272.008" gradientUnits="userSpaceOnUse">
<stop stop-color="#42E8E0"/>
<stop offset="0.15" stop-color="#43E3E0"/>
<stop offset="0.33" stop-color="#45D5DF"/>
<stop offset="0.52" stop-color="#49BDDD"/>
<stop offset="0.72" stop-color="#4E9CDB"/>
<stop offset="0.93" stop-color="#5472D8"/>
<stop offset="1" stop-color="#5761D7"/>
</linearGradient>
<linearGradient id="paint1_linear_24_363" x1="369.702" y1="294.51" x2="387.097" y2="324.58" gradientUnits="userSpaceOnUse">
<stop stop-color="#42E8E0"/>
<stop offset="0.15" stop-color="#43E3E0"/>
<stop offset="0.33" stop-color="#45D5DF"/>
<stop offset="0.52" stop-color="#49BDDD"/>
<stop offset="0.72" stop-color="#4E9CDB"/>
<stop offset="0.93" stop-color="#5472D8"/>
<stop offset="1" stop-color="#5761D7"/>
</linearGradient>
<linearGradient id="paint2_linear_24_363" x1="429.63" y1="289.23" x2="463.137" y2="289.23" gradientUnits="userSpaceOnUse">
<stop stop-color="#42E8E0"/>
<stop offset="0.15" stop-color="#43E3E0"/>
<stop offset="0.33" stop-color="#45D5DF"/>
<stop offset="0.52" stop-color="#49BDDD"/>
<stop offset="0.72" stop-color="#4E9CDB"/>
<stop offset="0.93" stop-color="#5472D8"/>
<stop offset="1" stop-color="#5761D7"/>
</linearGradient>
<linearGradient id="paint3_linear_24_363" x1="452.593" y1="275.318" x2="440.229" y2="303.166" gradientUnits="userSpaceOnUse">
<stop stop-color="#42E8E0"/>
<stop offset="0.15" stop-color="#43E3E0"/>
<stop offset="0.33" stop-color="#45D5DF"/>
<stop offset="0.52" stop-color="#49BDDD"/>
<stop offset="0.72" stop-color="#4E9CDB"/>
<stop offset="0.93" stop-color="#5472D8"/>
<stop offset="1" stop-color="#5761D7"/>
</linearGradient>
<linearGradient id="paint4_linear_24_363" x1="118.786" y1="302.455" x2="384.503" y2="302.455" gradientUnits="userSpaceOnUse">
<stop stop-color="#42E8E0"/>
<stop offset="0.15" stop-color="#43E3E0"/>
<stop offset="0.33" stop-color="#45D5DF"/>
<stop offset="0.52" stop-color="#49BDDD"/>
<stop offset="0.72" stop-color="#4E9CDB"/>
<stop offset="0.93" stop-color="#5472D8"/>
<stop offset="1" stop-color="#5761D7"/>
</linearGradient>
<linearGradient id="paint5_linear_24_363" x1="82.4529" y1="174.43" x2="285.055" y2="174.43" gradientUnits="userSpaceOnUse">
<stop stop-color="#C0BFF6"/>
<stop offset="0.29" stop-color="#C5C4F7"/>
<stop offset="0.64" stop-color="#D3D2F9"/>
<stop offset="1" stop-color="#E9E9FD"/>
</linearGradient>
<linearGradient id="paint6_linear_24_363" x1="82.4532" y1="226.256" x2="117.243" y2="226.256" gradientUnits="userSpaceOnUse">
<stop stop-color="#5761D7"/>
<stop offset="0.18" stop-color="#5C66D9"/>
<stop offset="0.39" stop-color="#6A73DF"/>
<stop offset="0.61" stop-color="#8289E8"/>
<stop offset="0.85" stop-color="#A3A7F5"/>
<stop offset="1" stop-color="#BCBEFF"/>
</linearGradient>
<linearGradient id="paint7_linear_24_363" x1="109.592" y1="284.501" x2="395.736" y2="284.501" gradientUnits="userSpaceOnUse">
<stop stop-color="#5761D7"/>
<stop offset="0.18" stop-color="#5C66D9"/>
<stop offset="0.39" stop-color="#6A73DF"/>
<stop offset="0.61" stop-color="#8289E8"/>
<stop offset="0.85" stop-color="#A3A7F5"/>
<stop offset="1" stop-color="#BCBEFF"/>
</linearGradient>
<linearGradient id="paint8_linear_24_363" x1="205.746" y1="274.988" x2="492.041" y2="274.988" gradientUnits="userSpaceOnUse">
<stop stop-color="#C0BFF6"/>
<stop offset="0.29" stop-color="#C5C4F7"/>
<stop offset="0.64" stop-color="#D3D2F9"/>
<stop offset="1" stop-color="#E9E9FD"/>
</linearGradient>
<linearGradient id="paint9_linear_24_363" x1="254.222" y1="291.196" x2="327.509" y2="291.196" gradientUnits="userSpaceOnUse">
<stop stop-color="#C0BFF6"/>
<stop offset="0.29" stop-color="#C5C4F7"/>
<stop offset="0.64" stop-color="#D3D2F9"/>
<stop offset="1" stop-color="#E9E9FD"/>
</linearGradient>
<linearGradient id="paint10_linear_24_363" x1="96.3602" y1="211.698" x2="382.656" y2="211.698" gradientUnits="userSpaceOnUse">
<stop stop-color="#C0BFF6"/>
<stop offset="0.29" stop-color="#C5C4F7"/>
<stop offset="0.64" stop-color="#D3D2F9"/>
<stop offset="1" stop-color="#E9E9FD"/>
</linearGradient>
<linearGradient id="paint11_linear_24_363" x1="77.5188" y1="190.748" x2="150.805" y2="190.748" gradientUnits="userSpaceOnUse">
<stop stop-color="#C0BFF6"/>
<stop offset="0.29" stop-color="#C5C4F7"/>
<stop offset="0.64" stop-color="#D3D2F9"/>
<stop offset="1" stop-color="#E9E9FD"/>
</linearGradient>
<linearGradient id="paint12_linear_24_363" x1="421.015" y1="232.497" x2="530.152" y2="232.497" gradientUnits="userSpaceOnUse">
<stop stop-color="#42E8E0"/>
<stop offset="0.15" stop-color="#43E3E0"/>
<stop offset="0.33" stop-color="#45D5DF"/>
<stop offset="0.52" stop-color="#49BDDD"/>
<stop offset="0.72" stop-color="#4E9CDB"/>
<stop offset="0.93" stop-color="#5472D8"/>
<stop offset="1" stop-color="#5761D7"/>
</linearGradient>
<linearGradient id="paint13_linear_24_363" x1="395.361" y1="238.626" x2="483.703" y2="238.626" gradientUnits="userSpaceOnUse">
<stop stop-color="#5761D7"/>
<stop offset="0.18" stop-color="#5C66D9"/>
<stop offset="0.39" stop-color="#6A73DF"/>
<stop offset="0.61" stop-color="#8289E8"/>
<stop offset="0.85" stop-color="#A3A7F5"/>
<stop offset="1" stop-color="#BCBEFF"/>
</linearGradient>
<radialGradient id="paint14_radial_24_363" cx="0" cy="0" r="1" gradientUnits="userSpaceOnUse" gradientTransform="translate(441.579 197.937) scale(41.943 41.8316)">
<stop stop-color="#2B237C"/>
<stop offset="1" stop-color="#180D5B"/>
</radialGradient>
<linearGradient id="paint15_linear_24_363" x1="420.904" y1="211.079" x2="521.992" y2="211.079" gradientUnits="userSpaceOnUse">
<stop stop-color="#5761D7"/>
<stop offset="0.18" stop-color="#5C66D9"/>
<stop offset="0.39" stop-color="#6A73DF"/>
<stop offset="0.61" stop-color="#8289E8"/>
<stop offset="0.85" stop-color="#A3A7F5"/>
<stop offset="1" stop-color="#BCBEFF"/>
</linearGradient>
<linearGradient id="paint16_linear_24_363" x1="412.484" y1="248.414" x2="500.826" y2="248.414" gradientUnits="userSpaceOnUse">
<stop stop-color="#C0BFF6"/>
<stop offset="0.29" stop-color="#C5C4F7"/>
<stop offset="0.64" stop-color="#D3D2F9"/>
<stop offset="1" stop-color="#E9E9FD"/>
</linearGradient>
<clipPath id="clip0_24_363">
<rect width="530" height="379" fill="white" transform="matrix(-1 0 0 1 530.152 0.519287)"/>
</clipPath>
</defs>
</svg>
