<svg width="152" height="29" viewBox="0 0 152 29" fill="none" xmlns="http://www.w3.org/2000/svg">
<path d="M144.863 28.6435V0.563477H151.703V28.6435H144.863Z" fill="url(#paint0_linear_20_158)"/>
<path d="M134.531 28.6435L132.851 23.6835H122.371L120.691 28.6435H113.531L123.691 0.563477H131.611L141.771 28.6435H134.531ZM131.091 18.4035L127.611 8.12348L124.171 18.4035H131.091Z" fill="url(#paint1_linear_20_158)"/>
<path d="M111.322 25.2834C111.322 27.3234 109.682 28.9634 107.282 28.9634C104.842 28.9634 103.202 27.3234 103.202 25.2834C103.202 23.1634 104.842 21.5234 107.282 21.5234C109.682 21.5234 111.322 23.1634 111.322 25.2834Z" fill="#222222"/>
<path d="M92.2847 28.6435V0.563477H99.1247V28.6435H92.2847Z" fill="#222222"/>
<path d="M80.4878 28.6435V0.563477H87.3278V28.6435H80.4878Z" fill="#222222"/>
<path d="M43.769 28.6435V0.563477H51.849L59.729 20.0035L67.529 0.563477H75.569V28.6435H68.729V11.8035L62.449 28.6435H56.929L50.609 11.7635V28.6435H43.769Z" fill="#222222"/>
<path d="M31.9722 28.6435V0.563477H38.8122V28.6435H31.9722Z" fill="#222222"/>
<path d="M21.64 28.6435L19.96 23.6835H9.48001L7.80001 28.6435H0.640015L10.8 0.563477H18.72L28.88 28.6435H21.64ZM18.2 18.4035L14.72 8.12348L11.28 18.4035H18.2Z" fill="#222222"/>
<defs>
<linearGradient id="paint0_linear_20_158" x1="109.688" y1="3.69148" x2="147.688" y2="10.4865" gradientUnits="userSpaceOnUse">
<stop offset="0.00432054" stop-color="#EC1D77"/>
<stop offset="1" stop-color="#FF737A"/>
</linearGradient>
<linearGradient id="paint1_linear_20_158" x1="109.688" y1="3.69148" x2="147.688" y2="10.4865" gradientUnits="userSpaceOnUse">
<stop offset="0.00432054" stop-color="#EC1D77"/>
<stop offset="1" stop-color="#FF737A"/>
</linearGradient>
</defs>
</svg>
