<svg width="49" height="49" viewBox="0 0 49 49" fill="none" xmlns="http://www.w3.org/2000/svg">
<path d="M48.4946 10.6565C48.4946 13.6131 48.4944 16.5698 48.4941 19.5265C48.4937 20.3804 48.2136 20.6626 47.3512 20.6635C44.4613 20.6665 41.5715 20.6664 38.6816 20.6632C37.8494 20.6621 37.5679 20.3769 37.5677 19.5502C37.5665 13.6201 37.5651 7.69007 37.5635 1.76001C37.5632 1.36714 37.6381 1.02698 37.9936 0.810496C38.3026 0.622346 38.5289 0.620324 38.6588 1.04501C38.8732 1.74607 39.143 2.42998 39.3703 3.1274C39.4539 3.38388 39.5683 3.49134 39.861 3.48928C41.9656 3.47444 44.0703 3.47444 46.1751 3.48928C46.4847 3.4915 46.609 3.37891 46.6983 3.10289C46.9292 2.38917 47.2014 1.68875 47.4302 0.974431C47.5313 0.65908 47.6981 0.638736 47.9552 0.755852C48.404 0.96026 48.4993 1.33455 48.4982 1.78648C48.4911 4.74313 48.4899 7.69979 48.4946 10.6565ZM43.0276 19.2309C43.2929 19.2309 43.559 19.2433 43.8234 19.2278C43.895 19.2291 43.966 19.2155 44.032 19.1879C44.098 19.1603 44.1576 19.1193 44.207 19.0676C44.2564 19.0158 44.2946 18.9544 44.319 18.8871C44.3435 18.8199 44.3538 18.7483 44.3492 18.6769C44.3552 18.6055 44.3461 18.5335 44.3225 18.4658C44.2988 18.3981 44.2612 18.3361 44.2119 18.2839C44.1627 18.2317 44.103 18.1905 44.0368 18.163C43.9706 18.1354 43.8993 18.1221 43.8276 18.124C43.2975 18.1073 42.7669 18.1071 42.2359 18.1235C42.1643 18.1212 42.0929 18.1341 42.0265 18.1612C41.9601 18.1883 41.9002 18.2291 41.8506 18.2809C41.8011 18.3327 41.7629 18.3944 41.7388 18.4619C41.7146 18.5294 41.705 18.6013 41.7104 18.6728C41.7053 18.7441 41.7149 18.8158 41.7389 18.8832C41.7628 18.9506 41.8005 19.0123 41.8495 19.0644C41.8985 19.1165 41.9577 19.1579 42.0235 19.1859C42.0894 19.2139 42.1603 19.228 42.2318 19.2272C42.496 19.2444 42.7622 19.2307 43.0276 19.2309Z" fill="url(#paint0_linear_19_80)"/>
<path d="M7.01133 48.8004C5.1574 48.8004 3.30345 48.8001 1.44948 48.7994C0.688 48.7982 0.377929 48.4939 0.377192 47.742C0.374344 44.8192 0.37427 41.8963 0.376976 38.9734C0.377618 38.1921 0.683528 37.8881 1.47796 37.8874C5.16914 37.8845 8.86032 37.8845 12.5515 37.8874C13.3431 37.8881 13.6449 38.1856 13.6462 38.9771C13.651 41.8833 13.6511 44.7894 13.6465 47.6956C13.6453 48.5212 13.3564 48.799 12.523 48.7999C10.6858 48.8017 8.84856 48.8019 7.01133 48.8004ZM8.91171 42.1189C8.91613 41.7151 8.79166 41.3204 8.55638 40.9921C8.3211 40.6639 7.98727 40.4193 7.60342 40.2938C7.21957 40.1683 6.8057 40.1685 6.42197 40.2944C6.03824 40.4202 5.70465 40.6652 5.46968 40.9936C4.9787 41.6768 4.90826 42.6462 5.50143 43.2135C6.01873 43.7081 6.02426 44.2329 6.00647 44.829C5.99456 45.0625 5.99748 45.2965 6.01523 45.5296C6.02898 45.7912 6.14342 46.0374 6.3346 46.2165C6.52578 46.3955 6.77885 46.4937 7.04079 46.4903C7.58159 46.4752 7.98209 46.063 8.00293 45.4764C8.01774 45.0596 8.02079 44.6413 8.00378 44.2247C7.98701 44.0868 8.00626 43.9469 8.05967 43.8187C8.11309 43.6905 8.19883 43.5784 8.30853 43.4932C8.50782 43.3258 8.66589 43.1148 8.77048 42.8764C8.87508 42.6381 8.92342 42.3789 8.91171 42.1189Z" fill="url(#paint1_linear_19_80)"/>
<path d="M30.2894 6.6342C30.1094 6.49485 29.9368 6.34628 29.7721 6.1891C29.4652 5.86775 29.4332 5.49601 29.7011 5.14584C29.9709 4.79322 30.3718 4.6983 30.7235 4.95526C31.6124 5.60475 32.4801 6.28295 33.3265 6.98988C33.699 7.3001 33.6788 7.8172 33.2944 8.1341C32.4705 8.81343 31.6263 9.46948 30.7705 10.1084C30.6899 10.1694 30.5979 10.2137 30.4999 10.2386C30.4019 10.2636 30.2999 10.2688 30.1999 10.2539C30.0999 10.239 30.0039 10.2042 29.9175 10.1517C29.8311 10.0992 29.756 10.03 29.6967 9.94815C29.5727 9.78803 29.515 9.5864 29.5356 9.38494C29.5561 9.18349 29.6532 8.99762 29.8069 8.86577C29.962 8.71814 30.1351 8.58952 30.3035 8.44952C30.1758 8.28155 30.0141 8.34806 29.8778 8.34799C22.697 8.34423 15.5163 8.33932 8.33548 8.33326C7.86524 8.33219 7.79892 8.49397 7.79998 8.90703C7.81294 13.9502 7.81565 18.9935 7.80813 24.0367C7.81435 24.2036 7.81143 24.3707 7.79938 24.5373C7.75318 24.9555 7.51853 25.2135 7.09628 25.2543C6.65146 25.2973 6.35712 25.0815 6.2436 24.6517C6.2101 24.4885 6.19745 24.3218 6.20597 24.1554C6.20424 18.5276 6.21133 12.8999 6.19215 7.27219C6.19054 6.79963 6.34931 6.73226 6.76248 6.73283C14.3941 6.74355 22.0258 6.74615 29.6575 6.74064H30.2526L30.2894 6.6342Z" fill="url(#paint2_linear_19_80)"/>
<path d="M20.9032 43.4348C21.084 43.5871 21.251 43.7154 21.4036 43.859C21.7373 44.173 21.7835 44.6012 21.5304 44.9405C21.4735 45.0239 21.4003 45.095 21.3153 45.1494C21.2303 45.2039 21.1351 45.2407 21.0356 45.2576C20.936 45.2744 20.8341 45.271 20.7358 45.2476C20.6376 45.2241 20.5451 45.1811 20.4639 45.1211C19.5939 44.4736 18.7358 43.8081 17.9018 43.1151C17.8137 43.0477 17.7424 42.9609 17.6936 42.8613C17.6447 42.7617 17.6197 42.6522 17.6204 42.5413C17.6211 42.4304 17.6475 42.3212 17.6976 42.2223C17.7476 42.1234 17.82 42.0374 17.909 41.9712C18.7316 41.2903 19.5772 40.636 20.4311 39.9945C20.5932 39.8713 20.7971 39.8165 20.9991 39.8417C21.2011 39.8669 21.3852 39.9702 21.512 40.1294C21.7866 40.4704 21.7425 40.9264 21.3932 41.2513C21.2379 41.3957 21.0666 41.5229 20.8952 41.6639C21.0459 41.8183 21.2041 41.7549 21.3422 41.755C28.1222 41.7588 34.9023 41.7633 41.6823 41.7686C42.1327 41.7696 42.2382 41.6378 42.2368 41.2049C42.2222 36.5123 42.2197 31.8198 42.2295 27.1271C42.2208 26.9105 42.2357 26.6936 42.2737 26.4802C42.3174 26.3105 42.4169 26.1604 42.5562 26.0541C42.6955 25.9478 42.8666 25.8915 43.0418 25.8941C43.217 25.8968 43.3862 25.9583 43.5222 26.0687C43.6583 26.1792 43.7532 26.3322 43.7917 26.5032C43.8237 26.7008 43.8363 26.901 43.8294 27.1011C43.8313 32.3114 43.8242 37.5217 43.8418 42.7319C43.8434 43.2259 43.7355 43.3767 43.2123 43.3753C35.9814 43.3561 28.7505 43.3527 21.5195 43.3652C21.3291 43.3653 21.128 43.311 20.9032 43.4348Z" fill="url(#paint3_linear_19_80)"/>
<path d="M32.0524 22.6908C31.9964 23.9313 32.1643 25.4029 31.87 26.8618C31.1596 30.383 28.1714 33.248 24.6159 33.8047C24.4008 33.8259 24.1837 33.8059 23.9761 33.7457C19.6711 32.8224 16.8252 29.2977 16.8187 24.8877C16.8159 23.0339 16.8264 21.18 16.8102 19.3263C16.8075 19.0083 16.9114 18.8572 17.1996 18.7357C19.4879 17.7703 21.7717 16.7943 24.0511 15.8077C24.1676 15.7484 24.2961 15.7165 24.4269 15.7145C24.5576 15.7124 24.687 15.7402 24.8054 15.7958C27.0994 16.7912 29.3983 17.7752 31.7022 18.7477C31.9812 18.8655 32.0634 19.0194 32.0589 19.3096C32.0426 20.3616 32.0524 21.4139 32.0524 22.6908ZM30.7759 23.1313C30.7759 22.083 30.7564 21.2139 30.785 20.3463C30.7972 19.9756 30.6892 19.7844 30.3369 19.6373C28.4749 18.8603 26.6227 18.0597 24.7719 17.2562C24.6691 17.2062 24.5562 17.1801 24.4419 17.18C24.3276 17.1799 24.2147 17.2058 24.1119 17.2558C22.2306 18.0727 20.3456 18.8808 18.4567 19.6799C18.1822 19.7955 18.0851 19.9368 18.0878 20.2333C18.1024 21.87 18.0768 23.5071 18.1012 25.1436C18.1188 26.6485 18.5952 28.1122 19.4666 29.3393C20.3381 30.5664 21.5631 31.4984 22.9782 32.0109C23.537 32.2161 24.1146 32.481 24.7256 32.3402C27.7359 31.6462 29.7031 29.8271 30.5508 26.8392C30.913 25.5626 30.7297 24.2492 30.7759 23.1313Z" fill="url(#paint4_linear_19_80)"/>
<path d="M10.624 36.2821C9.61401 36.2821 9.61401 36.2821 9.57996 35.2463C9.53133 33.7669 8.42798 32.6553 7.01056 32.6575C5.58225 32.6599 4.49528 33.7693 4.46565 35.255C4.44517 36.282 4.44517 36.282 3.40621 36.282C2.2543 36.282 2.2543 36.282 2.29378 35.1169C2.32647 33.8851 2.83601 32.7141 3.71504 31.8506C4.59407 30.9871 5.77396 30.4986 7.00611 30.4878C9.57166 30.4776 11.6498 32.5337 11.7205 35.1522C11.7511 36.2821 11.7511 36.2821 10.624 36.2821Z" fill="url(#paint5_linear_19_80)"/>
<path d="M43.039 0.682109C43.8075 0.682042 44.5764 0.697351 45.3442 0.675414C45.7143 0.664848 45.8663 0.70907 45.6937 1.12847C45.3191 2.03858 45.5994 1.86332 44.6257 1.87414C43.4398 1.88732 42.2536 1.87809 41.0675 1.87673C40.7174 1.87635 40.164 1.09703 40.2835 0.774999C40.342 0.61729 40.4823 0.686744 40.5835 0.685914C41.4019 0.679204 42.2205 0.682109 43.039 0.682109Z" fill="url(#paint6_linear_19_80)"/>
<path d="M19.6984 23.3783C19.6984 22.6766 19.7101 21.9747 19.6925 21.2734C19.6753 21.1601 19.6999 21.0443 19.7617 20.9477C19.8234 20.8511 19.9181 20.7802 20.0282 20.7482C21.3981 20.1768 22.763 19.5937 24.1231 18.9991C24.2192 18.952 24.3248 18.9273 24.4319 18.9268C24.539 18.9263 24.6448 18.95 24.7415 18.9962C26.1186 19.5932 27.5013 20.1777 28.882 20.7666C29.0382 20.8332 29.1807 20.8985 29.1733 21.1165C29.1157 22.8171 29.3815 24.5407 29.0313 26.2154C28.5355 28.586 27.0116 30.0599 24.6842 30.7106C24.5066 30.755 24.3202 30.7506 24.1448 30.6979C22.9104 30.3958 21.8088 29.698 21.0081 28.7112C20.2074 27.7244 19.7515 26.5027 19.7101 25.2325C19.6901 24.6151 19.7072 23.9964 19.7072 23.3784L19.6984 23.3783ZM28.3292 22.9766C28.3248 22.8057 28.2707 22.6397 28.1734 22.4991C28.0761 22.3585 27.9399 22.2493 27.7814 22.185C27.385 22.0236 27.0328 22.1294 26.7327 22.4341C25.8654 23.3147 24.9892 24.1867 24.1297 25.0748C23.9373 25.2736 23.8175 25.3041 23.6187 25.0841C23.2944 24.7252 22.9432 24.3899 22.5935 24.0549C22.1614 23.6409 21.6241 23.6194 21.2596 23.9881C20.8962 24.3559 20.9212 24.8911 21.3424 25.3217C21.938 25.9306 22.5402 26.533 23.1491 27.1289C23.6354 27.605 24.1128 27.6105 24.592 27.1321C25.7267 25.9992 26.8502 24.8551 27.9792 23.7164C28.1858 23.5234 28.311 23.2588 28.3292 22.9766Z" fill="url(#paint7_linear_19_80)"/>
<defs>
<linearGradient id="paint0_linear_19_80" x1="43.0309" y1="0.689453" x2="43.0309" y2="20.6656" gradientUnits="userSpaceOnUse">
<stop stop-color="#EC1D77"/>
<stop offset="1" stop-color="#FF737A"/>
</linearGradient>
<linearGradient id="paint1_linear_19_80" x1="7.01244" y1="37.8853" x2="7.01244" y2="48.8014" gradientUnits="userSpaceOnUse">
<stop stop-color="#EC1D77"/>
<stop offset="1" stop-color="#FF737A"/>
</linearGradient>
<linearGradient id="paint2_linear_19_80" x1="19.8934" y1="4.80957" x2="19.8934" y2="25.2597" gradientUnits="userSpaceOnUse">
<stop stop-color="#EC1D77"/>
<stop offset="1" stop-color="#FF737A"/>
</linearGradient>
<linearGradient id="paint3_linear_19_80" x1="30.7311" y1="25.894" x2="30.7311" y2="45.2681" gradientUnits="userSpaceOnUse">
<stop stop-color="#EC1D77"/>
<stop offset="1" stop-color="#FF737A"/>
</linearGradient>
<linearGradient id="paint4_linear_19_80" x1="24.4346" y1="15.7144" x2="24.4346" y2="33.8129" gradientUnits="userSpaceOnUse">
<stop stop-color="#EC1D77"/>
<stop offset="1" stop-color="#FF737A"/>
</linearGradient>
<linearGradient id="paint5_linear_19_80" x1="7.00549" y1="30.4878" x2="7.00549" y2="36.2821" gradientUnits="userSpaceOnUse">
<stop stop-color="#EC1D77"/>
<stop offset="1" stop-color="#FF737A"/>
</linearGradient>
<linearGradient id="paint6_linear_19_80" x1="43.0158" y1="0.671387" x2="43.0158" y2="1.88114" gradientUnits="userSpaceOnUse">
<stop stop-color="#EC1D77"/>
<stop offset="1" stop-color="#FF737A"/>
</linearGradient>
<linearGradient id="paint7_linear_19_80" x1="24.4516" y1="18.9268" x2="24.4516" y2="30.741" gradientUnits="userSpaceOnUse">
<stop stop-color="#EC1D77"/>
<stop offset="1" stop-color="#FF737A"/>
</linearGradient>
</defs>
</svg>
