<svg width="49" height="49" viewBox="0 0 49 49" fill="none" xmlns="http://www.w3.org/2000/svg">
<path d="M43.2215 36.0412C41.7157 34.5342 39.9562 33.3042 38.0236 32.4075C40.7489 30.1996 42.4876 26.8306 42.4876 23.0525C42.4876 16.3867 36.9287 10.9181 30.2629 11.0204C23.6994 11.1227 18.4113 16.471 18.4113 23.0525C18.4113 26.8306 20.156 30.1996 22.8752 32.4075C20.9423 33.3035 19.1827 34.5336 17.6773 36.0412C14.3926 39.332 12.5276 43.6756 12.4073 48.308C12.4057 48.3722 12.4169 48.436 12.4404 48.4958C12.4639 48.5556 12.4991 48.6101 12.5439 48.6561C12.5888 48.7021 12.6424 48.7386 12.7016 48.7635C12.7607 48.7885 12.8243 48.8013 12.8886 48.8013H16.2575C16.5162 48.8013 16.7328 48.5967 16.7388 48.338C16.8531 44.8487 18.2669 41.582 20.7515 39.1034C22.023 37.8252 23.5353 36.8119 25.201 36.122C26.8666 35.4322 28.6526 35.0796 30.4554 35.0847C34.1192 35.0847 37.5664 36.5105 40.1593 39.1034C42.638 41.582 44.0517 44.8487 44.1721 48.338C44.1781 48.5967 44.3947 48.8013 44.6533 48.8013H48.0223C48.0866 48.8013 48.1502 48.7885 48.2093 48.7635C48.2685 48.7386 48.3221 48.7021 48.367 48.6561C48.4118 48.6101 48.447 48.5556 48.4705 48.4958C48.494 48.436 48.5052 48.3722 48.5036 48.308C48.3833 43.6756 46.5183 39.332 43.2215 36.0412ZM30.4554 30.7531C28.398 30.7531 26.4608 29.953 25.0109 28.4971C24.2833 27.7752 23.7085 26.9141 23.3209 25.9653C22.9333 25.0164 22.7408 23.9992 22.7549 22.9743C22.7729 21.0011 23.561 19.094 24.9387 17.6802C26.3826 16.2002 28.3137 15.376 30.3772 15.352C32.4167 15.3339 34.396 16.1281 35.8518 17.5539C37.3438 19.0158 38.162 20.971 38.162 23.0525C38.162 25.11 37.3619 27.0412 35.906 28.4971C35.1917 29.2148 34.3422 29.7837 33.4066 30.1709C32.4711 30.5582 31.468 30.756 30.4554 30.7531ZM15.3852 24.6408C15.3311 24.1174 15.301 23.588 15.301 23.0525C15.301 22.096 15.3912 21.1635 15.5597 20.2551C15.6018 20.0385 15.4875 19.8159 15.289 19.7257C14.4708 19.3587 13.7188 18.8533 13.069 18.2156C12.3034 17.4733 11.701 16.5795 11.3001 15.5913C10.8992 14.6031 10.7088 13.5422 10.7408 12.4763C10.795 10.5452 11.571 8.71025 12.9246 7.32656C14.4106 5.8045 16.4079 4.97428 18.5316 4.99834C20.4507 5.01639 22.3037 5.75637 23.7054 7.06787C24.1807 7.51306 24.5898 8.00637 24.9327 8.53579C25.053 8.72229 25.2877 8.80049 25.4922 8.7283C26.551 8.36132 27.67 8.10263 28.8191 7.98231C29.156 7.94621 29.3485 7.58525 29.1981 7.28445C27.2429 3.41612 23.2482 0.744991 18.6279 0.672798C11.9561 0.570525 6.39723 6.03912 6.39723 12.6989C6.39723 16.477 8.13587 19.846 10.8611 22.0539C8.94803 22.9382 7.18533 24.1595 5.65725 25.6876C2.36045 28.9784 0.495472 33.3219 0.37515 37.9603C0.373545 38.0245 0.384807 38.0884 0.408274 38.1482C0.431741 38.208 0.466937 38.2625 0.51179 38.3085C0.556642 38.3544 0.610243 38.391 0.669433 38.4159C0.728624 38.4408 0.792207 38.4537 0.856435 38.4536H4.23144C4.49014 38.4536 4.70671 38.2491 4.71273 37.9904C4.82703 34.5011 6.24081 31.2344 8.72544 28.7558C10.4942 26.987 12.6599 25.7598 15.0243 25.1642C15.2589 25.104 15.4153 24.8814 15.3852 24.6408Z" fill="url(#paint0_linear_20_110)"/>
<defs>
<linearGradient id="paint0_linear_20_110" x1="24.4394" y1="0.671387" x2="24.4394" y2="48.8013" gradientUnits="userSpaceOnUse">
<stop stop-color="#EC1D77"/>
<stop offset="1" stop-color="#FF737A"/>
</linearGradient>
</defs>
</svg>
