<svg width="44" height="50" viewBox="0 0 44 50" fill="none" xmlns="http://www.w3.org/2000/svg">
<path d="M23.7034 49.0193H19.3353C19.2077 48.9613 19.0667 48.9382 18.9271 48.9526C16.7764 48.872 14.634 48.6438 12.5153 48.2696C9.78609 47.7863 7.107 47.1188 4.62036 45.8701C2.51431 44.8125 0.599192 43.5455 0.0146484 41.054V8.8605C0.410533 7.02171 1.65611 5.83275 3.16709 4.85103C3.85853 4.40589 4.58729 4.02002 5.34538 3.69764C9.11168 2.07649 13.0954 1.39907 17.1544 1.06613C20.3371 0.808385 23.5368 0.832223 26.7153 1.13737C30.2228 1.46931 33.6655 2.09517 36.9544 3.38849C38.6806 4.06728 40.3151 4.90827 41.6151 6.26327C42.4689 7.15326 43.025 8.17931 43.0248 9.44548C43.0234 19.7605 43.0225 30.0755 43.0221 40.3906C43.0248 40.6253 43.0088 40.8598 42.9743 41.0921C42.7441 42.5204 41.8679 43.5416 40.7791 44.4129C39.4372 45.4867 37.8945 46.2012 36.2842 46.7803C32.9068 47.9949 29.3979 48.5665 25.831 48.8586C25.1221 48.9167 24.4061 48.8843 23.7034 49.0193ZM21.5334 2.78245C18.3417 2.75175 15.155 3.04122 12.0225 3.64639C9.65888 4.11243 7.34827 4.75546 5.1969 5.86282C4.12349 6.41538 3.10599 7.04966 2.39419 8.05208C1.76637 8.93626 1.77287 9.8207 2.38727 10.7133C2.78686 11.2662 3.2873 11.7406 3.86295 12.1123C5.63632 13.3232 7.63374 14.0275 9.6909 14.5801C12.8499 15.4288 16.0782 15.8255 19.3436 15.9484C23.9653 16.1225 28.5422 15.8036 33.0363 14.6618C35.0597 14.1478 37.0231 13.4728 38.8035 12.3592C39.4813 11.9353 40.1071 11.4502 40.5859 10.8039C41.2769 9.8711 41.2848 8.95069 40.6139 8.0057C40.3106 7.58998 39.9447 7.22252 39.5289 6.91605C37.9741 5.73556 36.1855 5.02908 34.3339 4.47093C30.1626 3.21377 25.875 2.79065 21.5334 2.78245ZM1.93317 23.4002C1.93317 25.6384 1.95028 27.7793 1.92475 29.9196C1.91458 30.7754 2.26878 31.4377 2.84362 32.0229C3.68562 32.8801 4.7125 33.4706 5.79594 33.9652C8.78609 35.3303 11.9666 36.004 15.2122 36.3872C20.1518 36.9892 25.1537 36.8797 30.0614 36.0619C32.5904 35.6342 35.0629 34.9976 37.3903 33.898C38.4165 33.4131 39.3914 32.8445 40.1918 32.0273C40.7651 31.4421 41.1232 30.7807 41.1134 29.9245C41.0894 27.8231 41.1088 25.7211 41.1092 23.6193C41.113 23.6029 41.1133 23.5858 41.11 23.5693C41.1067 23.5527 41.0999 23.537 41.0901 23.5232C41.0803 23.5094 41.0676 23.4978 41.053 23.4892C41.0383 23.4805 41.022 23.475 41.005 23.473C40.1098 24.2084 39.1172 24.8198 38.0547 25.2904C34.0904 27.0798 29.8706 27.7771 25.5692 28.1085C22.8742 28.3114 20.1674 28.3122 17.4723 28.1108C14.5363 27.8972 11.6352 27.4708 8.80013 26.6715C6.35506 25.9822 4.00848 25.0777 1.93317 23.4002ZM41.113 33.7713C39.7944 34.8554 38.3925 35.5871 36.9043 36.1646C32.968 37.6921 28.8463 38.3115 24.6555 38.5511C20.2941 38.8006 15.9569 38.568 11.6652 37.7294C8.95521 37.1998 6.31591 36.4497 3.88216 35.1096C3.21836 34.7302 2.58392 34.3028 1.98408 33.8309C1.8904 34.0091 1.92802 34.1618 1.92778 34.3077C1.92469 36.16 1.98776 38.0151 1.90496 39.8638C1.84502 41.2018 2.41824 42.1379 3.41291 42.9219C4.28579 43.5926 5.24741 44.1425 6.27108 44.556C10.0136 46.1272 13.9635 46.7552 17.9852 47.0209C21.4639 47.26 24.9582 47.1509 28.4146 46.6951C31.0535 46.3411 33.6466 45.7933 36.1304 44.8214C37.6187 44.239 39.0497 43.5497 40.1966 42.4026C40.5007 42.1163 40.7403 41.77 40.9 41.3862C41.0596 41.0024 41.1357 40.5898 41.1232 40.1751C41.0899 38.2265 41.113 36.277 41.113 34.3279V33.7713ZM41.113 13.0052C39.596 14.2591 37.9425 15.0489 36.1983 15.6667C32.6013 16.9408 28.8694 17.5231 25.0715 17.7544C19.7319 18.0797 14.4461 17.7601 9.25394 16.4096C6.97337 15.8164 4.7735 15.021 2.81537 13.6794C2.53342 13.4862 2.26333 13.2761 1.95372 13.049C1.94075 13.1637 1.9269 13.2287 1.92701 13.2936C1.92988 15.4088 1.94493 17.524 1.93175 19.639C1.93339 20.2655 2.16255 20.8707 2.5776 21.3445C2.83415 21.6556 3.12574 21.9368 3.44673 22.1828C4.6808 23.1451 6.08852 23.7842 7.557 24.2966C11.7718 25.7674 16.147 26.2749 20.5869 26.3657C23.1763 26.4234 25.7664 26.2825 28.3337 25.9441C31.0842 25.577 33.7865 25.0059 36.366 23.9626C37.7573 23.3999 39.0926 22.7361 40.1701 21.666C40.7615 21.0787 41.134 20.404 41.114 19.5314C41.0846 18.2464 41.1112 16.9602 41.1129 15.6745C41.1138 14.8186 41.113 13.9629 41.113 13.0052Z" fill="url(#paint0_linear_19_26)"/>
<path d="M38.2377 30.1245C38.2406 30.2491 38.2184 30.3731 38.1724 30.4892C38.1264 30.6053 38.0575 30.7112 37.9697 30.8008C37.8819 30.8904 37.777 30.9619 37.661 31.0112C37.5451 31.0604 37.4203 31.0864 37.2941 31.0877C37.1057 31.0898 36.9209 31.0368 36.7629 30.9354C36.6049 30.834 36.4809 30.6887 36.4064 30.5179C36.3318 30.347 36.3102 30.1581 36.3441 29.9751C36.378 29.7921 36.466 29.6231 36.5971 29.4894C36.7281 29.3557 36.8962 29.2632 37.0803 29.2237C37.2644 29.1841 37.4562 29.1993 37.6316 29.2672C37.8071 29.3351 37.9582 29.4527 38.066 29.6053C38.1739 29.7578 38.2336 29.9385 38.2377 30.1245Z" fill="url(#paint1_linear_19_26)"/>
<path d="M29.6661 31.098C29.9171 31.1052 30.1551 31.2102 30.3278 31.3902C30.5006 31.5702 30.5941 31.8105 30.5879 32.0584C30.5817 32.3063 30.4762 32.5417 30.2946 32.713C30.113 32.8844 29.8701 32.9776 29.619 32.9725C29.4941 32.9699 29.3708 32.943 29.2564 32.8933C29.142 32.8436 29.0387 32.772 28.9524 32.6828C28.866 32.5935 28.7984 32.4883 28.7533 32.3732C28.7083 32.2581 28.6866 32.1353 28.6897 32.0119C28.6928 31.8885 28.7206 31.767 28.7714 31.6542C28.8222 31.5414 28.895 31.4397 28.9857 31.3548C29.0764 31.2698 29.1832 31.2035 29.3 31.1594C29.4167 31.1154 29.5411 31.0945 29.6661 31.098Z" fill="url(#paint2_linear_19_26)"/>
<path d="M33.4605 32.0196C33.2759 32.0166 33.0962 31.96 32.9439 31.8568C32.7916 31.7536 32.6735 31.6083 32.6044 31.4392C32.5352 31.2701 32.518 31.0846 32.555 30.9059C32.5919 30.7272 32.6814 30.5633 32.8122 30.4345C32.9429 30.3057 33.1092 30.2178 33.2903 30.1818C33.4714 30.1458 33.6591 30.1633 33.8302 30.2321C34.0012 30.3009 34.148 30.4179 34.2521 30.5686C34.3562 30.7193 34.413 30.8969 34.4155 31.0792C34.4176 31.2035 34.3943 31.327 34.3471 31.4422C34.2998 31.5574 34.2295 31.662 34.1403 31.7498C34.0512 31.8376 33.9451 31.9067 33.8283 31.9531C33.7115 31.9994 33.5864 32.022 33.4605 32.0196Z" fill="url(#paint3_linear_19_26)"/>
<path d="M29.6214 43.3579C29.4963 43.3552 29.3731 43.3281 29.2586 43.2784C29.1441 43.2286 29.0407 43.157 28.9543 43.0678C28.8678 42.9785 28.8 42.8733 28.7547 42.7582C28.7094 42.643 28.6875 42.5202 28.6903 42.3967C28.6931 42.2733 28.7205 42.1515 28.7709 42.0385C28.8213 41.9254 28.8937 41.8233 28.9841 41.7379C29.0745 41.6526 29.181 41.5856 29.2976 41.5409C29.4142 41.4962 29.5386 41.4745 29.6636 41.4773C29.9141 41.4858 30.1511 41.5914 30.3232 41.7713C30.4953 41.9512 30.5887 42.1908 30.5832 42.4382C30.5776 42.6856 30.4735 42.9209 30.2935 43.0931C30.1135 43.2652 29.872 43.3604 29.6214 43.3579Z" fill="url(#paint4_linear_19_26)"/>
<path d="M38.2382 40.5189C38.2426 40.7634 38.1494 40.9998 37.9788 41.177C37.8081 41.3542 37.5737 41.4579 37.3262 41.4658C37.1368 41.4736 36.9493 41.4254 36.7878 41.3273C36.6263 41.2292 36.4982 41.0857 36.4198 40.9153C36.3415 40.7448 36.3164 40.5551 36.348 40.3705C36.3795 40.1858 36.4661 40.0147 36.5968 39.8791C36.7275 39.7434 36.8962 39.6494 37.0813 39.609C37.2664 39.5687 37.4596 39.5838 37.6359 39.6526C37.8123 39.7213 37.9638 39.8405 38.0711 39.9949C38.1784 40.1492 38.2366 40.3317 38.2382 40.5189Z" fill="url(#paint5_linear_19_26)"/>
<path d="M33.4804 42.4003C33.2936 42.4014 33.1107 42.3477 32.955 42.2458C32.7992 42.144 32.6777 41.9987 32.6058 41.8285C32.534 41.6582 32.515 41.4707 32.5514 41.2898C32.5878 41.1088 32.6779 40.9427 32.8103 40.8125C32.9426 40.6823 33.1111 40.594 33.2945 40.5587C33.4778 40.5234 33.6676 40.5428 33.8398 40.6143C34.0119 40.6859 34.1586 40.8065 34.2611 40.9606C34.3637 41.1148 34.4175 41.2956 34.4156 41.4801C34.4145 41.7244 34.3155 41.9583 34.1403 42.1307C33.965 42.3031 33.7278 42.4001 33.4804 42.4003Z" fill="url(#paint6_linear_19_26)"/>
<path d="M38.2382 19.7709C38.2361 19.9547 38.1792 20.1337 38.0746 20.2857C37.97 20.4376 37.8223 20.5558 37.6501 20.6253C37.4779 20.6948 37.2887 20.7126 37.1062 20.6765C36.9238 20.6405 36.7562 20.552 36.6244 20.4224C36.4925 20.2927 36.4024 20.1275 36.3651 19.9475C36.3279 19.7675 36.3452 19.5806 36.4149 19.4102C36.4847 19.2399 36.6037 19.0936 36.7572 18.9897C36.9107 18.8858 37.0918 18.829 37.2778 18.8262C37.532 18.8259 37.7758 18.9252 37.9559 19.1024C38.136 19.2795 38.2375 19.5199 38.2382 19.7709Z" fill="url(#paint7_linear_19_26)"/>
<path d="M33.4789 21.6421C33.3536 21.6439 33.2291 21.621 33.1128 21.5747C32.9966 21.5285 32.8908 21.4597 32.8018 21.3725C32.7128 21.2854 32.6423 21.1815 32.5944 21.0671C32.5466 20.9527 32.5224 20.83 32.5232 20.7062C32.5223 20.4595 32.6203 20.2224 32.7957 20.0467C32.971 19.871 33.2096 19.7709 33.4594 19.7681C33.7093 19.7654 33.95 19.8602 34.1294 20.032C34.3087 20.2038 34.412 20.4386 34.4167 20.6852C34.4196 20.8091 34.3976 20.9323 34.3519 21.0477C34.3062 21.1631 34.2377 21.2683 34.1505 21.3574C34.0632 21.4464 33.9589 21.5174 33.8436 21.5663C33.7283 21.6152 33.6044 21.641 33.4789 21.6421Z" fill="url(#paint8_linear_19_26)"/>
<path d="M30.5918 21.6333C30.595 21.8809 30.499 22.1198 30.3247 22.2978C30.1504 22.4759 29.9119 22.5787 29.6612 22.584C29.4105 22.5892 29.1678 22.4965 28.986 22.3259C28.8042 22.1553 28.6981 21.9207 28.6906 21.6731C28.6894 21.4287 28.7838 21.1932 28.9541 21.0158C29.1245 20.8384 29.3576 20.7328 29.6048 20.721C29.7309 20.7145 29.8569 20.7333 29.9755 20.776C30.094 20.8188 30.2026 20.8848 30.2947 20.9699C30.3868 21.0551 30.4606 21.1577 30.5117 21.2717C30.5627 21.3857 30.59 21.5087 30.5918 21.6333Z" fill="url(#paint9_linear_19_26)"/>
<defs>
<linearGradient id="paint0_linear_19_26" x1="21.5197" y1="0.88916" x2="21.5197" y2="49.0193" gradientUnits="userSpaceOnUse">
<stop stop-color="#EC1D77"/>
<stop offset="1" stop-color="#FF737A"/>
</linearGradient>
<linearGradient id="paint1_linear_19_26" x1="37.2832" y1="29.2021" x2="37.2832" y2="31.0877" gradientUnits="userSpaceOnUse">
<stop stop-color="#EC1D77"/>
<stop offset="1" stop-color="#FF737A"/>
</linearGradient>
<linearGradient id="paint2_linear_19_26" x1="29.6388" y1="31.0977" x2="29.6388" y2="32.9727" gradientUnits="userSpaceOnUse">
<stop stop-color="#EC1D77"/>
<stop offset="1" stop-color="#FF737A"/>
</linearGradient>
<linearGradient id="paint3_linear_19_26" x1="33.4758" y1="30.1636" x2="33.4758" y2="32.0198" gradientUnits="userSpaceOnUse">
<stop stop-color="#EC1D77"/>
<stop offset="1" stop-color="#FF737A"/>
</linearGradient>
<linearGradient id="paint4_linear_19_26" x1="29.6367" y1="41.4771" x2="29.6367" y2="43.358" gradientUnits="userSpaceOnUse">
<stop stop-color="#EC1D77"/>
<stop offset="1" stop-color="#FF737A"/>
</linearGradient>
<linearGradient id="paint5_linear_19_26" x1="37.2865" y1="39.5869" x2="37.2865" y2="41.4666" gradientUnits="userSpaceOnUse">
<stop stop-color="#EC1D77"/>
<stop offset="1" stop-color="#FF737A"/>
</linearGradient>
<linearGradient id="paint6_linear_19_26" x1="33.4745" y1="40.5415" x2="33.4745" y2="42.4003" gradientUnits="userSpaceOnUse">
<stop stop-color="#EC1D77"/>
<stop offset="1" stop-color="#FF737A"/>
</linearGradient>
<linearGradient id="paint7_linear_19_26" x1="37.2921" y1="18.8262" x2="37.2921" y2="20.6948" gradientUnits="userSpaceOnUse">
<stop stop-color="#EC1D77"/>
<stop offset="1" stop-color="#FF737A"/>
</linearGradient>
<linearGradient id="paint8_linear_19_26" x1="33.4701" y1="19.7681" x2="33.4701" y2="21.6422" gradientUnits="userSpaceOnUse">
<stop stop-color="#EC1D77"/>
<stop offset="1" stop-color="#FF737A"/>
</linearGradient>
<linearGradient id="paint9_linear_19_26" x1="29.6412" y1="20.7197" x2="29.6412" y2="22.5842" gradientUnits="userSpaceOnUse">
<stop stop-color="#EC1D77"/>
<stop offset="1" stop-color="#FF737A"/>
</linearGradient>
</defs>
</svg>
