<svg width="49" height="49" viewBox="0 0 49 49" fill="none" xmlns="http://www.w3.org/2000/svg">
<path d="M0.87516 5.47181C1.10925 4.54575 1.38747 3.64188 1.99425 2.87283C3.09989 1.47144 4.53834 0.691481 6.32074 0.687011C14.042 0.667598 21.7632 0.666275 29.4845 0.683043C32.5233 0.688279 34.9377 3.11933 34.9628 6.20918C34.9919 9.77983 34.9735 13.3509 34.9677 16.9218C34.9661 17.9117 34.3244 18.5901 33.4366 18.5767C32.5574 18.5635 31.9654 17.909 31.9643 16.9239C31.9603 13.4157 31.9655 9.90744 31.9609 6.39921C31.959 4.98566 31.1609 3.96745 29.8759 3.72641C29.675 3.69488 29.4715 3.68188 29.2682 3.6876C21.7035 3.68577 14.1389 3.68552 6.57426 3.68686C4.92521 3.68727 3.88367 4.73578 3.88347 6.39287C3.88226 16.62 3.88226 26.8471 3.88347 37.0743C3.88367 38.7286 4.92782 39.7768 6.5778 39.7776C11.6522 39.7798 16.7266 39.7805 21.801 39.7796C22.0042 39.7705 22.2078 39.7813 22.4089 39.8119C22.7666 39.8834 23.0861 40.0827 23.3075 40.3726C23.5289 40.6626 23.637 41.0233 23.6118 41.3872C23.5865 41.7511 23.4295 42.0934 23.1701 42.3499C22.9108 42.6064 22.5668 42.7597 22.2027 42.781C22.0468 42.7921 21.8895 42.7859 21.7329 42.7859C16.7368 42.7861 11.7401 42.738 6.74486 42.8036C3.59904 42.8449 1.29462 40.6457 0.941873 38.1122C0.926832 38.0687 0.904236 38.0282 0.875122 37.9926L0.87516 5.47181Z" fill="url(#paint0_linear_19_73)"/>
<path d="M36.5916 48.8014C34.6733 47.9179 32.8675 46.808 31.2128 45.4956C28.7998 43.5439 26.8332 41.2486 25.7316 38.2992C25.2225 36.9649 24.9551 35.5506 24.9419 34.1226C24.9303 31.397 24.9353 28.6713 24.9382 25.9456C24.939 25.1158 25.2907 24.624 26.0697 24.3584C29.4882 23.1928 32.9071 22.028 36.3262 20.8642C36.7244 20.7158 37.1618 20.71 37.5638 20.8478C40.9967 22.0196 44.4304 23.1893 47.8647 24.3569C48.6699 24.6325 48.9966 25.1217 48.9974 25.9921C48.9999 28.4515 48.9607 30.9116 49.0072 33.3701C49.0767 37.0483 47.7866 40.2004 45.3997 42.9321C43.1921 45.4587 40.506 47.3465 37.4513 48.7192C37.4123 48.7424 37.3761 48.77 37.3435 48.8015L36.5916 48.8014ZM45.9539 30.8436H45.9906C45.9906 29.6846 45.9747 28.5252 46.0002 27.3667C46.008 27.0114 45.9071 26.8452 45.5649 26.7306C42.8076 25.8074 40.0563 24.8665 37.3044 23.9275C37.1007 23.8492 36.876 23.8452 36.6697 23.9163C33.8899 24.87 31.1079 25.8173 28.3236 26.7581C28.0421 26.8529 27.9349 26.9705 27.9369 27.2787C27.9512 29.4871 27.9401 31.6956 27.9465 33.904C27.949 35.5245 28.3633 37.1178 29.1505 38.5343C30.8958 41.718 33.6416 43.8179 36.7526 45.5197C36.8261 45.5619 36.9102 45.5823 36.9949 45.5785C37.0796 45.5747 37.1615 45.5468 37.231 45.4981C39.3681 44.3439 41.3236 42.9493 42.9514 41.1316C44.5994 39.2914 45.7579 37.201 45.9378 34.6942C46.0295 33.4169 45.9539 32.1275 45.9539 30.8436Z" fill="url(#paint1_linear_19_73)"/>
<path d="M17.9472 16.7274C21.0783 16.7276 24.2095 16.7225 27.3407 16.7304C28.4461 16.7332 29.1658 17.621 28.8837 18.6217C28.8165 18.8981 28.6679 19.148 28.4571 19.3391C28.2463 19.5301 27.9831 19.6535 27.7014 19.6933C27.5007 19.725 27.2976 19.7384 27.0944 19.7334C20.973 19.7353 14.8515 19.7354 8.73004 19.7337C8.54249 19.7385 8.35486 19.7277 8.16912 19.7013C7.79319 19.6458 7.45242 19.4495 7.21591 19.152C6.9794 18.8546 6.86484 18.4784 6.89547 18.0996C6.92215 17.7282 7.08878 17.3808 7.3617 17.1275C7.63462 16.8742 7.9935 16.7339 8.36584 16.735C10.1191 16.7183 11.8727 16.7279 13.6262 16.7274C15.0665 16.7269 16.5068 16.7269 17.9472 16.7274Z" fill="url(#paint2_linear_19_73)"/>
<path d="M13.9024 27.7471C12.0721 27.747 10.2416 27.7605 8.41141 27.7422C8.14375 27.7471 7.87971 27.6799 7.64688 27.5478C7.41405 27.4157 7.221 27.2235 7.08791 26.9912C6.95483 26.7589 6.8866 26.4951 6.89036 26.2275C6.89412 25.9598 6.96974 25.6981 7.1093 25.4696C7.23811 25.2432 7.4259 25.0561 7.65267 24.928C7.87944 24.7999 8.1367 24.7357 8.39706 24.7422C12.0734 24.7388 15.7497 24.7398 19.426 24.7451C19.6234 24.7465 19.8186 24.7868 20.0003 24.8638C20.1821 24.9408 20.3469 25.0529 20.4852 25.1937C20.6236 25.3346 20.7327 25.5013 20.8065 25.6844C20.8802 25.8676 20.9171 26.0635 20.9149 26.2608C20.9128 26.4582 20.8717 26.6533 20.794 26.8348C20.7163 27.0162 20.6035 27.1806 20.4621 27.3184C20.3207 27.4561 20.1535 27.5647 19.9701 27.6377C19.7867 27.7107 19.5907 27.7468 19.3933 27.7438C17.5631 27.7551 15.7327 27.7472 13.9024 27.7471Z" fill="url(#paint3_linear_19_73)"/>
<path d="M12.8836 11.6988C11.443 11.6988 10.0023 11.7027 8.56164 11.6975C7.56327 11.6938 6.88499 11.0756 6.89184 10.1907C6.89859 9.31886 7.56561 8.69644 8.53446 8.69407C11.4627 8.68704 14.391 8.68727 17.3192 8.69475C18.0932 8.69676 18.638 9.09889 18.8509 9.77389C18.9444 10.0753 18.939 10.3986 18.8356 10.6967C18.7321 10.9948 18.5361 11.252 18.2761 11.4308C17.9682 11.6539 17.6203 11.7015 17.2525 11.7005C15.7962 11.6964 14.3399 11.6988 12.8836 11.6988Z" fill="url(#paint4_linear_19_73)"/>
<path d="M32.4268 32.7597C32.6467 32.763 32.8637 32.8102 33.0651 32.8984C33.2665 32.9866 33.4483 33.1141 33.5998 33.2735C34.3704 34.0523 35.1694 34.8044 35.9131 35.6078C36.2526 35.9745 36.3923 35.8934 36.6552 35.5367C38.1682 33.4839 39.7079 31.4508 41.2343 29.4079C41.3982 29.1661 41.6297 28.978 41.9 28.8672C42.1703 28.7564 42.4672 28.7279 42.7537 28.7851C43.0117 28.822 43.2544 28.9304 43.4541 29.098C43.6538 29.2655 43.8027 29.4856 43.8838 29.7334C44.1012 30.3154 43.9374 30.8267 43.5724 31.3107C41.8205 33.6343 40.0738 35.9618 38.3324 38.2933C38.1071 38.5937 37.8899 38.9008 37.6519 39.1908C37.0559 39.9168 36.0927 39.9998 35.4219 39.3431C34.0574 38.0075 32.7074 36.6572 31.3718 35.2921C30.9122 34.8239 30.8235 34.2432 31.0945 33.6416C31.2055 33.3801 31.3911 33.1571 31.628 33.0002C31.8649 32.8434 32.1427 32.7598 32.4268 32.7597Z" fill="url(#paint5_linear_19_73)"/>
<defs>
<linearGradient id="paint0_linear_19_73" x1="17.9269" y1="0.671387" x2="17.9269" y2="42.8042" gradientUnits="userSpaceOnUse">
<stop stop-color="#EC1D77"/>
<stop offset="1" stop-color="#FF737A"/>
</linearGradient>
<linearGradient id="paint1_linear_19_73" x1="36.9722" y1="20.7485" x2="36.9722" y2="48.8015" gradientUnits="userSpaceOnUse">
<stop stop-color="#EC1D77"/>
<stop offset="1" stop-color="#FF737A"/>
</linearGradient>
<linearGradient id="paint2_linear_19_73" x1="17.9179" y1="16.7251" x2="17.9179" y2="19.7349" gradientUnits="userSpaceOnUse">
<stop stop-color="#EC1D77"/>
<stop offset="1" stop-color="#FF737A"/>
</linearGradient>
<linearGradient id="paint3_linear_19_73" x1="13.9026" y1="24.7402" x2="13.9026" y2="27.7518" gradientUnits="userSpaceOnUse">
<stop stop-color="#EC1D77"/>
<stop offset="1" stop-color="#FF737A"/>
</linearGradient>
<linearGradient id="paint4_linear_19_73" x1="12.9045" y1="8.68896" x2="12.9045" y2="11.7005" gradientUnits="userSpaceOnUse">
<stop stop-color="#EC1D77"/>
<stop offset="1" stop-color="#FF737A"/>
</linearGradient>
<linearGradient id="paint5_linear_19_73" x1="37.4617" y1="28.7563" x2="37.4617" y2="39.7892" gradientUnits="userSpaceOnUse">
<stop stop-color="#EC1D77"/>
<stop offset="1" stop-color="#FF737A"/>
</linearGradient>
</defs>
</svg>
