<svg width="50" height="50" viewBox="0 0 50 50" fill="none" xmlns="http://www.w3.org/2000/svg">
<path d="M26.1809 46.9159C26.0312 46.9067 25.878 46.9098 25.7298 46.9129C25.6579 46.9143 25.5872 46.9158 25.5186 46.9158L25.5164 46.9158C23.1728 46.9679 20.8372 46.6187 18.6077 45.8828C11.0961 43.3151 6.1085 38.2208 3.87974 30.4606L3.87972 30.4606C3.05699 27.6034 2.77768 24.6832 3.52699 21.7468C3.86881 20.419 4.28763 19.113 4.78124 17.8356C4.82262 17.9282 4.86291 18.0187 4.90244 18.1075C5.04615 18.4303 5.17973 18.7304 5.31826 19.0263C5.44362 19.2943 5.61218 19.4862 5.82112 19.5797C6.03255 19.6743 6.26853 19.6608 6.51054 19.5512C6.75247 19.4416 6.92065 19.2722 6.99176 19.0492C7.06216 18.8284 7.03206 18.5719 6.9126 18.2963L6.91248 18.296C6.47432 17.2938 6.03042 16.2937 5.58074 15.2954L5.5806 15.2951C5.43731 14.9797 5.25515 14.7639 5.01279 14.6763C4.77004 14.5885 4.49464 14.6394 4.18847 14.7923L4.18847 14.7923L4.18796 14.7926C3.87023 14.9536 3.55405 15.1161 3.23817 15.2784C2.66045 15.5752 2.08378 15.8715 1.50065 16.1576C1.21269 16.2909 0.970548 16.5082 0.804947 16.7815L0.791373 16.8039L0.790526 16.8301L0.77519 17.3043L0.774104 17.3379L0.793504 17.3653C1.01407 17.677 1.20298 17.8769 1.44621 17.9345C1.68784 17.9916 1.95416 17.9011 2.30605 17.7292L2.30624 17.7296L2.31434 17.7246C2.55033 17.5802 2.80049 17.4617 3.06062 17.3708C3.04644 17.4108 3.03279 17.4495 3.01951 17.4871C2.97783 17.605 2.93974 17.7128 2.90015 17.8215C1.74841 20.9481 1.05157 24.1308 1.50598 27.5331C2.36222 33.9666 5.26009 39.2281 10.1977 43.3127C13.7613 46.2605 17.8674 47.9656 22.4269 48.5299L22.4274 48.53C23.6778 48.6784 24.938 48.7224 26.1955 48.6615C26.3099 48.6652 26.4239 48.6452 26.5304 48.6027C26.6382 48.5597 26.7361 48.4945 26.8179 48.4115C26.8996 48.3284 26.9636 48.2292 27.0058 48.1201C27.0478 48.0113 27.0673 47.895 27.0633 47.7783M26.1809 46.9159C26.4404 46.9267 26.6605 47.0134 26.8173 47.1665C26.9745 47.32 27.0598 47.5324 27.0633 47.7783M26.1809 46.9159C26.1805 46.9159 26.1801 46.9159 26.1797 46.9159L26.1757 47.0158L26.1819 46.916C26.1815 46.916 26.1812 46.916 26.1809 46.9159ZM27.0633 47.7783C27.0632 47.7779 27.0632 47.7776 27.0632 47.7772L26.9633 47.7808L27.0633 47.7795C27.0633 47.7791 27.0633 47.7787 27.0633 47.7783Z" fill="url(#paint0_linear_20_101)" stroke="url(#paint1_linear_20_101)" stroke-width="0.2"/>
<mask id="path-2-outside-1_20_101" maskUnits="userSpaceOnUse" x="8.43039" y="8.15674" width="33" height="33" fill="black">
<rect fill="white" x="8.43039" y="8.15674" width="33" height="33"/>
<path d="M12.5361 33.87C12.5261 33.602 12.574 33.335 12.6766 33.0879C12.7791 32.8407 12.9338 32.6194 13.1296 32.4396C13.4543 32.1175 13.9289 31.8268 14.0345 31.4384C14.1402 31.0501 13.6868 30.6344 13.5119 30.2148C13.2405 29.6068 13.0195 28.9769 12.8511 28.3316C12.7915 28.0798 12.6917 27.99 12.44 27.9998C12.0327 28.0167 11.6255 28.0167 11.2182 27.9998C10.7499 27.9927 10.3029 27.8003 9.97212 27.4636C9.64134 27.1268 9.45292 26.6723 9.44697 26.1966C9.42391 25.3067 9.42583 24.4129 9.44697 23.523C9.44765 23.2794 9.49627 23.0385 9.58997 22.8143C9.68366 22.5901 9.82056 22.3872 9.99257 22.2176C10.1646 22.0479 10.3682 21.915 10.5916 21.8264C10.8149 21.7379 11.0535 21.6957 11.2931 21.7022C11.7465 21.7022 12.2806 21.8407 12.6379 21.6456C12.9952 21.4504 12.9568 20.8318 13.1277 20.4122C13.3687 19.791 13.6538 19.1883 13.9807 18.609C14.0113 18.5739 14.0342 18.5325 14.0478 18.4876C14.0614 18.4428 14.0654 18.3955 14.0596 18.349C14.0537 18.3024 14.0382 18.2577 14.014 18.2177C13.9898 18.1777 13.9575 18.1435 13.9192 18.1172C13.6541 17.8694 13.4044 17.604 13.1508 17.3366C12.415 16.5696 12.3708 15.4983 13.0951 14.7235C13.7098 14.0658 14.3572 13.4374 15.0162 12.8324C15.3545 12.5144 15.8003 12.3407 16.2612 12.3472C16.7221 12.3537 17.163 12.54 17.4924 12.8676C17.8056 13.1564 18.1033 13.453 18.3915 13.777C18.4171 13.8156 18.4502 13.8485 18.4889 13.8734C18.5276 13.8984 18.5709 13.915 18.6162 13.9221C18.6615 13.9293 18.7077 13.9268 18.752 13.915C18.7963 13.9031 18.8378 13.882 18.8737 13.8531C19.755 13.3332 20.7027 12.9392 21.69 12.6822C21.7358 12.6788 21.7804 12.6657 21.8209 12.6437C21.8614 12.6217 21.8968 12.5914 21.9251 12.5546C21.9533 12.5178 21.9737 12.4754 21.9848 12.4302C21.9959 12.3849 21.9976 12.3378 21.9897 12.2919C21.9705 11.9016 21.9781 11.4957 21.9897 11.0975C22.0127 9.94419 22.7466 9.18894 23.88 9.16747C24.6946 9.15316 25.5091 9.15316 26.3236 9.16747C27.3629 9.18308 28.0756 9.89929 28.1429 10.9648C28.1755 11.4859 27.9373 12.1357 28.2351 12.4929C28.5328 12.85 29.161 12.8832 29.6413 13.0647C30.1845 13.274 30.7068 13.5353 31.2012 13.8453C31.2357 13.8761 31.2764 13.899 31.3204 13.9125C31.3644 13.926 31.4107 13.9297 31.4562 13.9234C31.5018 13.9171 31.5455 13.901 31.5843 13.8761C31.6232 13.8511 31.6563 13.818 31.6815 13.779C31.9235 13.5077 32.1867 13.2559 32.4499 12.9983C33.1914 12.2587 34.2711 12.2177 35.0222 12.9359C35.66 13.5467 36.2728 14.1888 36.8607 14.8503C37.5676 15.6466 37.5254 16.7004 36.7954 17.4732C36.5245 17.762 36.2498 18.047 35.9616 18.3163C35.9233 18.342 35.8907 18.3756 35.8659 18.415C35.8412 18.4543 35.8248 18.4985 35.818 18.5447C35.8111 18.5909 35.8138 18.638 35.826 18.683C35.8382 18.7281 35.8595 18.77 35.8886 18.8061C36.4022 19.7005 36.7902 20.6635 37.0413 21.6671C37.1028 21.9188 37.2334 21.9852 37.4735 21.9754C37.8962 21.9578 38.3188 21.9598 38.7414 21.9754C39.2094 21.9815 39.6564 22.1738 39.9865 22.5109C40.3166 22.848 40.5034 23.3032 40.5069 23.7786C40.5274 24.6711 40.5274 25.5623 40.5069 26.4522C40.501 26.9278 40.3133 27.3824 39.9835 27.72C39.6537 28.0576 39.2076 28.2517 38.7395 28.2613C38.2419 28.2867 37.6253 28.0661 37.2776 28.355C36.9587 28.6262 36.926 29.2429 36.7589 29.7035C36.5551 30.2712 36.2978 30.8176 35.9904 31.335C35.9576 31.3731 35.9333 31.418 35.9191 31.4665C35.9049 31.5151 35.9011 31.5662 35.908 31.6163C35.9149 31.6665 35.9324 31.7146 35.9592 31.7573C35.9861 31.8 36.0216 31.8363 36.0634 31.8638C36.3209 32.0961 36.5572 32.3537 36.7992 32.6015C37.5427 33.3685 37.6003 34.434 36.8799 35.2146C36.2613 35.8879 35.6024 36.53 34.9223 37.1408C34.5769 37.4504 34.1284 37.6151 33.6679 37.6013C33.2073 37.5875 32.7692 37.3964 32.4422 37.0666C32.0772 36.7193 31.7583 36.1455 31.3491 36.0733C30.9399 36.0011 30.4616 36.4441 30.0044 36.6588C29.4656 36.9165 28.9024 37.1179 28.3234 37.2598C28.2659 37.2634 28.2097 37.2797 28.159 37.3076C28.1083 37.3355 28.0642 37.3743 28.0298 37.4213C27.9954 37.4684 27.9715 37.5225 27.9599 37.5799C27.9482 37.6373 27.949 37.6966 27.9623 37.7536C27.9815 38.1352 27.9815 38.5175 27.9623 38.8991C27.9066 39.9959 27.1535 40.7297 26.0739 40.7277C25.1338 40.7567 24.193 40.7319 23.2557 40.6536C22.8637 40.6107 22.4995 40.4279 22.2279 40.1377C21.9563 39.8475 21.7949 39.4687 21.7726 39.0689C21.7447 38.6557 21.7447 38.241 21.7726 37.8277C21.7995 37.4843 21.6573 37.3633 21.3538 37.2793C20.4607 37.0358 19.6049 36.6688 18.8103 36.1884C18.4991 35.9933 18.3185 36.0421 18.1033 36.3016C17.8882 36.5612 17.6653 36.7583 17.4406 36.9788C16.7048 37.7087 15.6559 37.7594 14.9028 37.051C14.2266 36.4129 13.5984 35.722 12.9683 35.0331C12.8239 34.8781 12.7113 34.6954 12.637 34.4957C12.5628 34.296 12.5285 34.0833 12.5361 33.87ZM24.8156 39.1567C25.1748 39.1567 25.536 39.145 25.8971 39.1567C26.2583 39.1684 26.41 39.0416 26.3947 38.6571C26.3697 38.0541 26.3831 37.4472 26.3947 36.8422C26.3947 36.2802 26.5868 36.0304 27.142 35.9191C28.4798 35.6407 29.7563 35.117 30.9092 34.3735C31.3971 34.0652 31.6988 34.114 32.1214 34.5355C32.544 34.957 32.9532 35.3571 33.3489 35.7884C33.5968 36.0577 33.7966 36.0714 34.054 35.806C34.5663 35.2855 35.0843 34.7762 35.6081 34.2779C35.8521 34.0496 35.8387 33.8642 35.6081 33.6397C35.1913 33.2299 34.7821 32.8123 34.3767 32.3927C33.9714 31.9731 33.9407 31.6648 34.2384 31.2003C34.9848 30.0388 35.5215 28.7515 35.8233 27.3987C35.9405 26.8777 36.2075 26.6825 36.7243 26.6747C37.3198 26.6747 37.9154 26.663 38.5109 26.6747C38.8336 26.6747 38.9662 26.5498 38.9624 26.2239C38.9528 25.5077 38.9451 24.7895 38.9624 24.0772C38.9758 23.6518 38.801 23.5152 38.4014 23.5269C37.7751 23.5483 37.1469 23.5269 36.5206 23.5269C36.3219 23.5411 36.1256 23.4765 35.9729 23.3465C35.8202 23.2165 35.7232 23.0314 35.7023 22.8302C35.4357 21.4518 34.9142 20.1373 34.1654 18.9564C33.8657 18.4665 33.9003 18.1758 34.2922 17.762C34.7206 17.319 35.1509 16.878 35.5928 16.4486C35.8233 16.2223 35.8291 16.0349 35.5928 15.8047C35.0837 15.2855 34.5785 14.7606 34.0905 14.2219C33.835 13.937 33.6352 13.9682 33.3913 14.2219C33.007 14.6376 32.5978 15.0377 32.1944 15.4378C31.791 15.8378 31.4951 15.8847 31.0226 15.5724C29.89 14.828 28.6397 14.2873 27.3264 13.9741C26.7309 13.8277 26.558 13.5955 26.558 12.9632C26.558 12.3309 26.5465 11.7532 26.558 11.1483C26.558 10.8419 26.4542 10.715 26.1488 10.7209C25.4264 10.7326 24.706 10.7209 23.9856 10.7209C23.684 10.7209 23.5169 10.8126 23.5246 11.16C23.54 11.8118 23.5361 12.4656 23.5246 13.1115C23.5246 13.6404 23.2998 13.9273 22.8061 14.0209C21.4645 14.2828 20.1841 14.8014 19.0332 15.549C18.5087 15.8788 18.2321 15.8378 17.7845 15.3909C17.3714 14.9772 16.9545 14.5674 16.5549 14.14C16.3263 13.896 16.1342 13.859 15.8845 14.1127C15.3639 14.6415 14.8298 15.1587 14.2938 15.6739C14.0729 15.8847 14.0767 16.0642 14.2938 16.2769C14.6992 16.6672 15.0949 17.0829 15.4926 17.4908C15.944 17.9552 15.9825 18.2597 15.6424 18.7983C14.9208 19.9194 14.4004 21.1616 14.1056 22.4672C13.9711 23.0702 13.7348 23.2478 13.1143 23.2615C12.5341 23.2693 11.954 23.2693 11.3738 23.2615C11.0818 23.2615 10.9454 23.3805 10.9493 23.6888C10.9493 24.4363 10.9589 25.1857 10.9493 25.9331C10.9493 26.2922 11.103 26.4054 11.4372 26.3976C12.0308 26.382 12.6282 26.3859 13.2238 26.3976C13.8193 26.4093 14.0345 26.5927 14.144 27.145C14.4187 28.5041 14.935 29.801 15.6674 30.972C15.9748 31.4677 15.9287 31.7741 15.5137 32.2014C15.0988 32.6288 14.7031 33.0465 14.2785 33.4465C14.0172 33.6963 13.9922 33.8973 14.2573 34.1608C14.7696 34.6747 15.2723 35.2003 15.7654 35.7376C15.9902 35.9796 16.1746 35.9757 16.3955 35.7376C16.8002 35.3161 17.2107 34.8998 17.6269 34.4887C18.0246 34.0984 18.3473 34.0437 18.8007 34.3423C19.9443 35.0996 21.2115 35.6441 22.5429 35.9504C23.0827 36.0753 23.2537 36.3251 23.2576 36.9066C23.2614 37.4882 23.2576 38.0775 23.2576 38.6747C23.2576 39.0006 23.3863 39.1411 23.7071 39.1314C24.0932 39.1528 24.4544 39.1606 24.8156 39.1606V39.1567Z"/>
</mask>
<path d="M12.5361 33.87C12.5261 33.602 12.574 33.335 12.6766 33.0879C12.7791 32.8407 12.9338 32.6194 13.1296 32.4396C13.4543 32.1175 13.9289 31.8268 14.0345 31.4384C14.1402 31.0501 13.6868 30.6344 13.5119 30.2148C13.2405 29.6068 13.0195 28.9769 12.8511 28.3316C12.7915 28.0798 12.6917 27.99 12.44 27.9998C12.0327 28.0167 11.6255 28.0167 11.2182 27.9998C10.7499 27.9927 10.3029 27.8003 9.97212 27.4636C9.64134 27.1268 9.45292 26.6723 9.44697 26.1966C9.42391 25.3067 9.42583 24.4129 9.44697 23.523C9.44765 23.2794 9.49627 23.0385 9.58997 22.8143C9.68366 22.5901 9.82056 22.3872 9.99257 22.2176C10.1646 22.0479 10.3682 21.915 10.5916 21.8264C10.8149 21.7379 11.0535 21.6957 11.2931 21.7022C11.7465 21.7022 12.2806 21.8407 12.6379 21.6456C12.9952 21.4504 12.9568 20.8318 13.1277 20.4122C13.3687 19.791 13.6538 19.1883 13.9807 18.609C14.0113 18.5739 14.0342 18.5325 14.0478 18.4876C14.0614 18.4428 14.0654 18.3955 14.0596 18.349C14.0537 18.3024 14.0382 18.2577 14.014 18.2177C13.9898 18.1777 13.9575 18.1435 13.9192 18.1172C13.6541 17.8694 13.4044 17.604 13.1508 17.3366C12.415 16.5696 12.3708 15.4983 13.0951 14.7235C13.7098 14.0658 14.3572 13.4374 15.0162 12.8324C15.3545 12.5144 15.8003 12.3407 16.2612 12.3472C16.7221 12.3537 17.163 12.54 17.4924 12.8676C17.8056 13.1564 18.1033 13.453 18.3915 13.777C18.4171 13.8156 18.4502 13.8485 18.4889 13.8734C18.5276 13.8984 18.5709 13.915 18.6162 13.9221C18.6615 13.9293 18.7077 13.9268 18.752 13.915C18.7963 13.9031 18.8378 13.882 18.8737 13.8531C19.755 13.3332 20.7027 12.9392 21.69 12.6822C21.7358 12.6788 21.7804 12.6657 21.8209 12.6437C21.8614 12.6217 21.8968 12.5914 21.9251 12.5546C21.9533 12.5178 21.9737 12.4754 21.9848 12.4302C21.9959 12.3849 21.9976 12.3378 21.9897 12.2919C21.9705 11.9016 21.9781 11.4957 21.9897 11.0975C22.0127 9.94419 22.7466 9.18894 23.88 9.16747C24.6946 9.15316 25.5091 9.15316 26.3236 9.16747C27.3629 9.18308 28.0756 9.89929 28.1429 10.9648C28.1755 11.4859 27.9373 12.1357 28.2351 12.4929C28.5328 12.85 29.161 12.8832 29.6413 13.0647C30.1845 13.274 30.7068 13.5353 31.2012 13.8453C31.2357 13.8761 31.2764 13.899 31.3204 13.9125C31.3644 13.926 31.4107 13.9297 31.4562 13.9234C31.5018 13.9171 31.5455 13.901 31.5843 13.8761C31.6232 13.8511 31.6563 13.818 31.6815 13.779C31.9235 13.5077 32.1867 13.2559 32.4499 12.9983C33.1914 12.2587 34.2711 12.2177 35.0222 12.9359C35.66 13.5467 36.2728 14.1888 36.8607 14.8503C37.5676 15.6466 37.5254 16.7004 36.7954 17.4732C36.5245 17.762 36.2498 18.047 35.9616 18.3163C35.9233 18.342 35.8907 18.3756 35.8659 18.415C35.8412 18.4543 35.8248 18.4985 35.818 18.5447C35.8111 18.5909 35.8138 18.638 35.826 18.683C35.8382 18.7281 35.8595 18.77 35.8886 18.8061C36.4022 19.7005 36.7902 20.6635 37.0413 21.6671C37.1028 21.9188 37.2334 21.9852 37.4735 21.9754C37.8962 21.9578 38.3188 21.9598 38.7414 21.9754C39.2094 21.9815 39.6564 22.1738 39.9865 22.5109C40.3166 22.848 40.5034 23.3032 40.5069 23.7786C40.5274 24.6711 40.5274 25.5623 40.5069 26.4522C40.501 26.9278 40.3133 27.3824 39.9835 27.72C39.6537 28.0576 39.2076 28.2517 38.7395 28.2613C38.2419 28.2867 37.6253 28.0661 37.2776 28.355C36.9587 28.6262 36.926 29.2429 36.7589 29.7035C36.5551 30.2712 36.2978 30.8176 35.9904 31.335C35.9576 31.3731 35.9333 31.418 35.9191 31.4665C35.9049 31.5151 35.9011 31.5662 35.908 31.6163C35.9149 31.6665 35.9324 31.7146 35.9592 31.7573C35.9861 31.8 36.0216 31.8363 36.0634 31.8638C36.3209 32.0961 36.5572 32.3537 36.7992 32.6015C37.5427 33.3685 37.6003 34.434 36.8799 35.2146C36.2613 35.8879 35.6024 36.53 34.9223 37.1408C34.5769 37.4504 34.1284 37.6151 33.6679 37.6013C33.2073 37.5875 32.7692 37.3964 32.4422 37.0666C32.0772 36.7193 31.7583 36.1455 31.3491 36.0733C30.9399 36.0011 30.4616 36.4441 30.0044 36.6588C29.4656 36.9165 28.9024 37.1179 28.3234 37.2598C28.2659 37.2634 28.2097 37.2797 28.159 37.3076C28.1083 37.3355 28.0642 37.3743 28.0298 37.4213C27.9954 37.4684 27.9715 37.5225 27.9599 37.5799C27.9482 37.6373 27.949 37.6966 27.9623 37.7536C27.9815 38.1352 27.9815 38.5175 27.9623 38.8991C27.9066 39.9959 27.1535 40.7297 26.0739 40.7277C25.1338 40.7567 24.193 40.7319 23.2557 40.6536C22.8637 40.6107 22.4995 40.4279 22.2279 40.1377C21.9563 39.8475 21.7949 39.4687 21.7726 39.0689C21.7447 38.6557 21.7447 38.241 21.7726 37.8277C21.7995 37.4843 21.6573 37.3633 21.3538 37.2793C20.4607 37.0358 19.6049 36.6688 18.8103 36.1884C18.4991 35.9933 18.3185 36.0421 18.1033 36.3016C17.8882 36.5612 17.6653 36.7583 17.4406 36.9788C16.7048 37.7087 15.6559 37.7594 14.9028 37.051C14.2266 36.4129 13.5984 35.722 12.9683 35.0331C12.8239 34.8781 12.7113 34.6954 12.637 34.4957C12.5628 34.296 12.5285 34.0833 12.5361 33.87ZM24.8156 39.1567C25.1748 39.1567 25.536 39.145 25.8971 39.1567C26.2583 39.1684 26.41 39.0416 26.3947 38.6571C26.3697 38.0541 26.3831 37.4472 26.3947 36.8422C26.3947 36.2802 26.5868 36.0304 27.142 35.9191C28.4798 35.6407 29.7563 35.117 30.9092 34.3735C31.3971 34.0652 31.6988 34.114 32.1214 34.5355C32.544 34.957 32.9532 35.3571 33.3489 35.7884C33.5968 36.0577 33.7966 36.0714 34.054 35.806C34.5663 35.2855 35.0843 34.7762 35.6081 34.2779C35.8521 34.0496 35.8387 33.8642 35.6081 33.6397C35.1913 33.2299 34.7821 32.8123 34.3767 32.3927C33.9714 31.9731 33.9407 31.6648 34.2384 31.2003C34.9848 30.0388 35.5215 28.7515 35.8233 27.3987C35.9405 26.8777 36.2075 26.6825 36.7243 26.6747C37.3198 26.6747 37.9154 26.663 38.5109 26.6747C38.8336 26.6747 38.9662 26.5498 38.9624 26.2239C38.9528 25.5077 38.9451 24.7895 38.9624 24.0772C38.9758 23.6518 38.801 23.5152 38.4014 23.5269C37.7751 23.5483 37.1469 23.5269 36.5206 23.5269C36.3219 23.5411 36.1256 23.4765 35.9729 23.3465C35.8202 23.2165 35.7232 23.0314 35.7023 22.8302C35.4357 21.4518 34.9142 20.1373 34.1654 18.9564C33.8657 18.4665 33.9003 18.1758 34.2922 17.762C34.7206 17.319 35.1509 16.878 35.5928 16.4486C35.8233 16.2223 35.8291 16.0349 35.5928 15.8047C35.0837 15.2855 34.5785 14.7606 34.0905 14.2219C33.835 13.937 33.6352 13.9682 33.3913 14.2219C33.007 14.6376 32.5978 15.0377 32.1944 15.4378C31.791 15.8378 31.4951 15.8847 31.0226 15.5724C29.89 14.828 28.6397 14.2873 27.3264 13.9741C26.7309 13.8277 26.558 13.5955 26.558 12.9632C26.558 12.3309 26.5465 11.7532 26.558 11.1483C26.558 10.8419 26.4542 10.715 26.1488 10.7209C25.4264 10.7326 24.706 10.7209 23.9856 10.7209C23.684 10.7209 23.5169 10.8126 23.5246 11.16C23.54 11.8118 23.5361 12.4656 23.5246 13.1115C23.5246 13.6404 23.2998 13.9273 22.8061 14.0209C21.4645 14.2828 20.1841 14.8014 19.0332 15.549C18.5087 15.8788 18.2321 15.8378 17.7845 15.3909C17.3714 14.9772 16.9545 14.5674 16.5549 14.14C16.3263 13.896 16.1342 13.859 15.8845 14.1127C15.3639 14.6415 14.8298 15.1587 14.2938 15.6739C14.0729 15.8847 14.0767 16.0642 14.2938 16.2769C14.6992 16.6672 15.0949 17.0829 15.4926 17.4908C15.944 17.9552 15.9825 18.2597 15.6424 18.7983C14.9208 19.9194 14.4004 21.1616 14.1056 22.4672C13.9711 23.0702 13.7348 23.2478 13.1143 23.2615C12.5341 23.2693 11.954 23.2693 11.3738 23.2615C11.0818 23.2615 10.9454 23.3805 10.9493 23.6888C10.9493 24.4363 10.9589 25.1857 10.9493 25.9331C10.9493 26.2922 11.103 26.4054 11.4372 26.3976C12.0308 26.382 12.6282 26.3859 13.2238 26.3976C13.8193 26.4093 14.0345 26.5927 14.144 27.145C14.4187 28.5041 14.935 29.801 15.6674 30.972C15.9748 31.4677 15.9287 31.7741 15.5137 32.2014C15.0988 32.6288 14.7031 33.0465 14.2785 33.4465C14.0172 33.6963 13.9922 33.8973 14.2573 34.1608C14.7696 34.6747 15.2723 35.2003 15.7654 35.7376C15.9902 35.9796 16.1746 35.9757 16.3955 35.7376C16.8002 35.3161 17.2107 34.8998 17.6269 34.4887C18.0246 34.0984 18.3473 34.0437 18.8007 34.3423C19.9443 35.0996 21.2115 35.6441 22.5429 35.9504C23.0827 36.0753 23.2537 36.3251 23.2576 36.9066C23.2614 37.4882 23.2576 38.0775 23.2576 38.6747C23.2576 39.0006 23.3863 39.1411 23.7071 39.1314C24.0932 39.1528 24.4544 39.1606 24.8156 39.1606V39.1567Z" fill="url(#paint2_linear_20_101)"/>
<path d="M12.5361 33.87C12.5261 33.602 12.574 33.335 12.6766 33.0879C12.7791 32.8407 12.9338 32.6194 13.1296 32.4396C13.4543 32.1175 13.9289 31.8268 14.0345 31.4384C14.1402 31.0501 13.6868 30.6344 13.5119 30.2148C13.2405 29.6068 13.0195 28.9769 12.8511 28.3316C12.7915 28.0798 12.6917 27.99 12.44 27.9998C12.0327 28.0167 11.6255 28.0167 11.2182 27.9998C10.7499 27.9927 10.3029 27.8003 9.97212 27.4636C9.64134 27.1268 9.45292 26.6723 9.44697 26.1966C9.42391 25.3067 9.42583 24.4129 9.44697 23.523C9.44765 23.2794 9.49627 23.0385 9.58997 22.8143C9.68366 22.5901 9.82056 22.3872 9.99257 22.2176C10.1646 22.0479 10.3682 21.915 10.5916 21.8264C10.8149 21.7379 11.0535 21.6957 11.2931 21.7022C11.7465 21.7022 12.2806 21.8407 12.6379 21.6456C12.9952 21.4504 12.9568 20.8318 13.1277 20.4122C13.3687 19.791 13.6538 19.1883 13.9807 18.609C14.0113 18.5739 14.0342 18.5325 14.0478 18.4876C14.0614 18.4428 14.0654 18.3955 14.0596 18.349C14.0537 18.3024 14.0382 18.2577 14.014 18.2177C13.9898 18.1777 13.9575 18.1435 13.9192 18.1172C13.6541 17.8694 13.4044 17.604 13.1508 17.3366C12.415 16.5696 12.3708 15.4983 13.0951 14.7235C13.7098 14.0658 14.3572 13.4374 15.0162 12.8324C15.3545 12.5144 15.8003 12.3407 16.2612 12.3472C16.7221 12.3537 17.163 12.54 17.4924 12.8676C17.8056 13.1564 18.1033 13.453 18.3915 13.777C18.4171 13.8156 18.4502 13.8485 18.4889 13.8734C18.5276 13.8984 18.5709 13.915 18.6162 13.9221C18.6615 13.9293 18.7077 13.9268 18.752 13.915C18.7963 13.9031 18.8378 13.882 18.8737 13.8531C19.755 13.3332 20.7027 12.9392 21.69 12.6822C21.7358 12.6788 21.7804 12.6657 21.8209 12.6437C21.8614 12.6217 21.8968 12.5914 21.9251 12.5546C21.9533 12.5178 21.9737 12.4754 21.9848 12.4302C21.9959 12.3849 21.9976 12.3378 21.9897 12.2919C21.9705 11.9016 21.9781 11.4957 21.9897 11.0975C22.0127 9.94419 22.7466 9.18894 23.88 9.16747C24.6946 9.15316 25.5091 9.15316 26.3236 9.16747C27.3629 9.18308 28.0756 9.89929 28.1429 10.9648C28.1755 11.4859 27.9373 12.1357 28.2351 12.4929C28.5328 12.85 29.161 12.8832 29.6413 13.0647C30.1845 13.274 30.7068 13.5353 31.2012 13.8453C31.2357 13.8761 31.2764 13.899 31.3204 13.9125C31.3644 13.926 31.4107 13.9297 31.4562 13.9234C31.5018 13.9171 31.5455 13.901 31.5843 13.8761C31.6232 13.8511 31.6563 13.818 31.6815 13.779C31.9235 13.5077 32.1867 13.2559 32.4499 12.9983C33.1914 12.2587 34.2711 12.2177 35.0222 12.9359C35.66 13.5467 36.2728 14.1888 36.8607 14.8503C37.5676 15.6466 37.5254 16.7004 36.7954 17.4732C36.5245 17.762 36.2498 18.047 35.9616 18.3163C35.9233 18.342 35.8907 18.3756 35.8659 18.415C35.8412 18.4543 35.8248 18.4985 35.818 18.5447C35.8111 18.5909 35.8138 18.638 35.826 18.683C35.8382 18.7281 35.8595 18.77 35.8886 18.8061C36.4022 19.7005 36.7902 20.6635 37.0413 21.6671C37.1028 21.9188 37.2334 21.9852 37.4735 21.9754C37.8962 21.9578 38.3188 21.9598 38.7414 21.9754C39.2094 21.9815 39.6564 22.1738 39.9865 22.5109C40.3166 22.848 40.5034 23.3032 40.5069 23.7786C40.5274 24.6711 40.5274 25.5623 40.5069 26.4522C40.501 26.9278 40.3133 27.3824 39.9835 27.72C39.6537 28.0576 39.2076 28.2517 38.7395 28.2613C38.2419 28.2867 37.6253 28.0661 37.2776 28.355C36.9587 28.6262 36.926 29.2429 36.7589 29.7035C36.5551 30.2712 36.2978 30.8176 35.9904 31.335C35.9576 31.3731 35.9333 31.418 35.9191 31.4665C35.9049 31.5151 35.9011 31.5662 35.908 31.6163C35.9149 31.6665 35.9324 31.7146 35.9592 31.7573C35.9861 31.8 36.0216 31.8363 36.0634 31.8638C36.3209 32.0961 36.5572 32.3537 36.7992 32.6015C37.5427 33.3685 37.6003 34.434 36.8799 35.2146C36.2613 35.8879 35.6024 36.53 34.9223 37.1408C34.5769 37.4504 34.1284 37.6151 33.6679 37.6013C33.2073 37.5875 32.7692 37.3964 32.4422 37.0666C32.0772 36.7193 31.7583 36.1455 31.3491 36.0733C30.9399 36.0011 30.4616 36.4441 30.0044 36.6588C29.4656 36.9165 28.9024 37.1179 28.3234 37.2598C28.2659 37.2634 28.2097 37.2797 28.159 37.3076C28.1083 37.3355 28.0642 37.3743 28.0298 37.4213C27.9954 37.4684 27.9715 37.5225 27.9599 37.5799C27.9482 37.6373 27.949 37.6966 27.9623 37.7536C27.9815 38.1352 27.9815 38.5175 27.9623 38.8991C27.9066 39.9959 27.1535 40.7297 26.0739 40.7277C25.1338 40.7567 24.193 40.7319 23.2557 40.6536C22.8637 40.6107 22.4995 40.4279 22.2279 40.1377C21.9563 39.8475 21.7949 39.4687 21.7726 39.0689C21.7447 38.6557 21.7447 38.241 21.7726 37.8277C21.7995 37.4843 21.6573 37.3633 21.3538 37.2793C20.4607 37.0358 19.6049 36.6688 18.8103 36.1884C18.4991 35.9933 18.3185 36.0421 18.1033 36.3016C17.8882 36.5612 17.6653 36.7583 17.4406 36.9788C16.7048 37.7087 15.6559 37.7594 14.9028 37.051C14.2266 36.4129 13.5984 35.722 12.9683 35.0331C12.8239 34.8781 12.7113 34.6954 12.637 34.4957C12.5628 34.296 12.5285 34.0833 12.5361 33.87ZM24.8156 39.1567C25.1748 39.1567 25.536 39.145 25.8971 39.1567C26.2583 39.1684 26.41 39.0416 26.3947 38.6571C26.3697 38.0541 26.3831 37.4472 26.3947 36.8422C26.3947 36.2802 26.5868 36.0304 27.142 35.9191C28.4798 35.6407 29.7563 35.117 30.9092 34.3735C31.3971 34.0652 31.6988 34.114 32.1214 34.5355C32.544 34.957 32.9532 35.3571 33.3489 35.7884C33.5968 36.0577 33.7966 36.0714 34.054 35.806C34.5663 35.2855 35.0843 34.7762 35.6081 34.2779C35.8521 34.0496 35.8387 33.8642 35.6081 33.6397C35.1913 33.2299 34.7821 32.8123 34.3767 32.3927C33.9714 31.9731 33.9407 31.6648 34.2384 31.2003C34.9848 30.0388 35.5215 28.7515 35.8233 27.3987C35.9405 26.8777 36.2075 26.6825 36.7243 26.6747C37.3198 26.6747 37.9154 26.663 38.5109 26.6747C38.8336 26.6747 38.9662 26.5498 38.9624 26.2239C38.9528 25.5077 38.9451 24.7895 38.9624 24.0772C38.9758 23.6518 38.801 23.5152 38.4014 23.5269C37.7751 23.5483 37.1469 23.5269 36.5206 23.5269C36.3219 23.5411 36.1256 23.4765 35.9729 23.3465C35.8202 23.2165 35.7232 23.0314 35.7023 22.8302C35.4357 21.4518 34.9142 20.1373 34.1654 18.9564C33.8657 18.4665 33.9003 18.1758 34.2922 17.762C34.7206 17.319 35.1509 16.878 35.5928 16.4486C35.8233 16.2223 35.8291 16.0349 35.5928 15.8047C35.0837 15.2855 34.5785 14.7606 34.0905 14.2219C33.835 13.937 33.6352 13.9682 33.3913 14.2219C33.007 14.6376 32.5978 15.0377 32.1944 15.4378C31.791 15.8378 31.4951 15.8847 31.0226 15.5724C29.89 14.828 28.6397 14.2873 27.3264 13.9741C26.7309 13.8277 26.558 13.5955 26.558 12.9632C26.558 12.3309 26.5465 11.7532 26.558 11.1483C26.558 10.8419 26.4542 10.715 26.1488 10.7209C25.4264 10.7326 24.706 10.7209 23.9856 10.7209C23.684 10.7209 23.5169 10.8126 23.5246 11.16C23.54 11.8118 23.5361 12.4656 23.5246 13.1115C23.5246 13.6404 23.2998 13.9273 22.8061 14.0209C21.4645 14.2828 20.1841 14.8014 19.0332 15.549C18.5087 15.8788 18.2321 15.8378 17.7845 15.3909C17.3714 14.9772 16.9545 14.5674 16.5549 14.14C16.3263 13.896 16.1342 13.859 15.8845 14.1127C15.3639 14.6415 14.8298 15.1587 14.2938 15.6739C14.0729 15.8847 14.0767 16.0642 14.2938 16.2769C14.6992 16.6672 15.0949 17.0829 15.4926 17.4908C15.944 17.9552 15.9825 18.2597 15.6424 18.7983C14.9208 19.9194 14.4004 21.1616 14.1056 22.4672C13.9711 23.0702 13.7348 23.2478 13.1143 23.2615C12.5341 23.2693 11.954 23.2693 11.3738 23.2615C11.0818 23.2615 10.9454 23.3805 10.9493 23.6888C10.9493 24.4363 10.9589 25.1857 10.9493 25.9331C10.9493 26.2922 11.103 26.4054 11.4372 26.3976C12.0308 26.382 12.6282 26.3859 13.2238 26.3976C13.8193 26.4093 14.0345 26.5927 14.144 27.145C14.4187 28.5041 14.935 29.801 15.6674 30.972C15.9748 31.4677 15.9287 31.7741 15.5137 32.2014C15.0988 32.6288 14.7031 33.0465 14.2785 33.4465C14.0172 33.6963 13.9922 33.8973 14.2573 34.1608C14.7696 34.6747 15.2723 35.2003 15.7654 35.7376C15.9902 35.9796 16.1746 35.9757 16.3955 35.7376C16.8002 35.3161 17.2107 34.8998 17.6269 34.4887C18.0246 34.0984 18.3473 34.0437 18.8007 34.3423C19.9443 35.0996 21.2115 35.6441 22.5429 35.9504C23.0827 36.0753 23.2537 36.3251 23.2576 36.9066C23.2614 37.4882 23.2576 38.0775 23.2576 38.6747C23.2576 39.0006 23.3863 39.1411 23.7071 39.1314C24.0932 39.1528 24.4544 39.1606 24.8156 39.1606V39.1567Z" stroke="url(#paint3_linear_20_101)" stroke-width="0.4" mask="url(#path-2-outside-1_20_101)"/>
<path d="M6.68708 11.4128C6.40635 11.2849 6.23924 11.0542 6.20415 10.7805C6.16948 10.5102 6.26483 10.2104 6.4808 9.93705C7.65938 8.41608 9.02043 7.05056 10.5323 5.8723L10.5326 5.87207C15.5177 2.01667 21.1582 0.289065 27.3805 0.914304C34.0889 1.58833 39.6918 4.63797 44.2445 9.66614L44.2447 9.66644C44.2783 9.70382 44.305 9.73927 44.3297 9.77216C44.3694 9.82498 44.4041 9.87118 44.4545 9.90815L41.7773 13.469C41.7775 13.469 41.7777 13.469 41.778 13.469C41.4876 13.4688 41.2467 13.3751 41.0803 13.2068C40.9137 13.0384 40.8307 12.8046 40.8391 12.5422C40.8475 12.2808 40.9389 12.0651 41.1085 11.9145C41.2767 11.765 41.5106 11.6895 41.7863 11.6843L41.7882 11.7843L41.7864 11.6843C42.2328 11.6761 42.6835 11.6775 43.1732 11.6791C43.3145 11.6796 43.459 11.68 43.6077 11.6803C42.5255 10.2893 41.2831 9.0349 39.9068 7.94401L39.9068 7.94395C36.3268 5.10072 32.3059 3.25546 27.7857 2.73682C21.6078 2.02958 16.0538 3.67435 11.1794 7.62512C9.9511 8.62957 8.83895 9.77243 7.8643 11.0318L7.86415 11.032C7.71774 11.2201 7.55108 11.3744 7.35386 11.4515C7.15233 11.5304 6.93055 11.5241 6.68708 11.4128ZM6.68708 11.4128C6.68707 11.4128 6.68705 11.4128 6.68704 11.4128L6.72863 11.3218L6.68718 11.4128C6.68715 11.4128 6.68712 11.4128 6.68708 11.4128ZM46.1029 9.16147L46.2029 9.15875C46.2029 9.15963 46.203 9.1605 46.203 9.16138C46.2337 10.2919 46.2394 11.4222 46.2298 12.5521L46.2298 12.5529C46.2277 12.6789 46.2005 12.8032 46.1498 12.9183C46.099 13.0334 46.0258 13.137 45.9344 13.2227L45.866 13.1497L45.9344 13.2227C45.843 13.3084 45.7353 13.3744 45.6178 13.4168C45.5016 13.4586 45.3783 13.4764 45.2552 13.469L44.5545 9.2044C44.5738 8.7048 44.9003 8.35939 45.3345 8.35939C45.4372 8.35935 45.5389 8.38022 45.6336 8.42078C45.7282 8.46135 45.8138 8.52079 45.8855 8.59557C45.9571 8.67034 46.0132 8.75894 46.0506 8.85614C46.0879 8.95334 46.1058 9.05717 46.1029 9.16147ZM46.1029 9.16147C46.1337 10.2914 46.1394 11.4213 46.1298 12.5513L46.1029 9.16147Z" fill="url(#paint4_linear_20_101)" stroke="url(#paint5_linear_20_101)" stroke-width="0.2"/>
<path d="M30.9193 47.6899L30.9192 47.6899C30.6252 47.5546 30.4246 47.3514 30.347 47.1004C30.2694 46.8492 30.3213 46.5699 30.4919 46.2953L30.4919 46.2953C31.0681 45.3685 31.6634 44.4496 32.2623 43.5371C32.3199 43.4324 32.3978 43.3405 32.4914 43.2668C32.586 43.1923 32.6948 43.138 32.8109 43.1075L32.8363 43.2042L32.8109 43.1075C32.9271 43.077 33.0482 43.0708 33.1668 43.0894C33.2854 43.1079 33.3989 43.1509 33.5005 43.2154L33.5017 43.2162C33.715 43.3559 33.8488 43.5534 33.8879 43.7852C33.9268 44.0153 33.8707 44.2685 33.7257 44.5206L33.7247 44.5222L33.7247 44.5222C33.6248 44.6886 33.5197 44.8523 33.3998 45.0383C33.7786 44.9101 34.1444 44.7446 34.492 44.5442L34.4955 44.5421L34.4956 44.5422C40.0696 41.6254 44.1142 37.3057 46.2624 31.2799L46.2624 31.2799C47.8982 26.6965 47.7176 22.0868 46.181 17.4893C46.1489 17.3934 46.1134 17.2973 46.0773 17.1995L46.0771 17.1988C46.0412 17.1017 46.0048 17.0029 45.9716 16.9039L45.9715 16.9035C45.8762 16.615 45.869 16.3464 45.9549 16.1228C46.0416 15.8968 46.219 15.7285 46.4679 15.6367C46.718 15.5444 46.9571 15.5627 47.1607 15.6823C47.3613 15.8001 47.5165 16.0096 47.618 16.2803C47.618 16.2805 47.6181 16.2807 47.6182 16.2809L47.5245 16.3159C47.9333 17.366 48.2546 18.449 48.4851 19.5535L30.9193 47.6899ZM30.9193 47.6899C31.9021 48.1416 32.8906 48.5842 33.8849 49.0176M30.9193 47.6899L33.8849 49.0176M33.5573 46.9144C33.61 46.9383 33.6616 46.9616 33.7122 46.9845C34.0386 47.132 34.3248 47.2613 34.606 47.4062C34.8541 47.5273 35.0293 47.698 35.1125 47.9073C35.1961 48.1178 35.1808 48.353 35.0751 48.5902C34.9694 48.8273 34.8039 48.9964 34.5916 49.0733C34.38 49.15 34.1367 49.1297 33.8849 49.0176M33.5573 46.9144L33.8845 49.0175C33.8847 49.0175 33.8848 49.0176 33.8849 49.0176M33.5573 46.9144C34.4898 46.5228 35.4008 46.0803 36.2864 45.5888C36.2862 45.5889 36.2861 45.5889 36.286 45.589L33.5573 46.9144Z" fill="url(#paint6_linear_20_101)" stroke="url(#paint7_linear_20_101)" stroke-width="0.2"/>
<path d="M17.8708 25.0046L17.8702 25.0046L17.8712 25.0149C17.8807 25.1223 17.8872 25.2332 17.8939 25.3459C17.9081 25.5844 17.9228 25.8308 17.9664 26.0677C18.6832 30.2347 22.5371 32.8444 26.6279 31.9262L26.6279 31.9262C31.0339 30.9344 33.4255 25.9473 31.4232 21.9347C31.2849 21.6566 31.1016 21.4587 30.8859 21.3593C30.6677 21.2587 30.428 21.2647 30.1929 21.3733C29.9564 21.4825 29.7965 21.6686 29.733 21.9026C29.6701 22.1346 29.7047 22.4033 29.8353 22.6779L29.8353 22.678C31.602 26.3842 28.7828 30.4749 24.7734 30.3158L24.773 30.3158C23.4533 30.269 22.1973 29.7265 21.2483 28.7929C20.2993 27.8593 19.7248 26.6011 19.6362 25.2615C19.4877 22.606 21.4666 20.2043 24.1401 19.7673L24.1402 19.7673C24.3444 19.7336 24.5505 19.7279 24.7646 19.722C24.8087 19.7208 24.8531 19.7195 24.8979 19.7181C25.1566 19.7095 25.4248 19.6923 25.6898 19.6121L25.6905 19.6119C25.851 19.5621 25.9922 19.4635 26.0953 19.3296C26.1983 19.1957 26.2581 19.0331 26.2669 18.8638C26.2758 18.6945 26.2331 18.5265 26.1446 18.3825C26.0561 18.2384 25.9259 18.1252 25.7715 18.0585L25.7716 18.0584L25.7679 18.057C25.5207 17.9617 25.2573 17.917 24.9929 17.9254C23.1261 17.9122 21.3301 18.649 19.9961 19.9748C18.6618 21.301 17.898 23.1091 17.8708 25.0046Z" fill="url(#paint8_linear_20_101)" stroke="url(#paint9_linear_20_101)" stroke-width="0.2"/>
<path d="M28.5739 20.9048L28.596 20.9149L28.6203 20.9137C28.8287 20.9034 29.0067 20.8599 29.1534 20.7717C29.3006 20.6833 29.4089 20.5543 29.4851 20.3858C29.571 20.2253 29.6008 20.04 29.5695 19.8602C29.5382 19.6794 29.447 19.5146 29.3107 19.3931C28.9993 19.1068 28.6392 18.8804 28.248 18.7249C28.0889 18.6578 27.9126 18.645 27.7457 18.6885C27.5809 18.7315 27.4343 18.8269 27.3273 18.9605C27.1956 19.0866 27.1117 19.2555 27.0898 19.4376C27.0677 19.6223 27.1108 19.809 27.2117 19.9646L27.2117 19.9647L27.2131 19.9667C27.535 20.4375 28.0363 20.6629 28.4599 20.8533C28.4986 20.8707 28.5367 20.8878 28.5739 20.9048Z" fill="url(#paint10_linear_20_101)" stroke="url(#paint11_linear_20_101)" stroke-width="0.2"/>
<defs>
<linearGradient id="paint0_linear_20_101" x1="13.9195" y1="14.7334" x2="13.9195" y2="48.588" gradientUnits="userSpaceOnUse">
<stop stop-color="#EC1D77"/>
<stop offset="1" stop-color="#FF737A"/>
</linearGradient>
<linearGradient id="paint1_linear_20_101" x1="13.9195" y1="14.7334" x2="13.9195" y2="48.588" gradientUnits="userSpaceOnUse">
<stop stop-color="#EC1D77"/>
<stop offset="1" stop-color="#FF737A"/>
</linearGradient>
<linearGradient id="paint2_linear_20_101" x1="24.9763" y1="9.15674" x2="24.9763" y2="40.7394" gradientUnits="userSpaceOnUse">
<stop stop-color="#EC1D77"/>
<stop offset="1" stop-color="#FF737A"/>
</linearGradient>
<linearGradient id="paint3_linear_20_101" x1="24.9763" y1="9.15674" x2="24.9763" y2="40.7394" gradientUnits="userSpaceOnUse">
<stop stop-color="#EC1D77"/>
<stop offset="1" stop-color="#FF737A"/>
</linearGradient>
<linearGradient id="paint4_linear_20_101" x1="26.2156" y1="0.88916" x2="26.2156" y2="13.3807" gradientUnits="userSpaceOnUse">
<stop stop-color="#EC1D77"/>
<stop offset="1" stop-color="#FF737A"/>
</linearGradient>
<linearGradient id="paint5_linear_20_101" x1="26.2156" y1="0.88916" x2="26.2156" y2="13.3807" gradientUnits="userSpaceOnUse">
<stop stop-color="#EC1D77"/>
<stop offset="1" stop-color="#FF737A"/>
</linearGradient>
<linearGradient id="paint6_linear_20_101" x1="39.7148" y1="15.6782" x2="39.7148" y2="49.0191" gradientUnits="userSpaceOnUse">
<stop stop-color="#EC1D77"/>
<stop offset="1" stop-color="#FF737A"/>
</linearGradient>
<linearGradient id="paint7_linear_20_101" x1="39.7148" y1="15.6782" x2="39.7148" y2="49.0191" gradientUnits="userSpaceOnUse">
<stop stop-color="#EC1D77"/>
<stop offset="1" stop-color="#FF737A"/>
</linearGradient>
<linearGradient id="paint8_linear_20_101" x1="25.0047" y1="18.0244" x2="25.0047" y2="32.01" gradientUnits="userSpaceOnUse">
<stop stop-color="#EC1D77"/>
<stop offset="1" stop-color="#FF737A"/>
</linearGradient>
<linearGradient id="paint9_linear_20_101" x1="25.0047" y1="18.0244" x2="25.0047" y2="32.01" gradientUnits="userSpaceOnUse">
<stop stop-color="#EC1D77"/>
<stop offset="1" stop-color="#FF737A"/>
</linearGradient>
<linearGradient id="paint10_linear_20_101" x1="28.3329" y1="18.7632" x2="28.3329" y2="20.8138" gradientUnits="userSpaceOnUse">
<stop stop-color="#EC1D77"/>
<stop offset="1" stop-color="#FF737A"/>
</linearGradient>
<linearGradient id="paint11_linear_20_101" x1="28.3329" y1="18.7632" x2="28.3329" y2="20.8138" gradientUnits="userSpaceOnUse">
<stop stop-color="#EC1D77"/>
<stop offset="1" stop-color="#FF737A"/>
</linearGradient>
</defs>
</svg>
